<?xml version="1.0" standalone="no"?>
<!DOCTYPE svg PUBLIC "-//W3C//DTD SVG 1.1//EN" "http://www.w3.org/Graphics/SVG/1.1/DTD/svg11.dtd" >
<svg>
<metadata>
Created by FontForge 20090622 at Fri May  8 04:12:32 2015
 By deploy user
Copyright (c) Olivier Gourvat - Mostardesign Studio, 2011. All rights reserved.
</metadata>
<defs>
<font id="KyrialSansProRegular" horiz-adv-x="595" >
  <font-face 
    font-family="Kyrial Sans Pro Regular"
    font-weight="400"
    font-stretch="normal"
    units-per-em="1000"
    panose-1="2 11 0 0 0 0 0 0 0 0"
    ascent="750"
    descent="-250"
    x-height="484"
    cap-height="689"
    bbox="-146 -227 1219 1031"
    underline-thickness="50"
    underline-position="-50"
    unicode-range="U+0020-U+FB06"
  />
<missing-glyph horiz-adv-x="635" 
d="M80 0v665h475v-665h-475zM156 618l162 -243l161 243h-323zM128 575v-484l40 61l80 120l41 61zM508 575l-162 -242l162 -243v485zM479 48l-161 242l-162 -242h323z" />
    <glyph glyph-name="ff" unicode="ff" horiz-adv-x="700" 
d="M28 417v67h86v80q0 35 7.5 61.5t23.5 41.5t31 24.5t39 13t37.5 4.5t37.5 1h55v-67h-47q-61 0 -80 -17.5t-19 -67.5v-74h265v80q0 35 7.5 61.5t23.5 41.5t31 24.5t39 13t37.5 4.5t37.5 1h55v-67h-47q-61 0 -80 -17.5t-19 -67.5v-74h125v-67h-125v-417h-85v417h-265v-417
h-85v417h-86z" />
    <glyph glyph-name="fi" unicode="fi" horiz-adv-x="594" 
d="M519 0h-86v417h-234v-417h-85v417h-86v67h86v80q0 35 7.5 61.5t23.5 41.5t31 24.5t39 13t37.5 4.5t37.5 1h55v-67h-47q-61 0 -80 -17.5t-19 -67.5v-74h320v-484zM423 637q0 52 52 52t52 -52t-52 -52t-52 52z" />
    <glyph glyph-name="fl" unicode="fl" horiz-adv-x="632" 
d="M28 417v67h86v80q0 35 7.5 61.5t23.5 41.5t31 24.5t39 13t37.5 4.5t37.5 1h55v-67h-47q-61 0 -80 -17.5t-19 -67.5v-74h125v-67h-125v-417h-85v417h-86zM508 141v569h-85v-575q0 -80 38.5 -109.5t128.5 -29.5h30v69h-12q-35 0 -56.5 5.5t-30.5 18t-11 23t-2 29.5z" />
    <glyph glyph-name="ffi" unicode="ffi" horiz-adv-x="944" 
d="M869 0h-86v417h-234v-417h-85v417h-265v-417h-85v417h-86v67h86v80q0 35 7.5 61.5t23.5 41.5t31 24.5t39 13t37.5 4.5t37.5 1h55v-67h-47q-61 0 -80 -17.5t-19 -67.5v-74h265v80q0 35 7.5 61.5t23.5 41.5t31 24.5t39 13t37.5 4.5t37.5 1h55v-67h-47q-61 0 -80 -17.5
t-19 -67.5v-74h320v-484zM773 637q0 52 52 52t52 -52t-52 -52t-52 52z" />
    <glyph glyph-name="ffl" unicode="ffl" horiz-adv-x="982" 
d="M199 417v-417h-85v417h-86v67h86v80q0 35 7.5 61.5t23.5 41.5t31 24.5t39 13t37.5 4.5t37.5 1h55v-67h-47q-61 0 -80 -17.5t-19 -67.5v-74h265v80q0 35 7.5 61.5t23.5 41.5t31 24.5t39 13t37.5 4.5t37.5 1h55v-67h-47q-61 0 -80 -17.5t-19 -67.5v-74h125v-67h-125v-417
h-85v417h-265zM858 141v569h-85v-575q0 -80 38.5 -109.5t128.5 -29.5h30v69h-12q-35 0 -56.5 5.5t-30.5 18t-11 23t-2 29.5z" />
    <glyph glyph-name="f_f_j" unicode="ffj" horiz-adv-x="939" 
d="M779 -55v472h-230v-417h-85v417h-265v-417h-85v417h-86v67h86v80q0 35 7.5 61.5t23.5 41.5t31 24.5t39 13t37.5 4.5t37.5 1h55v-67h-47q-61 0 -80 -17.5t-19 -67.5v-74h265v80q0 35 7.5 61.5t23.5 41.5t31 24.5t39 13t37.5 4.5t37.5 1h55v-67h-47q-61 0 -80 -17.5
t-19 -67.5v-74h315v-545q0 -80 -43 -113.5t-133 -33.5h-30v67h12q39 0 63 7t33 21.5t11 25.5t2 32zM769 637q0 52 52 52t52 -52t-52 -52t-52 52z" />
    <glyph glyph-name="f_j" unicode="fj" horiz-adv-x="589" 
d="M429 -55v472h-230v-417h-85v417h-86v67h86v80q0 35 7.5 61.5t23.5 41.5t31 24.5t39 13t37.5 4.5t37.5 1h55v-67h-47q-61 0 -80 -17.5t-19 -67.5v-74h315v-545q0 -80 -43 -113.5t-133 -33.5h-30v67h12q39 0 63 7t33 21.5t11 25.5t2 32zM419 637q0 52 52 52t52 -52t-52 -52
t-52 52z" />
    <glyph glyph-name="f_f_b" unicode="ffb" horiz-adv-x="1268" 
d="M1219 249q0 -62 -17 -110.5t-42.5 -75.5t-59.5 -44.5t-62 -23.5t-56 -6q-78 0 -123 52l-6 -41h-80v710h86v-240q43 25 128 25q38 0 77.5 -16t74.5 -45t57.5 -77.5t22.5 -107.5zM199 417v-417h-85v417h-86v67h86v80q0 35 7.5 61.5t23.5 41.5t31 24.5t39 13t37.5 4.5
t37.5 1h55v-67h-47q-61 0 -80 -17.5t-19 -67.5v-74h265v80q0 35 7.5 61.5t23.5 41.5t31 24.5t39 13t37.5 4.5t37.5 1h55v-67h-47q-61 0 -80 -17.5t-19 -67.5v-74h125v-67h-125v-417h-85v417h-265zM1129 244q0 81 -49.5 132.5t-131.5 51.5q-45 0 -89 -25v-293q48 -58 111 -58
q66 0 112.5 47t46.5 145z" />
    <glyph glyph-name="f_b" unicode="fb" horiz-adv-x="918" 
d="M28 417v67h86v80q0 35 7.5 61.5t23.5 41.5t31 24.5t39 13t37.5 4.5t37.5 1h55v-67h-47q-61 0 -80 -17.5t-19 -67.5v-74h125v-67h-125v-417h-85v417h-86zM779 244q0 -98 -46.5 -145t-112.5 -47q-63 0 -111 58v293q44 25 89 25q82 0 131.5 -51.5t49.5 -132.5zM869 249
q0 59 -22.5 107.5t-57.5 77.5t-74.5 45t-77.5 16q-85 0 -128 -25v240h-86v-710h80l6 41q45 -52 123 -52q28 0 56 6t62 23.5t59.5 44.5t42.5 75.5t17 110.5z" />
    <glyph glyph-name="f_k" unicode="fk" horiz-adv-x="824" 
d="M28 417v67h86v80q0 35 7.5 61.5t23.5 41.5t31 24.5t39 13t37.5 4.5t37.5 1h55v-67h-47q-61 0 -80 -17.5t-19 -67.5v-74h125v-67h-125v-417h-85v417h-86zM821 0h-99q-86 133 -213 221v-221h-86v710h86v-390l156 164h106l-201 -209q66 -50 138 -129.5t113 -145.5z" />
    <glyph glyph-name="f_f_k" unicode="ffk" horiz-adv-x="1174" 
d="M28 417v67h86v80q0 35 7.5 61.5t23.5 41.5t31 24.5t39 13t37.5 4.5t37.5 1h55v-67h-47q-61 0 -80 -17.5t-19 -67.5v-74h265v80q0 35 7.5 61.5t23.5 41.5t31 24.5t39 13t37.5 4.5t37.5 1h55v-67h-47q-61 0 -80 -17.5t-19 -67.5v-74h125v-67h-125v-417h-85v417h-265v-417
h-85v417h-86zM1171 0h-99q-86 133 -213 221v-221h-86v710h86v-390l156 164h106l-201 -209q66 -50 138 -129.5t113 -145.5z" />
    <glyph glyph-name=".notdef" horiz-adv-x="635" 
d="M80 0v665h475v-665h-475zM156 618l162 -243l161 243h-323zM128 575v-484l40 61l80 120l41 61zM508 575l-162 -242l162 -243v485zM479 48l-161 242l-162 -242h323z" />
    <glyph glyph-name=".null" horiz-adv-x="0" 
 />
    <glyph glyph-name="nonmarkingreturn" horiz-adv-x="333" 
 />
    <glyph glyph-name="space" unicode=" " horiz-adv-x="228" 
 />
    <glyph glyph-name="exclam" unicode="!" horiz-adv-x="246" 
d="M80 689h86l-8 -533h-70zM70 46q0 52 52 52t52 -52t-52 -52t-52 52z" />
    <glyph glyph-name="quotedbl" unicode="&#x22;" horiz-adv-x="356" 
d="M64 689h86l-10 -272h-67zM206 689h86l-10 -272h-67z" />
    <glyph glyph-name="numbersign" unicode="#" horiz-adv-x="730" 
d="M190 0h-72l42 181h-117l17 73h117l39 164h-117l17 73h117l46 198h73l-47 -198h169l47 198h73l-47 -198h140l-17 -73h-140l-39 -164h140l-17 -73h-140l-42 -181h-73l42 181h-169zM288 418l-39 -164h169l39 164h-169z" />
    <glyph glyph-name="dollar" unicode="$" horiz-adv-x="572" 
d="M319 800v-101q41 -1 93 -13.5t82 -24.5v-79q-107 39 -181 39q-86 0 -129 -32.5t-45 -84.5v-7t4 -16.5t12 -23.5t27 -24t45 -21l40 -14q56 -18 87 -29.5t70 -31.5t58.5 -41t32 -52.5t10.5 -70.5q-8 -90 -61 -132.5t-145 -49.5v-105h-62v103q-78 3 -195 47v83
q118 -53 208 -53q160 0 167 114q1 26 -13 46t-41.5 35t-62 27.5l-79.5 27.5q-27 8 -41 13q-45 15 -76.5 39t-45 47.5t-20.5 45t-7 35.5v13q2 78 54.5 127t151.5 60v104h62z" />
    <glyph glyph-name="percent" unicode="%" horiz-adv-x="773" 
d="M294 538q0 45 -22.5 70.5t-62.5 25.5q-41 0 -64 -26t-23 -70q0 -47 23 -73.5t64 -26.5q40 0 62.5 26t22.5 74zM47 535q0 83 49 125t113 40q68 0 114.5 -38t46.5 -125q0 -80 -43.5 -122t-117.5 -42q-64 -2 -113 39t-49 123zM648 154q0 45 -22.5 70.5t-62.5 25.5
q-41 0 -64 -26t-23 -70q0 -47 23 -73.5t64 -26.5q40 0 62.5 26t22.5 74zM401 151q0 83 49 125t113 40q68 0 114.5 -38t46.5 -125q0 -80 -43.5 -122t-117.5 -42q-64 -2 -113 39t-49 123zM148 0h-65l551 689h65z" />
    <glyph glyph-name="ampersand" unicode="&#x26;" horiz-adv-x="648" 
d="M437 98v229h-146q-38 0 -65.5 -14.5t-40.5 -35.5t-20 -42t-8 -35l-1 -15q2 -51 41.5 -85t112.5 -34q63 0 127 32zM522 327v-269q-31 -23 -98.5 -46t-111.5 -23q-115 0 -176.5 51t-64.5 140q0 7 0.5 17.5t6.5 36.5t16 47.5t32 43.5t51 32q-30 10 -51.5 29.5t-31.5 37.5
t-16 40.5t-6.5 31t-0.5 14.5q3 89 64.5 139t176.5 50q101 0 152 -22v-74q-64 19 -154 19q-73 0 -112.5 -33t-41.5 -84v-9t4.5 -21t12.5 -28t26.5 -26.5t44.5 -20.5h278h103v-73h-103z" />
    <glyph glyph-name="quotesingle" unicode="'" horiz-adv-x="214" 
d="M64 689h86l-10 -272h-67z" />
    <glyph glyph-name="parenleft" unicode="(" horiz-adv-x="339" 
d="M50 250q0 213 70 331.5t187 118.5v-62q-75 -1 -124.5 -96.5t-49.5 -293.5q0 -197 49.5 -290.5t124.5 -94.5v-63q-117 0 -187 120t-70 330z" />
    <glyph glyph-name="parenright" unicode=")" horiz-adv-x="338" 
d="M289 250q0 -210 -70 -330t-187 -120v63q75 1 124.5 94.5t49.5 290.5q0 198 -49.5 293.5t-124.5 96.5v62q117 0 187 -118.5t70 -331.5z" />
    <glyph glyph-name="asterisk" unicode="*" horiz-adv-x="479" 
d="M52 482v72l131 -7l-70 115l63 37l63 -120l62 120l63 -36l-70 -116l133 7v-72l-133 7l70 -116l-63 -36l-62 120l-63 -120l-63 37l70 115z" />
    <glyph glyph-name="plus" unicode="+" horiz-adv-x="538" 
d="M229 498h80v-182h182v-80h-182v-182h-80v182h-182v80h182v182z" />
    <glyph glyph-name="comma" unicode="," horiz-adv-x="237" 
d="M78 -108h-66l74 198h90z" />
    <glyph glyph-name="hyphen" unicode="-" horiz-adv-x="456" 
d="M389 298v-76h-322v76h322z" />
    <glyph glyph-name="period" unicode="." horiz-adv-x="234" 
d="M60 46q0 27 12 42t45 15t45 -15t12 -42q0 -57 -57 -57t-57 57z" />
    <glyph glyph-name="slash" unicode="/" horiz-adv-x="427" 
d="M110 0h-72l279 689h72z" />
    <glyph glyph-name="zero" unicode="0" horiz-adv-x="621" 
d="M310 -11h1q-118 0 -188.5 96t-70.5 258q0 93 22.5 164.5t60.5 112t82.5 60.5t92.5 20t92.5 -20t82.5 -60.5t61 -112t23 -164.5q0 -162 -71 -258t-188 -96zM311 65q75 0 124 78t49 200q0 137 -53 209t-121 72q-67 0 -120 -72.5t-53 -208.5q0 -123 49 -200.5t125 -77.5z
" />
    <glyph glyph-name="one" unicode="1" horiz-adv-x="425" 
d="M47 0v76h135v521l-134 -59v81l148 70h72v-613h135v-76h-356z" />
    <glyph glyph-name="two" unicode="2" horiz-adv-x="539" 
d="M486 514q0 -104 -110 -214l-223 -225l336 1v-76h-453v67l256 265q109 105 109 177q-2 51 -40.5 82t-111.5 31q-96 0 -188 -54v79q88 52 186 52q116 0 177.5 -48.5t61.5 -136.5z" />
    <glyph glyph-name="three" unicode="3" horiz-adv-x="544" 
d="M389 343q27 -11 47 -32t29.5 -40.5t15 -42t6 -32t0.5 -15.5q-3 -89 -65 -140.5t-176 -51.5q-44 0 -109.5 12.5t-90.5 23.5v77q99 -36 202 -36q73 0 111.5 34t40.5 86q0 4 -0.5 11t-5 25.5t-12.5 33.5t-26 30t-42 20h-178v76v0v0v0h1v0h1v0h1v0h1h1h1h1h1h1h1h1h1h1h1h1h1
h1h1h1h1h1h1h1h1h1h1h1h1h1h1h1h1h1h1h1h1h1h1h1h2h1h1h1h1h1h2h1h1h1h2h1h1h1h2h1h1h2h1h1h2h1h1h2h1h1h2h1h2h1h2h1h1h2h1h2h1h2h1h2h1h2h1h2h2h1h2h1h2h1h2h2h1h2h2h1h2h1h2h2h1h2h2h2h1h2h2h1h2h2h2h1h2h2h2h1h2h2h2h2h1h2h2h2h2h9q41 11 62.5 41t22.5 55l1 24
q-2 52 -40.5 86t-111.5 34q-88 0 -184 -35v76q27 12 83 24t99 12q114 0 176 -51.5t65 -140.5q0 -7 -0.5 -15.5t-5.5 -32t-14.5 -43t-29.5 -41t-48 -32.5z" />
    <glyph glyph-name="four" unicode="4" horiz-adv-x="583" 
d="M453 241h100v-75h-100v-166h-86v166h-343v61l338 462h91v-448zM367 585l-247 -344h247v344z" />
    <glyph glyph-name="five" unicode="5" horiz-adv-x="565" 
d="M485 689v-76h-309l-17 -190h26h113q121 0 174 -61t53 -160q-3 -91 -71.5 -152t-181.5 -61q-46 0 -124 12.5t-101 22.5l9 77q96 -35 218 -35q75 0 119 39.5t44 101.5q0 12 -1 23t-8.5 34t-21.5 38.5t-44 28.5t-71 13h-224l30 345h388z" />
    <glyph glyph-name="six" unicode="6" horiz-adv-x="601" 
d="M141 215q0 -59 44.5 -104.5t125.5 -45.5q73 0 120.5 35.5t47.5 114.5q0 65 -43.5 108t-120.5 43q-81 0 -126.5 -46t-47.5 -105zM136 342q16 42 69 72t110 30q120 0 183 -68t63 -161q0 -105 -65 -165.5t-183 -60.5q-123 0 -191.5 67t-68.5 207q0 211 82.5 324t230.5 113
q33 0 59 -2.5t34.5 -4t28.5 -8t22 -7.5v-72q-50 22 -128 22q-80 0 -137.5 -44.5t-83 -107.5t-25.5 -134z" />
    <glyph glyph-name="seven" unicode="7" horiz-adv-x="508" 
d="M139 0h-93l346 612h-357v77h453v-76z" />
    <glyph glyph-name="eight" unicode="8" horiz-adv-x="603" 
d="M295 -11q-113 1 -176.5 52.5t-66.5 139.5q0 8 0.5 16t5.5 33t14.5 45t31 43t51.5 36q-87 37 -87 163q3 84 61 133t166 50h13q108 -1 166 -50t61 -133q0 -126 -87 -163q30 -13 51.5 -36t31 -43t14.5 -45t5.5 -33t0.5 -16q-3 -88 -66.5 -139.5t-176.5 -52.5h-13zM288 66h27
q70 1 108.5 35.5t40.5 84.5q0 5 -1 14.5t-8.5 32.5t-20 40.5t-39.5 32t-64 14.5h-59q-37 0 -64 -14t-39.5 -33.5t-20 -39t-8.5 -33.5l-1 -14q2 -50 40.5 -84.5t108.5 -35.5zM265 389h66q34 1 59 14t36 31t18 35.5t8 30.5v12q-2 47 -36.5 79.5t-100.5 34.5h-27
q-66 -2 -100.5 -34.5t-36.5 -79.5q0 -5 0.5 -13.5t7 -29.5t17 -37t34 -29.5t55.5 -13.5z" />
    <glyph glyph-name="nine" unicode="9" horiz-adv-x="600" 
d="M460 474q0 59 -44.5 104.5t-125.5 45.5q-73 0 -120.5 -35.5t-47.5 -114.5q0 -65 43.5 -108t120.5 -43q81 0 126.5 46t47.5 105zM465 347q-16 -42 -69 -72t-110 -30q-120 0 -183 68t-63 161q0 105 65 165.5t183 60.5q123 0 191.5 -67t68.5 -207q0 -211 -82.5 -324
t-230.5 -113q-33 0 -59 2.5t-34.5 4t-28.5 8t-22 7.5v72q50 -22 128 -22q80 0 137.5 44.5t83 107.5t25.5 134z" />
    <glyph glyph-name="colon" unicode=":" horiz-adv-x="248" 
d="M67 46q0 27 12 42t45 15t45 -15t12 -42q0 -57 -57 -57t-57 57zM67 427q0 27 12 42t45 15t45 -15t12 -42q0 -57 -57 -57t-57 57z" />
    <glyph glyph-name="semicolon" unicode=";" horiz-adv-x="276" 
d="M91 438q0 27 12 42t45 15t45 -15t12 -42q0 -57 -57 -57t-57 57zM20 -108h66l98 198h-90z" />
    <glyph glyph-name="less" unicode="&#x3c;" horiz-adv-x="622" 
d="M135 269l419 -140v-89l-509 185v92l509 185v-89z" />
    <glyph glyph-name="equal" unicode="=" horiz-adv-x="592" 
d="M518 220v-80h-444v80h444zM518 418v-80h-444v80h444z" />
    <glyph glyph-name="greater" unicode="&#x3e;" horiz-adv-x="622" 
d="M68 129l419 140l-419 144v89l509 -185v-92l-509 -185v89z" />
    <glyph glyph-name="question" unicode="?" horiz-adv-x="489" 
d="M117 156v2q-8 158 162 232q28 12 46 30t24.5 36.5t8.5 30t1 20.5q0 55 -42 84.5t-117 29.5l-15 -1q-15 -1 -24 -2.5t-26.5 -5.5t-37.5 -12t-42 -20l-6 72q61 41 145 47q109 9 179.5 -46.5t70.5 -139.5q0 -65 -22 -107q-33 -61 -109 -94q-119 -51 -113 -149v-7h-83z
M108 46q0 -52 52 -52t52 52t-52 52t-52 -52z" />
    <glyph glyph-name="at" unicode="@" horiz-adv-x="1020" 
d="M899 22v-74q-59 -53 -161 -83.5t-206 -30.5q-218 0 -350 126t-132 310q0 177 138.5 303.5t329.5 126.5q90 0 166.5 -22t128 -58.5t88 -83.5t53 -96.5t16.5 -97.5q0 -85 -26 -148.5t-68.5 -96.5t-87 -48.5t-90.5 -15.5q-37 0 -70.5 19.5t-42.5 50.5q-61 -54 -134 -54
q-76 0 -127.5 49t-51.5 151q0 90 62 162t175 72q28 0 63 -14.5t52 -38.5l9 45h92l-65 -290q-9 -33 8 -59.5t40 -26.5q30 0 60 12t59.5 37.5t48 74t18.5 111.5q0 71 -33.5 130t-88 96t-120.5 57t-134 20q-158 0 -275 -109t-117 -258q0 -163 114 -266t297 -103q208 0 362 121z
M510 412q-41 0 -72 -16t-47 -42t-23.5 -52.5t-7.5 -52.5q0 -128 106 -128q55 0 104 51l40 199q-35 41 -100 41z" />
    <glyph glyph-name="A" unicode="A" horiz-adv-x="641" 
d="M111 0h-87q61 208 114 360.5t134 328.5h97q81 -176 134 -328.5t114 -360.5h-87l-62 209h-295zM321 608q-65 -145 -125 -329h249q-53 168 -124 329z" />
    <glyph glyph-name="B" unicode="B" horiz-adv-x="640" 
d="M457 352q52 -10 89.5 -52.5t37.5 -111.5q0 -95 -57.5 -141.5t-157.5 -46.5h-275v689h287q19 0 39 -4.5t43.5 -17t42 -32t31 -53t12.5 -75.5q0 -47 -23 -90t-69 -65zM353 385q49 0 78 38t29 84q0 53 -33.5 79.5t-80.5 26.5h-166v-228h173zM369 315h-189v-239h190
q56 0 90 27.5t34 84.5q0 37 -12 63.5t-31.5 39.5t-39.5 18.5t-42 5.5z" />
    <glyph glyph-name="C" unicode="C" horiz-adv-x="637" 
d="M593 84v-74q-79 -21 -206 -21q-133 0 -233 95t-100 259q0 110 49.5 193t124.5 123.5t159 40.5q131 0 206 -22v-73q-115 18 -181 18q-118 0 -194.5 -76t-76.5 -204q0 -127 80 -202t191 -75q63 0 181 18z" />
    <glyph glyph-name="D" unicode="D" horiz-adv-x="694" 
d="M322 0h-142h-86v689h86h142q131 0 223.5 -91.5t92.5 -254.5q0 -165 -92 -254t-224 -89zM180 76h99q132 0 200 67.5t68 199.5q0 270 -268 270h-99v-537z" />
    <glyph glyph-name="E" unicode="E" horiz-adv-x="566" 
d="M176 318v-174q0 -68 79 -68h254v-76h-269q-79 2 -114 30.5t-36 100.5v558h419v-76h-333v-219h310v-76h-310z" />
    <glyph glyph-name="F" unicode="F" horiz-adv-x="514" 
d="M180 318v-318h-86v689h381v-76h-295v-219h272v-76h-272z" />
    <glyph glyph-name="G" unicode="G" horiz-adv-x="713" 
d="M649 353v-318q-102 -46 -262 -46q-133 0 -233 95t-100 259q0 165 106 261t259 96q109 0 197 -26v-73q-121 19 -172 19q-134 0 -217 -74.5t-83 -202.5q0 -127 78.5 -200.5t189.5 -73.5q74 0 151 21v187h-179v76h265z" />
    <glyph glyph-name="H" unicode="H" horiz-adv-x="715" 
d="M180 0h-86v689h86v-295h355v295h86v-689h-86v327h-355v-327z" />
    <glyph glyph-name="I" unicode="I" horiz-adv-x="274" 
d="M180 0h-86v689h86v-689z" />
    <glyph glyph-name="J" unicode="J" horiz-adv-x="292" 
d="M-126 -203v73q51 -8 95 -6t76 14.5t50 54t18 112.5v644h85v-665q0 -248 -262 -233q-7 1 -62 6z" />
    <glyph glyph-name="K" unicode="K" horiz-adv-x="588" 
d="M588 0h-113q-135 163 -295 280v-280h-86v689h86v-312q147 138 279 312h99q-137 -185 -316 -359q180 -129 346 -330z" />
    <glyph glyph-name="L" unicode="L" horiz-adv-x="538" 
d="M176 689v-545q0 -68 79 -68h262v-76h-277q-79 2 -114 30.5t-36 100.5v558h86z" />
    <glyph glyph-name="M" unicode="M" horiz-adv-x="937" 
d="M507 71h-77q-99 253 -232 504l-45 -575h-83l55 689h104q126 -241 239 -518q116 282 240 518h104l55 -689h-83l-45 575q-133 -251 -232 -504z" />
    <glyph glyph-name="N" unicode="N" horiz-adv-x="708" 
d="M528 148v541h86v-689h-97l-102.5 197.5t-103 181t-131.5 206.5v-585h-86v689h114q98 -138 166.5 -256.5t153.5 -284.5z" />
    <glyph glyph-name="O" unicode="O" horiz-adv-x="802" 
d="M400 -11h2q-157 0 -252 96t-95 257q0 93 30.5 164.5t81.5 112.5t110.5 61t123.5 20t123.5 -20t110.5 -61t81.5 -112.5t30.5 -164.5q0 -161 -95 -257t-252 -96zM400 63q118 0 190 78t72 201q0 138 -78.5 211t-182.5 73t-182.5 -73t-78.5 -211q0 -123 72 -201t188 -78z" />
    <glyph glyph-name="P" unicode="P" horiz-adv-x="604" 
d="M375 281h-195v-281h-86v689h285q67 0 127 -53.5t60 -144.5q0 -50 -14 -89t-34.5 -61t-47.5 -36.5t-50 -19t-45 -4.5zM180 358h196q36 0 70.5 31.5t34.5 101.5q0 52 -33 86.5t-69 34.5h-199v-254z" />
    <glyph glyph-name="Q" unicode="Q" horiz-adv-x="802" 
d="M400 60q117 0 189.5 79t72.5 203q0 138 -78.5 212.5t-182.5 74.5t-182.5 -74.5t-78.5 -212.5q0 -123 72 -202.5t188 -79.5zM438 -9q15 -77 105 -77q92 0 135 19v-66q-49 -22 -132 -22q-176 0 -192 147q-137 14 -218 108t-81 242q0 93 30.5 164.5t81.5 112.5t110.5 61
t123.5 20t123.5 -20t110.5 -61t81.5 -112.5t30.5 -164.5q0 -151 -83.5 -245t-225.5 -106z" />
    <glyph glyph-name="R" unicode="R" horiz-adv-x="628" 
d="M596 0h-98q-48 86 -144 218q-29 41 -44.5 54t-41.5 13h-88v-285h-86v689h271q87 0 142.5 -51.5t55.5 -146.5q0 -163 -145 -199q-14 -3 -28 -3q53 -52 110 -134t96 -155zM180 358h191q46 0 76.5 30.5t30.5 102.5q0 56 -33 88.5t-89 32.5h-176v-254z" />
    <glyph glyph-name="S" unicode="S" horiz-adv-x="576" 
d="M65 36v83q118 -53 208 -53q160 0 167 114q1 26 -13 46t-41.5 35t-62 27.5l-79.5 27.5q-27 8 -41 13q-45 15 -76.5 39t-45 47.5t-20.5 45t-7 35.5v13q3 89 70 139.5t194 50.5q42 0 96.5 -13t82.5 -25v-79q-107 39 -181 39q-86 0 -129 -32.5t-45 -84.5v-7t4 -16.5t12 -23.5
t27 -24t45 -21l40 -14q56 -18 87 -29.5t70 -31.5t58.5 -41t32 -52.5t10.5 -70.5q-8 -101 -74 -142.5t-181 -41.5q-82 0 -208 47z" />
    <glyph glyph-name="T" unicode="T" horiz-adv-x="561" 
d="M324 0h-86v613h-217v76h519v-76h-216v-613z" />
    <glyph glyph-name="U" unicode="U" horiz-adv-x="720" 
d="M360 -11q-33 0 -60.5 3t-70 20t-71.5 46t-50.5 87.5t-21.5 138.5v405h85v-385q0 -49 8 -87.5t19.5 -63t30 -42t33 -25.5t36 -12.5t31.5 -5t26 -0.5h5q69 0 103 19q86 47 86 217v385h85v-405q0 -80 -21.5 -138.5t-50.5 -87.5t-71.5 -46t-70 -20t-60.5 -3z" />
    <glyph glyph-name="V" unicode="V" horiz-adv-x="609" 
d="M305 98l191 591h92l-238 -689h-91l-238 689h93z" />
    <glyph glyph-name="W" unicode="W" horiz-adv-x="1004" 
d="M456 613h92q115 -278 171 -531l169 607h91l-201 -689h-116q-67 284 -160 519q-93 -235 -160 -519h-116l-201 689h91l169 -607q56 253 171 531z" />
    <glyph glyph-name="X" unicode="X" horiz-adv-x="573" 
d="M116 0h-101l221 358l-204 331h101l154 -260l153 260h101l-204 -331l222 -358h-102l-170 287z" />
    <glyph glyph-name="Y" unicode="Y" horiz-adv-x="565" 
d="M326 298v-298h-86v297l-227 392h101l169 -308l168 308h100z" />
    <glyph glyph-name="Z" unicode="Z" horiz-adv-x="624" 
d="M576 76v-76h-539v72l428 541h-408v76h523v-73l-432 -540h428z" />
    <glyph glyph-name="bracketleft" unicode="[" horiz-adv-x="316" 
d="M279 -134v-66h-200v889h200v-66h-114v-757h114z" />
    <glyph glyph-name="backslash" unicode="\" horiz-adv-x="427" 
d="M389 0h-72l-279 689h72z" />
    <glyph glyph-name="bracketright" unicode="]" horiz-adv-x="316" 
d="M37 -200v66h114v757h-114v66h200v-889h-200z" />
    <glyph glyph-name="underscore" unicode="_" horiz-adv-x="712" 
d="M624 -43v-74h-536v74h536z" />
    <glyph glyph-name="grave" unicode="`" horiz-adv-x="471" 
d="M224 555l-95 134h95l70 -134h-70z" />
    <glyph glyph-name="a" unicode="a" horiz-adv-x="513" 
d="M357 105v119q-52 8 -88 8q-143 0 -143 -93q0 -37 25 -62t75 -25q31 0 73.5 17.5t57.5 35.5zM443 287v-287h-72l-6 46q-16 -18 -62 -37.5t-89 -19.5q-172 0 -172 154q0 72 58.5 111t139.5 39q37 0 117 -10v23q0 58 -31.5 90t-82.5 32q-28 0 -57 -6t-46.5 -12t-38 -14.5
t-22.5 -9.5v67q2 1 21.5 9t38.5 14.5t52.5 12.5t67.5 6q81 0 132.5 -48.5t51.5 -159.5z" />
    <glyph glyph-name="b" unicode="b" horiz-adv-x="571" 
d="M432 244q0 81 -49.5 132.5t-131.5 51.5q-45 0 -89 -25v-293q48 -58 111 -58q66 0 112.5 47t46.5 145zM522 249q0 -62 -17 -110.5t-42.5 -75.5t-59.5 -44.5t-62 -23.5t-56 -6q-78 0 -123 52l-6 -41h-80v710h86v-240q43 25 128 25q38 0 77.5 -16t74.5 -45t57.5 -77.5
t22.5 -107.5z" />
    <glyph glyph-name="c" unicode="c" horiz-adv-x="474" 
d="M48 242v-2q0 117 71 186t165 69q78 0 146 -17v-66q-68 18 -128 16q-85 0 -124.5 -53t-39.5 -134q0 -80 39.5 -132.5t124.5 -52.5q60 -2 128 16v-66q-68 -17 -146 -17q-94 0 -165 68.5t-71 184.5z" />
    <glyph glyph-name="d" unicode="d" horiz-adv-x="571" 
d="M139 244q0 -98 46.5 -145t112.5 -47q63 0 111 58v293q-44 25 -89 25q-82 0 -131.5 -51.5t-49.5 -132.5zM423 0l-6 46q-14 -21 -51 -39t-80 -18q-28 0 -56 6t-62 23.5t-59.5 44.5t-42.5 75.5t-17 110.5q0 59 22.5 107.5t57.5 77.5t74.5 45t77.5 16q85 0 128 -25v240h86
v-710h-72z" />
    <glyph glyph-name="e" unicode="e" horiz-adv-x="551" 
d="M135 272h289q0 67 -41.5 111t-102.5 44t-103 -44t-42 -111zM288 -11q-107 0 -173 64.5t-66 192.5q0 115 67.5 182t163.5 67q107 0 167.5 -69t60.5 -189l-2 -26h-371q0 -71 51 -113t117 -42q60 0 168 28v-66q-113 -28 -183 -29z" />
    <glyph glyph-name="f" unicode="f" horiz-adv-x="350" 
d="M28 417v67h86v80q0 35 7.5 61.5t23.5 41.5t31 24.5t39 13t37.5 4.5t37.5 1h55v-67h-47q-61 0 -80 -17.5t-19 -67.5v-74h125v-67h-125v-417h-85v417h-86z" />
    <glyph glyph-name="g" unicode="g" horiz-adv-x="563" 
d="M290 436q-63 -1 -106.5 -47.5t-43.5 -144.5q0 -76 46 -130t126 -54q42 0 89 25v298q-16 19 -49 36t-62 17zM487 488v-551q0 -77 -59.5 -112t-155.5 -35q-70 0 -149 25v68q92 -30 130 -30q51 0 83.5 7.5t45 23t16 27.5t3.5 32v83q-17 -15 -52 -24t-66 -9q-40 0 -80 16
t-74.5 45t-56.5 77.5t-22 107.5q0 62 16 110.5t40.5 75.5t56.5 44.5t59.5 23.5t55.5 6q78 0 123 -52l6 41h80z" />
    <glyph glyph-name="h" unicode="h" horiz-adv-x="571" 
d="M499 296v-296h-90v263q0 86 -26.5 124.5t-95.5 38.5q-72 0 -125 -51v-375h-86v484v226h80v-234l-1 -30q15 17 57.5 33t86.5 16q200 0 200 -199z" />
    <glyph glyph-name="i" unicode="i" horiz-adv-x="238" 
d="M162 0h-86v484h86v-484zM66 637q0 52 52 52t52 -52t-52 -52t-52 52z" />
    <glyph glyph-name="j" unicode="j" horiz-adv-x="237" 
d="M76 -55v539h85v-545q0 -80 -43 -113.5t-133 -33.5h-30v67h12q39 0 63 7t33 21.5t11 25.5t2 32zM66 637q0 52 52 52t52 -52t-52 -52t-52 52z" />
    <glyph glyph-name="k" unicode="k" horiz-adv-x="477" 
d="M474 0h-99q-86 133 -213 221v-221h-86v710h86v-390l156 164h106l-201 -209q66 -50 138 -129.5t113 -145.5z" />
    <glyph glyph-name="l" unicode="l" horiz-adv-x="284" 
d="M160 710v-569q0 -19 2 -29.5t11 -23t30.5 -18t56.5 -5.5h12v-69h-30q-90 0 -128.5 29.5t-38.5 109.5v575h85z" />
    <glyph glyph-name="m" unicode="m" horiz-adv-x="899" 
d="M465 423q29 35 73.5 53.5t89.5 18.5q44 0 75.5 -8t62 -30t46.5 -69.5t16 -118.5v-269h-90v263q0 96 -25.5 132.5t-96.5 36.5q-35 0 -71 -21.5t-52 -48.5v-362h-87v263q0 96 -25.5 132.5t-96.5 36.5q-34 0 -69.5 -19t-52.5 -41v-372h-86v484h80l6 -38q15 18 53 33.5
t81 15.5q62 0 103.5 -15t65.5 -57z" />
    <glyph glyph-name="n" unicode="n" horiz-adv-x="570" 
d="M499 269v-269h-90v263q0 96 -25.5 132.5t-96.5 36.5q-34 0 -71 -19t-54 -41v-372h-86v484h80l6 -38q15 18 54.5 33.5t82.5 15.5t74 -8t62 -30t47.5 -69.5t16.5 -118.5z" />
    <glyph glyph-name="o" unicode="o" horiz-adv-x="597" 
d="M462 244q0 88 -43 136.5t-120 48.5t-120.5 -50t-43.5 -135q0 -88 43 -138.5t121 -50.5t120.5 49t42.5 140zM49 240q0 66 22 117.5t58.5 81t79 43.5t87.5 13h5q47 0 88 -12.5t78.5 -40t59 -79t21.5 -120.5q0 -71 -21.5 -123t-58.5 -79.5t-78.5 -40t-87.5 -11.5h-6
q-45 -1 -87.5 13t-79 42.5t-58.5 79.5t-22 116z" />
    <glyph glyph-name="p" unicode="p" horiz-adv-x="571" 
d="M432 240q0 98 -46.5 145t-112.5 47q-63 0 -111 -58v-293q44 -25 89 -25q82 0 131.5 51.5t49.5 132.5zM522 235q0 -59 -22.5 -107.5t-57.5 -77.5t-74.5 -45t-77.5 -16q-86 0 -128 25v-214h-86v684h80l6 -41q45 52 123 52q28 0 56 -6t62 -23.5t59.5 -44.5t42.5 -75.5
t17 -110.5z" />
    <glyph glyph-name="q" unicode="q" horiz-adv-x="570" 
d="M139 240q0 -81 49.5 -132.5t131.5 -51.5q45 0 89 25v293q-48 58 -111 58q-66 0 -112.5 -47t-46.5 -145zM49 235q0 62 17 110.5t42.5 75.5t59.5 44.5t62 23.5t56 6q78 0 123 -52l6 41h80v-684h-86v214q-43 -25 -128 -25q-38 0 -77.5 16t-74.5 45t-57.5 77.5t-22.5 107.5z
" />
    <glyph glyph-name="r" unicode="r" horiz-adv-x="370" 
d="M156 484l6 -45q75 55 143 55q20 0 36 -2v-78q-16 2 -36 2q-79 0 -143 -44v-372h-86v484h80z" />
    <glyph glyph-name="s" unicode="s" horiz-adv-x="457" 
d="M387 400q-57 25 -132 29q-57 3 -87 -18t-31 -51q0 -2 -0.5 -4.5t1.5 -10.5t6 -15t13.5 -14.5t24.5 -11.5l48 -15.5l46 -15t38.5 -14.5t35.5 -17.5t26.5 -20t21.5 -25.5t10.5 -31.5t3.5 -40.5q-3 -42 -20 -69.5t-47 -41.5t-63 -19t-78 -5q-72 0 -149 35v70q77 -34 152 -34
q57 0 87.5 14t33.5 53q0 9 -2 16.5t-8 14.5t-11.5 12.5t-17 11.5t-20 10t-25 10t-26 9t-30 10t-31.5 10q-32 10 -54.5 27t-32 34t-14.5 32.5t-5 25.5v9q2 66 53.5 103t154.5 33q60 -3 128 -24v-71z" />
    <glyph glyph-name="t" unicode="t" horiz-adv-x="339" 
d="M109 417h-84v67h84v119l85 25v-144h112v-67h-112v-277q0 -19 2 -29.5t11 -23t30.5 -18t56.5 -5.5h13v-69h-31q-90 0 -128.5 29.5t-38.5 109.5v283z" />
    <glyph glyph-name="u" unicode="u" horiz-adv-x="570" 
d="M422 0l-6 46q-18 -22 -59.5 -39.5t-85.5 -17.5q-38 0 -65 4.5t-54 18t-43.5 38t-27 66t-10.5 99.5v269h90v-263q0 -96 25.5 -132.5t96.5 -36.5q34 0 71 19t54 41v372h86v-484h-72z" />
    <glyph glyph-name="v" unicode="v" horiz-adv-x="507" 
d="M110 484l144 -394l143 394h92l-189 -484h-92l-190 484h92z" />
    <glyph glyph-name="w" unicode="w" horiz-adv-x="804" 
d="M782 484l-160 -484h-106l-114 356l-114 -356h-106l-160 484h95l121 -399l115 377h98l115 -377l121 399h95z" />
    <glyph glyph-name="x" unicode="x" horiz-adv-x="496" 
d="M120 0h-99l174 244l-171 240h99l125 -185l125 185h98l-170 -240l173 -244h-99l-127 187z" />
    <glyph glyph-name="y" unicode="y" horiz-adv-x="514" 
d="M216 -2l-199 486h96l144 -386l143 386h96l-193 -484l-40 -116q-21 -59 -54.5 -77.5t-99.5 -16.5h-41v66l40 1q25 2 36.5 4.5t24 15.5t20.5 38z" />
    <glyph glyph-name="z" unicode="z" horiz-adv-x="522" 
d="M357 416h-300v68h419v-61l-321 -352h321v-71h-438v62z" />
    <glyph glyph-name="braceleft" unicode="{" horiz-adv-x="338" 
d="M38 274q29 4 48.5 19t19.5 41v180q0 175 167 175h30v-63h-12q-28 0 -48 -8t-30 -19t-15 -28.5t-6 -28.5t-1 -28v-142q0 -32 -5.5 -54.5t-17.5 -36.5t-21.5 -20.5t-27.5 -15.5q18 -9 27.5 -15.5t21.5 -20.5t17.5 -36.5t5.5 -54.5v-142q0 -17 1 -28t6 -28.5t15 -28.5
t30 -19t48 -8h12v-63h-30q-167 0 -167 175v180q0 23 -20.5 39.5t-47.5 20.5v58z" />
    <glyph glyph-name="bar" unicode="|" horiz-adv-x="218" 
d="M140 -114h-62v914h62v-914z" />
    <glyph glyph-name="braceright" unicode="}" horiz-adv-x="338" 
d="M300 274v-58q-27 -4 -47.5 -20.5t-20.5 -39.5v-180q0 -175 -167 -175h-30v63h12q28 0 48 8t30 19t15 28.5t6 28.5t1 28v142q0 32 5.5 54.5t17.5 36.5t21.5 20.5t27.5 15.5q-18 9 -27.5 15.5t-21.5 20.5t-17.5 36.5t-5.5 54.5v142q0 17 -1 28t-6 28.5t-15 28.5t-30 19
t-48 8h-12v63h30q167 0 167 -175v-180q0 -26 19.5 -41t48.5 -19z" />
    <glyph glyph-name="exclamdown" unicode="&#xa1;" horiz-adv-x="226" 
d="M156 -200h-86l8 533h70zM60 443q0 52 52 52t52 -52t-52 -52t-52 52z" />
    <glyph glyph-name="cent" unicode="&#xa2;" horiz-adv-x="494" 
d="M314 606v-112q61 -2 119 -16v-66q-68 18 -128 16q-85 0 -124.5 -53t-39.5 -134q0 -80 39.5 -132.5t124.5 -52.5q60 -2 128 16v-66q-58 -14 -119 -16v-104h-62v106q-84 12 -142 77.5t-59 170.5q0 105 58.5 172t142.5 80v114h62z" />
    <glyph glyph-name="sterling" unicode="&#xa3;" horiz-adv-x="575" 
d="M493 691v-75q-26 5 -87 5q-86 0 -130 -43t-44 -110v-81h123v-58h-123v-255h296v-74h-475v74h91v255h-85v58h85v86q0 102 68.5 164t195.5 62q48 0 85 -8z" />
    <glyph glyph-name="currency" unicode="&#xa4;" horiz-adv-x="616" 
d="M312 113h-8q-68 0 -114 31l-70 -69l-52 52l71 71q-26 45 -26 109q0 68 28 113l-73 73l52 52l71 -72q50 34 113 32h8q63 2 113 -32l71 72l52 -52l-73 -73q28 -45 28 -113q0 -64 -26 -109l71 -71l-52 -52l-70 69q-51 -34 -114 -31zM302 193h12q44 0 76.5 28.5t32.5 85.5
q0 59 -33 89t-77 29h-10q-44 1 -77 -29t-33 -89q0 -58 33 -87t76 -27z" />
    <glyph glyph-name="yen" unicode="&#xa5;" horiz-adv-x="612" 
d="M480 160v-58h-131v-102h-86v102h-127v58h127v48h-127v58h127v31l-227 392h101l169 -308l168 308h100l-225 -391v-32h131v-58h-131v-48h131z" />
    <glyph glyph-name="brokenbar" unicode="&#xa6;" horiz-adv-x="235" 
 />
    <glyph glyph-name="section" unicode="&#xa7;" horiz-adv-x="501" 
d="M72 522q8 89 66.5 135t165.5 39q84 -5 130 -31l-7 -63q-71 20 -129 24q-68 5 -105 -28.5t-42 -86.5q1 -1 0 -7t2 -17.5t8.5 -23.5t19 -25.5t33.5 -23.5l31 -16q44 -21 70 -34.5t56.5 -35.5t45.5 -44t23.5 -54t4.5 -70q-9 -56 -30 -93q21 -45 15 -107q-9 -68 -41 -107.5
t-77 -52t-108 -8.5q-54 4 -78.5 9t-67.5 21l6 76q76 -33 145 -33q68 0 103 23.5t39 85.5q3 47 -33.5 77.5t-115.5 68.5q-15 6 -33 15q-36 18 -61 44t-34.5 50t-14 46t-3.5 35l1 13q6 58 32 99q-11 24 -15 49t-3 38zM364 171q5 47 -32 78.5t-116 68.5q-3 2 -29.5 15.5
t-38.5 22.5q-3 -9 -10 -43q-1 -3 -1 -7t1.5 -16.5t7 -24t20 -25.5t35.5 -24q105 -51 152 -85q8 18 11 40z" />
    <glyph glyph-name="dieresis" unicode="&#xa8;" horiz-adv-x="494" 
d="M120 637q0 52 52 52t52 -52t-52 -52t-52 52zM270 637q0 52 52 52t52 -52t-52 -52t-52 52z" />
    <glyph glyph-name="copyright" unicode="&#xa9;" horiz-adv-x="805" 
d="M515 169v49q-54 -7 -96 -7q-49 0 -84.5 35t-35.5 91q0 57 34 92t86 35q43 0 96 -8v49q-48 12 -109 12q-66 0 -117 -49t-51 -131q0 -83 50.5 -131t117.5 -48q54 0 109 11zM402 -11h2q-157 0 -252 96t-95 257q0 93 30.5 164.5t81.5 112.5t110.5 61t123.5 20t123.5 -20
t110.5 -61t81.5 -112.5t30.5 -164.5q0 -161 -95 -257t-252 -96zM404 50h-2q130 0 209 80t79 212q0 77 -25 136.5t-67.5 93.5t-91.5 50.5t-103 16.5t-103 -16.5t-91.5 -50.5t-67.5 -93.5t-25 -136.5q0 -132 79 -212t209 -80z" />
    <glyph glyph-name="ordfeminine" unicode="&#xaa;" horiz-adv-x="398" 
d="M262 457v67q-38 4 -50 4q-83 0 -83 -53q0 -21 14.5 -35t42.5 -14q18 0 42 10t34 21zM197 649q-38 0 -90 -22l-17 -6v50l19 10q47 19 97 19q52 0 85.5 -31t33.5 -103v-181h-59l-3 33q-11 -14 -36 -27t-48 -13q-112 0 -112 100q0 46 38 71.5t90 25.5q23 0 67 -11v14
q0 34 -18 52.5t-47 18.5zM67 282v52h258v-52h-258z" />
    <glyph glyph-name="guillemotleft" unicode="&#xab;" horiz-adv-x="503" 
d="M320 247l138 -207h-96l-138 207l138 207h96zM138 247l138 -207h-96l-138 207l138 207h96z" />
    <glyph glyph-name="logicalnot" unicode="&#xac;" horiz-adv-x="629" 
d="M551 111h-80v197h-404v80h484v-277z" />
    <glyph glyph-name="registered" unicode="&#xae;" horiz-adv-x="805" 
d="M551 166h-63q-18 37 -71 107q-10 14 -13.5 18t-8.5 8t-11 4h-39v-137h-61v349h142q45 0 74.5 -27t29.5 -77q0 -86 -72 -104q45 -53 93 -141zM345 352h83q18 0 30 14t12 45q0 23 -13.5 38t-35.5 15h-76v-112zM402 -11h2q-157 0 -252 96t-95 257q0 93 30.5 164.5
t81.5 112.5t110.5 61t123.5 20t123.5 -20t110.5 -61t81.5 -112.5t30.5 -164.5q0 -161 -95 -257t-252 -96zM404 50h-2q130 0 209 80t79 212q0 77 -25 136.5t-67.5 93.5t-91.5 50.5t-103 16.5t-103 -16.5t-91.5 -50.5t-67.5 -93.5t-25 -136.5q0 -132 79 -212t209 -80z" />
    <glyph glyph-name="macron" unicode="&#xaf;" horiz-adv-x="462" 
d="M342 667v-73h-222v73h222z" />
    <glyph glyph-name="degree" unicode="&#xb0;" horiz-adv-x="377" 
d="M187 430q-59 0 -98 32.5t-39 102.5q0 71 38.5 103t98.5 32q62 0 101 -32t39 -103q0 -70 -39.5 -102.5t-100.5 -32.5zM187 491q33 0 55 18t22 56q0 74 -77 74q-75 0 -75 -74q0 -38 21.5 -56t53.5 -18z" />
    <glyph glyph-name="plusminus" unicode="&#xb1;" horiz-adv-x="582" 
d="M251 606h80v-182h182v-80h-182v-182h-80v182h-182v80h182v182zM69 77h444v-77h-444v77z" />
    <glyph glyph-name="twosuperior" unicode="&#xb2;" horiz-adv-x="351" 
d="M304 744q0 -65 -53 -114l-132 -130h186v-52h-268v46l136 135q71 66 71 110q-1 26 -22 41.5t-58 15.5q-49 0 -111 -35v55q53 32 110 32q67 0 104 -28.5t37 -75.5z" />
    <glyph glyph-name="threesuperior" unicode="&#xb3;" horiz-adv-x="354" 
d="M303 736q0 -9 -1.5 -20.5t-13.5 -35t-34 -35.5q22 -12 34 -36t13.5 -35.5t1.5 -19.5q-2 -52 -38 -82t-103 -30q-26 0 -65 7.5t-54 14.5v52q56 -21 120 -21q37 0 57 17.5t21 44.5v5.5t-1.5 13t-5 17.5t-13 15t-22.5 10h-106v53h105q20 6 31 21.5t11 27.5l1 13
q-1 27 -21 45t-57 18q-50 0 -110 -21v51q16 7 50 14.5t59 7.5q67 0 103 -30t38 -82z" />
    <glyph glyph-name="acute" unicode="&#xb4;" horiz-adv-x="471" 
d="M294 689l-95 -134h-70l70 134h95z" />
    <glyph glyph-name="mu" unicode="&#xb5;" horiz-adv-x="569" 
d="M81 -168v652h90v-263q0 -96 25.5 -132.5t96.5 -36.5q34 0 71 19t54 41v372h86v-484h-80l-6 38q-15 -18 -54.5 -33.5t-82.5 -15.5q-86 0 -123 32l7 -62v-127h-84z" />
    <glyph glyph-name="mu" unicode="&#x3bc;" horiz-adv-x="569" 
d="M81 -168v652h90v-263q0 -96 25.5 -132.5t96.5 -36.5q34 0 71 19t54 41v372h86v-484h-80l-6 38q-15 -18 -54.5 -33.5t-82.5 -15.5q-86 0 -123 32l7 -62v-127h-84z" />
    <glyph glyph-name="paragraph" unicode="&#xb6;" horiz-adv-x="442" 
d="M178 -123v540q-56 0 -96 39.5t-40 96.5q0 56 40 96t96 40h166v-812h-55v759h-56v-759h-55z" />
    <glyph glyph-name="periodcentered" unicode="&#xb7;" horiz-adv-x="244" 
d="M65 256q0 27 12 42t45 15t45 -15t12 -42q0 -57 -57 -57t-57 57z" />
    <glyph glyph-name="cedilla" unicode="&#xb8;" horiz-adv-x="508" 
d="M239 10h56q37 -44 48 -84q15 -55 -14.5 -93.5t-91.5 -31.5q-37 4 -77 23v48l41 -12q45 -11 64 10.5t11 60t-37 79.5z" />
    <glyph glyph-name="onesuperior" unicode="&#xb9;" horiz-adv-x="280" 
d="M44 448v52h75v280l-74 -31v53l86 41h50v-343h75v-52h-212z" />
    <glyph glyph-name="ordmasculine" unicode="&#xba;" horiz-adv-x="440" 
d="M316 540q0 52 -25 81t-71 29t-71.5 -29.5t-25.5 -80.5q0 -52 25.5 -82t71.5 -30t71 29t25 83zM60 538q0 82 48.5 123t112.5 39q65 0 111.5 -38t46.5 -122q0 -86 -46.5 -125t-110.5 -37h-4q-62 -2 -110 38.5t-48 121.5zM82 282v52h277v-52h-277z" />
    <glyph glyph-name="guillemotright" unicode="&#xbb;" horiz-adv-x="503" 
d="M183 247l-138 207h96l138 -207l-138 -207h-96zM365 247l-138 207h96l138 -207l-138 -207h-96z" />
    <glyph glyph-name="onequarter" unicode="&#xbc;" horiz-adv-x="816" 
d="M290 0h-52l279 689h52zM57 295v52h75v280l-74 -31v53l86 41h50v-343h75v-52h-212zM772 144h-53v251h-62l-191 -262v-40h191v-93h62v93h53v51zM530 144l127 174v-174h-127z" />
    <glyph glyph-name="onehalf" unicode="&#xbd;" horiz-adv-x="837" 
d="M286 0h-52l279 689h52zM53 295v52h75v280l-74 -31v53l86 41h50v-343h75v-52h-212zM787 296q0 -65 -53 -114l-132 -130h186v-52h-268v46l136 135q71 66 71 110q-1 26 -22 41.5t-58 15.5q-49 0 -111 -35v55q53 32 110 32q67 0 104 -28.5t37 -75.5z" />
    <glyph glyph-name="threequarters" unicode="&#xbe;" horiz-adv-x="848" 
d="M322 0h-52l279 689h52zM804 144h-53v251h-62l-191 -262v-40h191v-93h62v93h53v51zM562 144l127 174v-174h-127zM315 583q0 -9 -1.5 -20.5t-13.5 -35t-34 -35.5q22 -12 34 -36t13.5 -35.5t1.5 -19.5q-2 -52 -38 -82t-103 -30q-26 0 -65 7.5t-54 14.5v52q56 -21 120 -21
q37 0 57 17.5t21 44.5v5.5t-1.5 13t-5 17.5t-13 15t-22.5 10h-106v53h105q20 6 31 21.5t11 28.5l1 12q-1 27 -21 45t-57 18q-50 0 -110 -21v51q50 22 109 22q67 0 103 -30t38 -82z" />
    <glyph glyph-name="questiondown" unicode="&#xbf;" horiz-adv-x="480" 
d="M368 334v-2q8 -158 -162 -232q-28 -12 -46 -30t-24.5 -36.5t-8.5 -30t-1 -20.5q0 -55 42 -84.5t117 -29.5l15 1q15 1 24 2.5t26.5 5.5t37.5 12t42 20l6 -72q-61 -41 -145 -47q-109 -9 -179.5 46.5t-70.5 139.5q0 65 22 107q33 61 109 94q119 51 113 149v7h83zM377 444
q0 -52 -52 -52t-52 52t52 52t52 -52z" />
    <glyph glyph-name="Agrave" unicode="&#xc0;" horiz-adv-x="641" 
d="M111 0l62 209h295l62 -209h87q-61 208 -114 360.5t-134 328.5h-97q-81 -176 -134 -328.5t-114 -360.5h87zM321 608q71 -161 124 -329h-249q60 184 125 329zM282 761l-95 134h95l70 -134h-70z" />
    <glyph glyph-name="Aacute" unicode="&#xc1;" horiz-adv-x="641" 
d="M111 0h-87q61 208 114 360.5t134 328.5h97q81 -176 134 -328.5t114 -360.5h-87l-62 209h-295zM321 608q-65 -145 -125 -329h249q-53 168 -124 329zM452 895l-95 -134h-70l70 134h95z" />
    <glyph glyph-name="Acircumflex" unicode="&#xc2;" horiz-adv-x="641" 
d="M111 0h-87q61 208 114 360.5t134 328.5h97q81 -176 134 -328.5t114 -360.5h-87l-62 209h-295zM321 608q-65 -145 -125 -329h249q-53 168 -124 329zM388 761l-68 83l-68 -83h-70l89 134h98l89 -134h-70z" />
    <glyph glyph-name="Atilde" unicode="&#xc3;" horiz-adv-x="641" 
d="M111 0l62 209h295l62 -209h87q-61 208 -114 360.5t-134 328.5h-97q-81 -176 -134 -328.5t-114 -360.5h87zM321 608q71 -161 124 -329h-249q60 184 125 329zM264 894q20 0 55.5 -18t59.5 -18t39 36h46q-8 -103 -91 -103q-13 0 -28 5.5t-29.5 13.5t-19.5 10q-32 12 -46.5 6
t-26.5 -35h-46q5 48 23 75.5t64 27.5z" />
    <glyph glyph-name="Adieresis" unicode="&#xc4;" horiz-adv-x="641" 
d="M111 0l62 209h295l62 -209h87q-61 208 -114 360.5t-134 328.5h-97q-81 -176 -134 -328.5t-114 -360.5h87zM321 608q71 -161 124 -329h-249q60 184 125 329zM193 843q0 52 52 52t52 -52t-52 -52t-52 52zM343 843q0 52 52 52t52 -52t-52 -52t-52 52z" />
    <glyph glyph-name="Aring" unicode="&#xc5;" horiz-adv-x="641" 
d="M111 0h-87q61 208 114 360.5t134 328.5h97q81 -176 134 -328.5t114 -360.5h-87l-62 209h-295zM321 608q-65 -145 -125 -329h249q-53 168 -124 329zM320 755q-41 0 -67.5 22t-26.5 70q0 92 94 92t94 -92q0 -48 -26.5 -70t-67.5 -22zM320 803q19 0 32 11t13 33q0 44 -45 44
t-45 -44q0 -22 13 -33t32 -11z" />
    <glyph glyph-name="AE" unicode="&#xc6;" horiz-adv-x="891" 
d="M415 131v78h-242l-62 -209h-87q61 208 114 360.5t134 328.5h143h419v-76h-333v-219h310v-76h-310v-174q0 -68 79 -68h254v-76h-269q-79 2 -114 30.5t-36 100.5zM322 613q-62 -139 -126 -334h219v334h-93z" />
    <glyph glyph-name="Ccedilla" unicode="&#xc7;" horiz-adv-x="638" 
d="M593 84v-74q-64 -18 -188 -21q24 -36 32 -63q15 -55 -14.5 -93.5t-91.5 -31.5q-37 4 -77 23v48l41 -12q62 -15 74 29.5t-24 102.5q-121 15 -206 107.5t-85 243.5q0 110 49.5 193t124.5 123.5t159 40.5q131 0 206 -22v-73q-115 18 -181 18q-118 0 -194.5 -76t-76.5 -204
q0 -127 80 -202t191 -75q63 0 181 18z" />
    <glyph glyph-name="Egrave" unicode="&#xc8;" horiz-adv-x="566" 
d="M176 318v-174q0 -68 79 -68h254v-76h-269q-79 2 -114 30.5t-36 100.5v558h419v-76h-333v-219h310v-76h-310zM292 761l-95 134h95l70 -134h-70z" />
    <glyph glyph-name="Eacute" unicode="&#xc9;" horiz-adv-x="566" 
d="M176 318v-174q0 -68 79 -68h254v-76h-269q-79 2 -114 30.5t-36 100.5v558h419v-76h-333v-219h310v-76h-310zM398 895l-95 -134h-70l70 134h95z" />
    <glyph glyph-name="Ecircumflex" unicode="&#xca;" horiz-adv-x="566" 
d="M176 318v-174q0 -68 79 -68h254v-76h-269q-79 2 -114 30.5t-36 100.5v558h419v-76h-333v-219h310v-76h-310zM347 761l-68 83l-68 -83h-70l89 134h98l89 -134h-70z" />
    <glyph glyph-name="Edieresis" unicode="&#xcb;" horiz-adv-x="566" 
d="M176 318v-174q0 -68 79 -68h254v-76h-269q-79 2 -114 30.5t-36 100.5v558h419v-76h-333v-219h310v-76h-310zM152 843q0 52 52 52t52 -52t-52 -52t-52 52zM302 843q0 52 52 52t52 -52t-52 -52t-52 52z" />
    <glyph glyph-name="Igrave" unicode="&#xcc;" horiz-adv-x="274" 
d="M180 0h-86v689h86v-689zM110 761l-95 134h95l70 -134h-70z" />
    <glyph glyph-name="Iacute" unicode="&#xcd;" horiz-adv-x="274" 
d="M180 0h-86v689h86v-689zM259 895l-95 -134h-70l70 134h95z" />
    <glyph glyph-name="Icircumflex" unicode="&#xce;" horiz-adv-x="274" 
d="M180 0h-86v689h86v-689zM205 761l-68 83l-68 -83h-70l89 134h98l89 -134h-70z" />
    <glyph glyph-name="Idieresis" unicode="&#xcf;" horiz-adv-x="274" 
d="M180 0h-86v689h86v-689zM10 843q0 52 52 52t52 -52t-52 -52t-52 52zM160 843q0 52 52 52t52 -52t-52 -52t-52 52z" />
    <glyph glyph-name="Eth" unicode="&#xd0;" horiz-adv-x="707" 
d="M335 0h-228v305h-82v76h82v308h228q131 0 223.5 -91.5t92.5 -254.5q0 -165 -92 -254t-224 -89zM193 76h99q132 0 200 67.5t68 199.5q0 270 -268 270h-99v-232h143v-76h-143v-229z" />
    <glyph glyph-name="Ntilde" unicode="&#xd1;" horiz-adv-x="708" 
d="M297 895q20 0 55.5 -18t59.5 -18t39 36h46q-8 -103 -91 -103q-13 0 -28 5.5t-29.5 13.5t-19.5 10q-32 12 -46.5 6t-26.5 -35h-46q5 48 23 75.5t64 27.5zM528 689v-541q-85 166 -153.5 284.5t-166.5 256.5h-114v-689h86v585q68 -99 131.5 -206.5t103 -181l102.5 -197.5h97
v689h-86z" />
    <glyph glyph-name="Ograve" unicode="&#xd2;" horiz-adv-x="802" 
d="M400 -11h2q-157 0 -252 96t-95 257q0 93 30.5 164.5t81.5 112.5t110.5 61t123.5 20t123.5 -20t110.5 -61t81.5 -112.5t30.5 -164.5q0 -161 -95 -257t-252 -96zM400 63q118 0 190 78t72 201q0 138 -78.5 211t-182.5 73t-182.5 -73t-78.5 -211q0 -123 72 -201t188 -78z
M375 761l-95 134h95l70 -134h-70z" />
    <glyph glyph-name="Oacute" unicode="&#xd3;" horiz-adv-x="802" 
d="M400 -11h2q-157 0 -252 96t-95 257q0 93 30.5 164.5t81.5 112.5t110.5 61t123.5 20t123.5 -20t110.5 -61t81.5 -112.5t30.5 -164.5q0 -161 -95 -257t-252 -96zM400 63q118 0 190 78t72 201q0 138 -78.5 211t-182.5 73t-182.5 -73t-78.5 -211q0 -123 72 -201t188 -78z
M516 895l-95 -134h-70l70 134h95z" />
    <glyph glyph-name="Ocircumflex" unicode="&#xd4;" horiz-adv-x="802" 
d="M400 -11h2q-157 0 -252 96t-95 257q0 93 30.5 164.5t81.5 112.5t110.5 61t123.5 20t123.5 -20t110.5 -61t81.5 -112.5t30.5 -164.5q0 -161 -95 -257t-252 -96zM400 63q118 0 190 78t72 201q0 138 -78.5 211t-182.5 73t-182.5 -73t-78.5 -211q0 -123 72 -201t188 -78z
M469 761l-68 83l-68 -83h-70l89 134h98l89 -134h-70z" />
    <glyph glyph-name="Otilde" unicode="&#xd5;" horiz-adv-x="802" 
d="M400 -11h2q-157 0 -252 96t-95 257q0 93 30.5 164.5t81.5 112.5t110.5 61t123.5 20t123.5 -20t110.5 -61t81.5 -112.5t30.5 -164.5q0 -161 -95 -257t-252 -96zM400 63q118 0 190 78t72 201q0 138 -78.5 211t-182.5 73t-182.5 -73t-78.5 -211q0 -123 72 -201t188 -78z
M344 895q20 0 55.5 -18t59.5 -18t39 36h46q-8 -103 -91 -103q-13 0 -28 5.5t-29.5 13.5t-19.5 10q-32 12 -46.5 6t-26.5 -35h-46q5 48 23 75.5t64 27.5z" />
    <glyph glyph-name="Odieresis" unicode="&#xd6;" horiz-adv-x="802" 
d="M400 -11h2q-157 0 -252 96t-95 257q0 93 30.5 164.5t81.5 112.5t110.5 61t123.5 20t123.5 -20t110.5 -61t81.5 -112.5t30.5 -164.5q0 -161 -95 -257t-252 -96zM400 63q118 0 190 78t72 201q0 138 -78.5 211t-182.5 73t-182.5 -73t-78.5 -211q0 -123 72 -201t188 -78z
M274 843q0 52 52 52t52 -52t-52 -52t-52 52zM424 843q0 52 52 52t52 -52t-52 -52t-52 52z" />
    <glyph glyph-name="multiply" unicode="&#xd7;" horiz-adv-x="510" 
d="M61 413l57 57l137 -137l137 137l57 -57l-137 -137l137 -137l-57 -57l-137 137l-137 -137l-57 57l137 137z" />
    <glyph glyph-name="Oslash" unicode="&#xd8;" horiz-adv-x="802" 
d="M110 -40l-49 40l81 93q-87 95 -87 249q0 93 30.5 164.5t81.5 112.5t110.5 61t123.5 20q120 0 209 -63l84 94l46 -42l-81 -94q88 -95 88 -253q0 -161 -94.5 -256.5t-251.5 -96.5q-124 0 -211 62zM400 63q118 0 190 78t72 201q0 114 -59 188l-360 -417q66 -50 157 -50z
M140 342q0 -110 57 -184l360 417q-68 51 -156 51q-104 0 -182.5 -73t-78.5 -211z" />
    <glyph glyph-name="Ugrave" unicode="&#xd9;" horiz-adv-x="720" 
d="M360 -11q33 0 60.5 3t70 20t71.5 46t50.5 87.5t21.5 138.5v405h-85v-385q0 -49 -7.5 -87.5t-18.5 -63t-29 -42t-32 -25.5t-35.5 -12.5t-32 -5t-28.5 -0.5h-6q-70 0 -108 23q-81 52 -81 213v385h-85v-405q0 -80 21.5 -138.5t50.5 -87.5t71.5 -46t70 -20t60.5 -3zM338 761
l-95 134h95l70 -134h-70z" />
    <glyph glyph-name="Uacute" unicode="&#xda;" horiz-adv-x="720" 
d="M360 -11q-33 0 -60.5 3t-70 20t-71.5 46t-50.5 87.5t-21.5 138.5v405h85v-385q0 -49 8 -87.5t19.5 -63t30 -42t33 -25.5t36 -12.5t31.5 -5t26 -0.5h5q69 0 103 19q86 47 86 217v385h85v-405q0 -80 -21.5 -138.5t-50.5 -87.5t-71.5 -46t-70 -20t-60.5 -3zM473 895
l-95 -134h-70l70 134h95z" />
    <glyph glyph-name="Ucircumflex" unicode="&#xdb;" horiz-adv-x="720" 
d="M360 -11q-33 0 -60.5 3t-70 20t-71.5 46t-50.5 87.5t-21.5 138.5v405h85v-385q0 -49 8 -87.5t19.5 -63t30 -42t33 -25.5t36 -12.5t31.5 -5t26 -0.5h5q69 0 103 19q86 47 86 217v385h85v-405q0 -80 -21.5 -138.5t-50.5 -87.5t-71.5 -46t-70 -20t-60.5 -3zM428 761l-68 83
l-68 -83h-70l89 134h98l89 -134h-70z" />
    <glyph glyph-name="Udieresis" unicode="&#xdc;" horiz-adv-x="720" 
d="M360 -11q33 0 60.5 3t70 20t71.5 46t50.5 87.5t21.5 138.5v405h-85v-385q0 -49 -7.5 -87.5t-18.5 -63t-29 -42t-32 -25.5t-35.5 -12.5t-32 -5t-28.5 -0.5h-6q-70 0 -108 23q-81 52 -81 213v385h-85v-405q0 -80 21.5 -138.5t50.5 -87.5t71.5 -46t70 -20t60.5 -3zM233 843
q0 52 52 52t52 -52t-52 -52t-52 52zM383 843q0 52 52 52t52 -52t-52 -52t-52 52z" />
    <glyph glyph-name="Yacute" unicode="&#xdd;" horiz-adv-x="565" 
d="M326 298v-298h-86v297l-227 392h101l169 -308l168 308h100zM400 895l-95 -134h-70l70 134h95z" />
    <glyph glyph-name="Thorn" unicode="&#xde;" horiz-adv-x="572" 
d="M180 0h-86v689h86v-136h164q79 0 134.5 -55.5t55.5 -153.5q0 -99 -55.5 -152.5t-134.5 -53.5h-164v-138zM322 479h-142v-267h142q130 0 130 132q0 135 -130 135z" />
    <glyph glyph-name="germandbls" unicode="&#xdf;" horiz-adv-x="580" 
d="M314 0h-84v0v1v0v1v1v1v1v1v1v1v1v1v1v1v1v1v1v1v2v1v1v1v1v2v1v1v2v1v2v1v2v1v2v1v2v1v2v1v2v2v1v2v2v1v2v2v2v1v2v9h85q55 0 93 31t38 85q0 37 -15.5 65.5t-38 43.5t-43 22t-35.5 7h-41v70h36q48 0 75.5 33.5t27.5 77.5q0 54 -32 81t-78 27t-75.5 -17t-42.5 -48
t-17 -59.5t-4 -67.5v-38v-385h-86v423q0 130 51 198t179 68h19q19 0 39.5 -4.5t44.5 -17t43 -32t31.5 -53t12.5 -75.5q0 -45 -25 -83.5t-73 -56.5q51 -10 92 -60t41 -119q0 -95 -58.5 -141.5t-159.5 -46.5z" />
    <glyph glyph-name="agrave" unicode="&#xe0;" horiz-adv-x="513" 
d="M357 224v-119q-15 -18 -57.5 -35.5t-73.5 -17.5q-50 0 -75 25t-25 62q0 93 143 93q36 0 88 -8zM443 0v287q0 111 -51.5 159.5t-132.5 48.5q-34 0 -67.5 -6t-52.5 -12.5t-38.5 -14.5t-21.5 -9v-67q2 1 22.5 9.5t38 14.5t46.5 12t57 6q51 0 82.5 -32t31.5 -90v-23
q-80 10 -117 10q-81 0 -139.5 -39t-58.5 -111q0 -154 172 -154q43 0 89 19.5t62 37.5l6 -46h72zM234 555l-95 134h95l70 -134h-70z" />
    <glyph glyph-name="aacute" unicode="&#xe1;" horiz-adv-x="513" 
d="M357 105v119q-52 8 -88 8q-143 0 -143 -93q0 -37 25 -62t75 -25q31 0 73.5 17.5t57.5 35.5zM443 287v-287h-72l-6 46q-16 -18 -62 -37.5t-89 -19.5q-172 0 -172 154q0 72 58.5 111t139.5 39q37 0 117 -10v23q0 58 -31.5 90t-82.5 32q-28 0 -57 -6t-46.5 -12t-38 -14.5
t-22.5 -9.5v67q2 1 21.5 9t38.5 14.5t52.5 12.5t67.5 6q81 0 132.5 -48.5t51.5 -159.5zM339 689l-95 -134h-70l70 134h95z" />
    <glyph glyph-name="acircumflex" unicode="&#xe2;" horiz-adv-x="513" 
d="M357 105v119q-52 8 -88 8q-143 0 -143 -93q0 -37 25 -62t75 -25q31 0 73.5 17.5t57.5 35.5zM443 287v-287h-72l-6 46q-16 -18 -62 -37.5t-89 -19.5q-172 0 -172 154q0 72 58.5 111t139.5 39q37 0 117 -10v23q0 58 -31.5 90t-82.5 32q-28 0 -57 -6t-46.5 -12t-38 -14.5
t-22.5 -9.5v67q2 1 21.5 9t38.5 14.5t52.5 12.5t67.5 6q81 0 132.5 -48.5t51.5 -159.5zM317 555l-68 83l-68 -83h-70l89 134h98l89 -134h-70z" />
    <glyph glyph-name="atilde" unicode="&#xe3;" horiz-adv-x="513" 
d="M357 224v-119q-15 -18 -57.5 -35.5t-73.5 -17.5q-50 0 -75 25t-25 62q0 93 143 93q36 0 88 -8zM443 0v287q0 111 -51.5 159.5t-132.5 48.5q-34 0 -67.5 -6t-52.5 -12.5t-38.5 -14.5t-21.5 -9v-67q2 1 22.5 9.5t38 14.5t46.5 12t57 6q51 0 82.5 -32t31.5 -90v-23
q-80 10 -117 10q-81 0 -139.5 -39t-58.5 -111q0 -154 172 -154q43 0 89 19.5t62 37.5l6 -46h72zM198 689q20 0 55.5 -18t59.5 -18t39 36h46q-8 -103 -91 -103q-13 0 -28 5.5t-29.5 13.5t-19.5 10q-32 12 -46.5 6t-26.5 -35h-46q5 48 23 75.5t64 27.5z" />
    <glyph glyph-name="adieresis" unicode="&#xe4;" horiz-adv-x="513" 
d="M357 224v-119q-15 -18 -57.5 -35.5t-73.5 -17.5q-50 0 -75 25t-25 62q0 93 143 93q36 0 88 -8zM443 0v287q0 111 -51.5 159.5t-132.5 48.5q-34 0 -67.5 -6t-52.5 -12.5t-38.5 -14.5t-21.5 -9v-67q2 1 22.5 9.5t38 14.5t46.5 12t57 6q51 0 82.5 -32t31.5 -90v-23
q-80 10 -117 10q-81 0 -139.5 -39t-58.5 -111q0 -154 172 -154q43 0 89 19.5t62 37.5l6 -46h72zM124 637q0 52 52 52t52 -52t-52 -52t-52 52zM274 637q0 52 52 52t52 -52t-52 -52t-52 52z" />
    <glyph glyph-name="aring" unicode="&#xe5;" horiz-adv-x="513" 
d="M357 105v119q-52 8 -88 8q-143 0 -143 -93q0 -37 25 -62t75 -25q31 0 73.5 17.5t57.5 35.5zM443 287v-287h-72l-6 46q-16 -18 -62 -37.5t-89 -19.5q-172 0 -172 154q0 72 58.5 111t139.5 39q37 0 117 -10v23q0 58 -31.5 90t-82.5 32q-28 0 -57 -6t-46.5 -12t-38 -14.5
t-22.5 -9.5v67q2 1 21.5 9t38.5 14.5t52.5 12.5t67.5 6q81 0 132.5 -48.5t51.5 -159.5zM249 549q-41 0 -67.5 22t-26.5 70q0 92 94 92t94 -92q0 -48 -26.5 -70t-67.5 -22zM249 597q19 0 32 11t13 33q0 44 -45 44t-45 -44q0 -22 13 -33t32 -11z" />
    <glyph glyph-name="ae" unicode="&#xe6;" horiz-adv-x="859" 
d="M413 94q-10 -41 -49 -66t-76 -32t-76 -7q-172 0 -172 154q0 71 58 107t140 36q37 0 117 -10v30q0 58 -31.5 90t-82.5 32q-28 0 -56 -6t-45 -12.5t-35.5 -14.5t-21.5 -9v67q3 1 21 9t36 14.5t50.5 12.5t66.5 6q110 0 156 -81q66 81 175 81q107 0 167.5 -69t60.5 -189
l-2 -26h-371q0 -71 51 -113t117 -42q60 0 168 28v-66q-113 -28 -183 -29q-51 0 -109.5 29.5t-73.5 75.5zM443 272h289q0 67 -41.5 111t-102.5 44t-103 -44t-42 -111zM355 149v68q-52 8 -88 8q-71 0 -107 -19.5t-36 -66.5q0 -37 25 -62t75 -25q49 0 90 26.5t41 70.5z" />
    <glyph glyph-name="ccedilla" unicode="&#xe7;" horiz-adv-x="474" 
d="M48 240q0 117 71 186t165 69q78 0 146 -17v-66q-68 18 -128 16q-85 0 -124.5 -53t-39.5 -134q0 -80 39.5 -132.5t124.5 -52.5q60 -2 128 16v-66q-53 -14 -127 -17q24 -36 32 -63q15 -55 -14.5 -93.5t-91.5 -31.5q-37 4 -77 23v48l41 -12q62 -15 74 30t-25 103
q-81 14 -137 79.5t-57 167.5z" />
    <glyph glyph-name="egrave" unicode="&#xe8;" horiz-adv-x="551" 
d="M135 272h289q0 67 -41.5 111t-102.5 44t-103 -44t-42 -111zM288 -11q-107 0 -173 64.5t-66 192.5q0 115 67.5 182t163.5 67q107 0 167.5 -69t60.5 -189l-2 -26h-371q0 -71 51 -113t117 -42q60 0 168 28v-66q-113 -28 -183 -29zM258 555l-95 134h95l70 -134h-70z" />
    <glyph glyph-name="eacute" unicode="&#xe9;" horiz-adv-x="551" 
d="M135 272h289q0 67 -41.5 111t-102.5 44t-103 -44t-42 -111zM288 -11q-107 0 -173 64.5t-66 192.5q0 115 67.5 182t163.5 67q107 0 167.5 -69t60.5 -189l-2 -26h-371q0 -71 51 -113t117 -42q60 0 168 28v-66q-113 -28 -183 -29zM382 689l-95 -134h-70l70 134h95z" />
    <glyph glyph-name="ecircumflex" unicode="&#xea;" horiz-adv-x="551" 
d="M135 272h289q0 67 -41.5 111t-102.5 44t-103 -44t-42 -111zM288 -11q-107 0 -173 64.5t-66 192.5q0 115 67.5 182t163.5 67q107 0 167.5 -69t60.5 -189l-2 -26h-371q0 -71 51 -113t117 -42q60 0 168 28v-66q-113 -28 -183 -29zM346 555l-68 83l-68 -83h-70l89 134h98
l89 -134h-70z" />
    <glyph glyph-name="edieresis" unicode="&#xeb;" horiz-adv-x="551" 
d="M135 272h289q0 67 -41.5 111t-102.5 44t-103 -44t-42 -111zM288 -11q-107 0 -173 64.5t-66 192.5q0 115 67.5 182t163.5 67q107 0 167.5 -69t60.5 -189l-2 -26h-371q0 -71 51 -113t117 -42q60 0 168 28v-66q-113 -28 -183 -29zM151 637q0 52 52 52t52 -52t-52 -52t-52 52
zM301 637q0 52 52 52t52 -52t-52 -52t-52 52z" />
    <glyph glyph-name="igrave" unicode="&#xec;" horiz-adv-x="238" 
d="M162 0h-86v484h86v-484zM90 555l-95 134h95l70 -134h-70z" />
    <glyph glyph-name="iacute" unicode="&#xed;" horiz-adv-x="238" 
d="M162 0h-86v484h86v-484zM241 689l-95 -134h-70l70 134h95z" />
    <glyph glyph-name="icircumflex" unicode="&#xee;" horiz-adv-x="238" 
d="M162 0h-86v484h86v-484zM186 555l-68 83l-68 -83h-70l89 134h98l89 -134h-70z" />
    <glyph glyph-name="idieresis" unicode="&#xef;" horiz-adv-x="238" 
d="M162 0h-86v484h86v-484zM-9 637q0 52 52 52t52 -52t-52 -52t-52 52zM141 637q0 52 52 52t52 -52t-52 -52t-52 52z" />
    <glyph glyph-name="eth" unicode="&#xf0;" horiz-adv-x="599" 
d="M462 695v-61l-88 -40q81 -69 128 -160.5t47 -197.5q0 -71 -21.5 -121.5t-58.5 -77.5t-79 -38t-91 -10q-46 -1 -88.5 12t-79.5 40.5t-59 77t-22 114.5q0 66 22.5 116t59.5 77t79.5 39.5t88.5 11.5q45 0 78 -20q-17 45 -87 99l-142 -65v61l88 40q-47 30 -92 50l40 58
q73 -25 138 -68zM463 237q0 86 -42.5 130t-120.5 44t-121 -45t-43 -129q0 -87 43 -134.5t121 -47.5t120.5 46t42.5 136z" />
    <glyph glyph-name="ntilde" unicode="&#xf1;" horiz-adv-x="570" 
d="M499 269v-269h-90v263q0 96 -25.5 132.5t-96.5 36.5q-34 0 -71 -19t-54 -41v-372h-86v484h80l6 -38q15 18 54.5 33.5t82.5 15.5t74 -8t62 -30t47.5 -69.5t16.5 -118.5zM228 689q20 0 55.5 -18t59.5 -18t39 36h46q-8 -103 -91 -103q-13 0 -28 5.5t-29.5 13.5t-19.5 10
q-32 12 -46.5 6t-26.5 -35h-46q5 48 23 75.5t64 27.5z" />
    <glyph glyph-name="ograve" unicode="&#xf2;" horiz-adv-x="597" 
d="M462 244q0 -91 -42.5 -140t-120.5 -49t-121 50.5t-43 138.5q0 85 43.5 135t120.5 50t120 -48.5t43 -136.5zM49 240q0 -65 22 -116t58.5 -79.5t79 -42.5t87.5 -13h6q46 -1 87.5 11.5t78.5 40t58.5 79.5t21.5 123q0 69 -21.5 120.5t-59 79t-78.5 40t-88 12.5h-5
q-45 1 -87.5 -13t-79 -43.5t-58.5 -81t-22 -117.5zM311 555l-95 134h95l70 -134h-70z" />
    <glyph glyph-name="oacute" unicode="&#xf3;" horiz-adv-x="597" 
d="M462 244q0 88 -43 136.5t-120 48.5t-120.5 -50t-43.5 -135q0 -88 43 -138.5t121 -50.5t120.5 49t42.5 140zM49 240q0 66 22 117.5t58.5 81t79 43.5t87.5 13h5q47 0 88 -12.5t78.5 -40t59 -79t21.5 -120.5q0 -71 -21.5 -123t-58.5 -79.5t-78.5 -40t-87.5 -11.5h-6
q-45 -1 -87.5 13t-79 42.5t-58.5 79.5t-22 116zM381 689l-95 -134h-70l70 134h95z" />
    <glyph glyph-name="ocircumflex" unicode="&#xf4;" horiz-adv-x="597" 
d="M462 244q0 88 -43 136.5t-120 48.5t-120.5 -50t-43.5 -135q0 -88 43 -138.5t121 -50.5t120.5 49t42.5 140zM49 240q0 66 22 117.5t58.5 81t79 43.5t87.5 13h5q47 0 88 -12.5t78.5 -40t59 -79t21.5 -120.5q0 -71 -21.5 -123t-58.5 -79.5t-78.5 -40t-87.5 -11.5h-6
q-45 -1 -87.5 13t-79 42.5t-58.5 79.5t-22 116zM366 555l-68 83l-68 -83h-70l89 134h98l89 -134h-70z" />
    <glyph glyph-name="otilde" unicode="&#xf5;" horiz-adv-x="597" 
d="M462 244q0 -91 -42.5 -140t-120.5 -49t-121 50.5t-43 138.5q0 85 43.5 135t120.5 50t120 -48.5t43 -136.5zM49 240q0 -65 22 -116t58.5 -79.5t79 -42.5t87.5 -13h6q46 -1 87.5 11.5t78.5 40t58.5 79.5t21.5 123q0 69 -21.5 120.5t-59 79t-78.5 40t-88 12.5h-5
q-45 1 -87.5 -13t-79 -43.5t-58.5 -81t-22 -117.5zM242 689q20 0 55.5 -18t59.5 -18t39 36h46q-8 -103 -91 -103q-13 0 -28 5.5t-29.5 13.5t-19.5 10q-32 12 -46.5 6t-26.5 -35h-46q5 48 23 75.5t64 27.5z" />
    <glyph glyph-name="odieresis" unicode="&#xf6;" horiz-adv-x="597" 
d="M462 244q0 -91 -42.5 -140t-120.5 -49t-121 50.5t-43 138.5q0 85 43.5 135t120.5 50t120 -48.5t43 -136.5zM49 240q0 -65 22 -116t58.5 -79.5t79 -42.5t87.5 -13h6q46 -1 87.5 11.5t78.5 40t58.5 79.5t21.5 123q0 69 -21.5 120.5t-59 79t-78.5 40t-88 12.5h-5
q-45 1 -87.5 -13t-79 -43.5t-58.5 -81t-22 -117.5zM171 637q0 52 52 52t52 -52t-52 -52t-52 52zM321 637q0 52 52 52t52 -52t-52 -52t-52 52z" />
    <glyph glyph-name="divide" unicode="&#xf7;" horiz-adv-x="532" 
d="M209 135q0 27 12 42t45 15t45 -15t12 -42q0 -57 -57 -57t-57 57zM209 490q0 27 12 42t45 15t45 -15t12 -42q0 -57 -57 -57t-57 57zM470 348v-67h-408v67h408z" />
    <glyph glyph-name="oslash" unicode="&#xf8;" horiz-adv-x="597" 
d="M417 383l-194 -313q33 -15 76 -15q78 0 120.5 49t42.5 140q0 89 -45 139zM182 101l191 313q-32 15 -74 15q-77 0 -120.5 -50t-43.5 -135q0 -94 47 -143zM508 530l-50 -81q90 -66 90 -206q0 -71 -21.5 -123t-58.5 -79.5t-78.5 -40t-87.5 -11.5h-6q-57 -2 -110 21l-49 -79
l-46 20l51 83q-93 69 -93 206q0 66 22 117.5t58.5 81t79 43.5t87.5 13h5q60 0 110 -20l51 84z" />
    <glyph glyph-name="ugrave" unicode="&#xf9;" horiz-adv-x="570" 
d="M422 0l-6 46q-18 -22 -59.5 -39.5t-85.5 -17.5q-38 0 -65 4.5t-54 18t-43.5 38t-27 66t-10.5 99.5v269h90v-263q0 -96 25.5 -132.5t96.5 -36.5q34 0 71 19t54 41v372h86v-484h-72zM272 555l-95 134h95l70 -134h-70z" />
    <glyph glyph-name="uacute" unicode="&#xfa;" horiz-adv-x="570" 
d="M422 0l-6 46q-18 -22 -59.5 -39.5t-85.5 -17.5q-38 0 -65 4.5t-54 18t-43.5 38t-27 66t-10.5 99.5v269h90v-263q0 -96 25.5 -132.5t96.5 -36.5q34 0 71 19t54 41v372h86v-484h-72zM367 689l-95 -134h-70l70 134h95z" />
    <glyph glyph-name="ucircumflex" unicode="&#xfb;" horiz-adv-x="570" 
d="M422 0l-6 46q-18 -22 -59.5 -39.5t-85.5 -17.5q-38 0 -65 4.5t-54 18t-43.5 38t-27 66t-10.5 99.5v269h90v-263q0 -96 25.5 -132.5t96.5 -36.5q34 0 71 19t54 41v372h86v-484h-72zM353 555l-68 83l-68 -83h-70l89 134h98l89 -134h-70z" />
    <glyph glyph-name="udieresis" unicode="&#xfc;" horiz-adv-x="570" 
d="M422 0l-6 46q-18 -22 -59.5 -39.5t-85.5 -17.5q-38 0 -65 4.5t-54 18t-43.5 38t-27 66t-10.5 99.5v269h90v-263q0 -96 25.5 -132.5t96.5 -36.5q34 0 71 19t54 41v372h86v-484h-72zM158 637q0 52 52 52t52 -52t-52 -52t-52 52zM308 637q0 52 52 52t52 -52t-52 -52t-52 52z
" />
    <glyph glyph-name="yacute" unicode="&#xfd;" horiz-adv-x="514" 
d="M216 -2l-199 486h96l144 -386l143 386h96l-193 -484l-40 -116q-21 -59 -54.5 -77.5t-99.5 -16.5h-41v66l40 1q25 2 36.5 4.5t24 15.5t20.5 38zM341 689l-95 -134h-70l70 134h95z" />
    <glyph glyph-name="thorn" unicode="&#xfe;" horiz-adv-x="569" 
d="M162 403v-319q44 -25 89 -25q82 0 131.5 54t49.5 136q0 81 -49 130t-132 49q-45 0 -89 -25zM162 17l-1 -192h-85v885h86v-240q43 25 128 25q38 0 77.5 -16t74.5 -45t57.5 -77.5t22.5 -107.5q0 -114 -75 -185.5t-157 -71.5q-86 0 -128 25z" />
    <glyph glyph-name="ydieresis" unicode="&#xff;" horiz-adv-x="514" 
d="M216 -2l-199 486h96l144 -386l143 386h96l-193 -484l-40 -116q-21 -59 -54.5 -77.5t-99.5 -16.5h-41v66l40 1q25 2 36.5 4.5t24 15.5t20.5 38zM132 637q0 52 52 52t52 -52t-52 -52t-52 52zM282 637q0 52 52 52t52 -52t-52 -52t-52 52z" />
    <glyph glyph-name="Amacron" unicode="&#x100;" horiz-adv-x="641" 
d="M111 0l62 209h295l62 -209h87q-61 208 -114 360.5t-134 328.5h-97q-81 -176 -134 -328.5t-114 -360.5h87zM321 608q71 -161 124 -329h-249q60 184 125 329zM431 873v-73h-222v73h222z" />
    <glyph glyph-name="amacron" unicode="&#x101;" horiz-adv-x="513" 
d="M357 224v-119q-15 -18 -57.5 -35.5t-73.5 -17.5q-50 0 -75 25t-25 62q0 93 143 93q36 0 88 -8zM443 0v287q0 111 -51.5 159.5t-132.5 48.5q-34 0 -67.5 -6t-52.5 -12.5t-38.5 -14.5t-21.5 -9v-67q2 1 22.5 9.5t38 14.5t46.5 12t57 6q51 0 82.5 -32t31.5 -90v-23
q-80 10 -117 10q-81 0 -139.5 -39t-58.5 -111q0 -154 172 -154q43 0 89 19.5t62 37.5l6 -46h72zM367 667v-73h-222v73h222z" />
    <glyph glyph-name="Abreve" unicode="&#x102;" horiz-adv-x="641" 
d="M111 0h-87q61 208 114 360.5t134 328.5h97q81 -176 134 -328.5t114 -360.5h-87l-62 209h-295zM321 608q-65 -145 -125 -329h249q-53 168 -124 329zM319 763q-64 0 -99.5 36t-31.5 96h56q-1 -37 16 -54t60 -17t60.5 17t16.5 54h55q4 -60 -32.5 -96t-100.5 -36z" />
    <glyph glyph-name="abreve" unicode="&#x103;" horiz-adv-x="513" 
d="M357 105v119q-52 8 -88 8q-143 0 -143 -93q0 -37 25 -62t75 -25q31 0 73.5 17.5t57.5 35.5zM443 287v-287h-72l-6 46q-16 -18 -62 -37.5t-89 -19.5q-172 0 -172 154q0 72 58.5 111t139.5 39q37 0 117 -10v23q0 58 -31.5 90t-82.5 32q-28 0 -57 -6t-46.5 -12t-38 -14.5
t-22.5 -9.5v67q2 1 21.5 9t38.5 14.5t52.5 12.5t67.5 6q81 0 132.5 -48.5t51.5 -159.5zM249 557q-64 0 -99.5 36t-31.5 96h56q-1 -37 16 -54t60 -17t60.5 17t16.5 54h55q4 -60 -32.5 -96t-100.5 -36z" />
    <glyph glyph-name="Aogonek" unicode="&#x104;" horiz-adv-x="641" 
d="M617 0h-29q-25 -40 -31 -76t13.5 -55t62.5 -9l41 14v-50q-40 -19 -77 -23q-62 -7 -91.5 31.5t-14.5 93.5q8 33 40 74h-1l-62 209h-295l-62 -209h-87q61 208 114 360.5t134 328.5h97q81 -176 134 -328.5t114 -360.5zM321 608q-65 -145 -125 -329h249q-53 168 -124 329z
" />
    <glyph glyph-name="aogonek" unicode="&#x105;" horiz-adv-x="513" 
d="M443 0h-20q-40 -59 -27.5 -107.5t77.5 -32.5l41 14v-50q-40 -19 -77 -23q-62 -7 -91.5 31.5t-14.5 93.5q8 33 40 74l-6 46q-16 -18 -62 -37.5t-89 -19.5q-172 0 -172 154q0 72 58.5 111t139.5 39q37 0 117 -10v23q0 58 -31.5 90t-82.5 32q-28 0 -57 -6t-46.5 -12
t-38 -14.5t-22.5 -9.5v67q2 1 21.5 9t38.5 14.5t52.5 12.5t67.5 6q81 0 132.5 -48.5t51.5 -159.5v-287zM357 105v119q-52 8 -88 8q-143 0 -143 -93q0 -37 25 -62t75 -25q31 0 73.5 17.5t57.5 35.5z" />
    <glyph glyph-name="Cacute" unicode="&#x106;" horiz-adv-x="637" 
d="M593 84v-74q-79 -21 -206 -21q-133 0 -233 95t-100 259q0 110 49.5 193t124.5 123.5t159 40.5q131 0 206 -22v-73q-115 18 -181 18q-118 0 -194.5 -76t-76.5 -204q0 -127 80 -202t191 -75q63 0 181 18zM500 895l-95 -134h-70l70 134h95z" />
    <glyph glyph-name="cacute" unicode="&#x107;" horiz-adv-x="474" 
d="M48 242v-2q0 117 71 186t165 69q78 0 146 -17v-66q-68 18 -128 16q-85 0 -124.5 -53t-39.5 -134q0 -80 39.5 -132.5t124.5 -52.5q60 -2 128 16v-66q-68 -17 -146 -17q-94 0 -165 68.5t-71 184.5zM396 689l-95 -134h-70l70 134h95z" />
    <glyph glyph-name="Ccircumflex" unicode="&#x108;" horiz-adv-x="637" 
d="M593 84v-74q-79 -21 -206 -21q-133 0 -233 95t-100 259q0 110 49.5 193t124.5 123.5t159 40.5q131 0 206 -22v-73q-115 18 -181 18q-118 0 -194.5 -76t-76.5 -204q0 -127 80 -202t191 -75q63 0 181 18zM452 761l-68 83l-68 -83h-70l89 134h98l89 -134h-70z" />
    <glyph glyph-name="ccircumflex" unicode="&#x109;" horiz-adv-x="474" 
d="M48 242v-2q0 117 71 186t165 69q78 0 146 -17v-66q-68 18 -128 16q-85 0 -124.5 -53t-39.5 -134q0 -80 39.5 -132.5t124.5 -52.5q60 -2 128 16v-66q-68 -17 -146 -17q-94 0 -165 68.5t-71 184.5zM336 555l-68 83l-68 -83h-70l89 134h98l89 -134h-70z" />
    <glyph glyph-name="Cdotaccent" unicode="&#x10a;" horiz-adv-x="637" 
d="M593 10v74q-118 -18 -181 -18q-111 0 -191 75t-80 202q0 128 76.5 204t194.5 76q66 0 181 -18v73q-75 22 -206 22q-84 0 -159 -40.5t-124.5 -123.5t-49.5 -193q0 -164 100 -259t233 -95q127 0 206 21zM335 843q0 52 52 52t52 -52t-52 -52t-52 52z" />
    <glyph glyph-name="cdotaccent" unicode="&#x10b;" horiz-adv-x="474" 
d="M48 240v2q0 -116 71 -184.5t165 -68.5q78 0 146 17v66q-68 -18 -128 -16q-85 0 -124.5 52.5t-39.5 132.5q0 81 39.5 134t124.5 53q60 2 128 -16v66q-68 17 -146 17q-94 0 -165 -69t-71 -186zM231 637q0 52 52 52t52 -52t-52 -52t-52 52z" />
    <glyph glyph-name="Ccaron" unicode="&#x10c;" horiz-adv-x="637" 
d="M593 10v74q-118 -18 -181 -18q-111 0 -191 75t-80 202q0 128 76.5 204t194.5 76q66 0 181 -18v73q-75 22 -206 22q-84 0 -159 -40.5t-124.5 -123.5t-49.5 -193q0 -164 100 -259t233 -95q127 0 206 21zM387 812l68 83h70l-89 -134h-98l-89 134h70z" />
    <glyph glyph-name="ccaron" unicode="&#x10d;" horiz-adv-x="474" 
d="M48 240v2q0 -116 71 -184.5t165 -68.5q78 0 146 17v66q-68 -18 -128 -16q-85 0 -124.5 52.5t-39.5 132.5q0 81 39.5 134t124.5 53q60 2 128 -16v66q-68 17 -146 17q-94 0 -165 -69t-71 -186zM281 606l68 83h70l-89 -134h-98l-89 134h70z" />
    <glyph glyph-name="Dcaron" unicode="&#x10e;" horiz-adv-x="694" 
d="M322 0h-142h-86v689h86h142q131 0 223.5 -91.5t92.5 -254.5q0 -165 -92 -254t-224 -89zM180 76h99q132 0 200 67.5t68 199.5q0 270 -268 270h-99v-537zM315 812l68 83h70l-89 -134h-98l-89 134h70z" />
    <glyph glyph-name="dcaron" unicode="&#x10f;" horiz-adv-x="603" 
d="M630 538h-64l49 172h90zM139 244q0 -98 46.5 -145t112.5 -47q63 0 111 58v293q-44 25 -89 25q-82 0 -131.5 -51.5t-49.5 -132.5zM423 0l-6 46q-14 -21 -51 -39t-80 -18q-28 0 -56 6t-62 23.5t-59.5 44.5t-42.5 75.5t-17 110.5q0 59 22.5 107.5t57.5 77.5t74.5 45t77.5 16
q85 0 128 -25v240h86v-710h-72z" />
    <glyph glyph-name="Dcroat" unicode="&#x110;" horiz-adv-x="707" 
d="M335 0h-228v305h-82v76h82v308h228q131 0 223.5 -91.5t92.5 -254.5q0 -165 -92 -254t-224 -89zM193 76h99q132 0 200 67.5t68 199.5q0 270 -268 270h-99v-232h143v-76h-143v-229z" />
    <glyph glyph-name="dcroat" unicode="&#x111;" horiz-adv-x="579" 
d="M423 0l-6 46q-14 -21 -51 -39t-80 -18q-28 0 -56 6t-62 23.5t-59.5 44.5t-42.5 75.5t-17 110.5q0 59 22.5 107.5t57.5 77.5t74.5 45t77.5 16q85 0 128 -25v95h-153v66h153v79h86v-79h74v-66h-74v-565h-72zM139 244q0 -98 46.5 -145t112.5 -47q63 0 111 58v293
q-44 25 -89 25q-82 0 -131.5 -51.5t-49.5 -132.5z" />
    <glyph glyph-name="Emacron" unicode="&#x112;" horiz-adv-x="566" 
d="M176 318v-174q0 -68 79 -68h254v-76h-269q-79 2 -114 30.5t-36 100.5v558h419v-76h-333v-219h310v-76h-310zM390 873v-73h-222v73h222z" />
    <glyph glyph-name="emacron" unicode="&#x113;" horiz-adv-x="551" 
d="M135 272h289q0 67 -41.5 111t-102.5 44t-103 -44t-42 -111zM288 -11q-107 0 -173 64.5t-66 192.5q0 115 67.5 182t163.5 67q107 0 167.5 -69t60.5 -189l-2 -26h-371q0 -71 51 -113t117 -42q60 0 168 28v-66q-113 -28 -183 -29zM389 667v-73h-222v73h222z" />
    <glyph glyph-name="Ebreve" unicode="&#x114;" horiz-adv-x="566" 
d="M176 318v-174q0 -68 79 -68h254v-76h-269q-79 2 -114 30.5t-36 100.5v558h419v-76h-333v-219h310v-76h-310zM278 763q-64 0 -99.5 36t-31.5 96h56q-1 -37 16 -54t60 -17t60.5 17t16.5 54h55q4 -60 -32.5 -96t-100.5 -36z" />
    <glyph glyph-name="ebreve" unicode="&#x115;" horiz-adv-x="551" 
d="M135 272h289q0 67 -41.5 111t-102.5 44t-103 -44t-42 -111zM288 -11q-107 0 -173 64.5t-66 192.5q0 115 67.5 182t163.5 67q107 0 167.5 -69t60.5 -189l-2 -26h-371q0 -71 51 -113t117 -42q60 0 168 28v-66q-113 -28 -183 -29zM277 557q-64 0 -99.5 36t-31.5 96h56
q-1 -37 16 -54t60 -17t60.5 17t16.5 54h55q4 -60 -32.5 -96t-100.5 -36z" />
    <glyph glyph-name="Edotaccent" unicode="&#x116;" horiz-adv-x="566" 
d="M176 318v-174q0 -68 79 -68h254v-76h-269q-79 2 -114 30.5t-36 100.5v558h419v-76h-333v-219h310v-76h-310zM227 843q0 52 52 52t52 -52t-52 -52t-52 52z" />
    <glyph glyph-name="edotaccent" unicode="&#x117;" horiz-adv-x="551" 
d="M135 272h289q0 67 -41.5 111t-102.5 44t-103 -44t-42 -111zM288 -11q-107 0 -173 64.5t-66 192.5q0 115 67.5 182t163.5 67q107 0 167.5 -69t60.5 -189l-2 -26h-371q0 -71 51 -113t117 -42q60 0 168 28v-66q-113 -28 -183 -29zM226 637q0 52 52 52t52 -52t-52 -52t-52 52
z" />
    <glyph glyph-name="Eogonek" unicode="&#x118;" horiz-adv-x="566" 
d="M176 318v-174q0 -68 79 -68h254v-76h-1q-25 -40 -31 -76t13.5 -55t62.5 -9l41 14v-50q-40 -19 -77 -23q-62 -7 -91.5 31.5t-14.5 93.5q8 33 40 74h-211q-79 2 -114 30.5t-36 100.5v558h419v-76h-333v-219h310v-76h-310z" />
    <glyph glyph-name="eogonek" unicode="&#x119;" horiz-adv-x="550" 
d="M288 -11q-107 0 -173 64.5t-66 192.5q0 115 67.5 182t163.5 67q107 0 167.5 -69t60.5 -189l-2 -26h-371q0 -71 51 -113t117 -42q60 0 168 28v-64l-8 -10q-29 -41 -37 -79.5t11 -60t64 -10.5l41 14v-50q-40 -19 -77 -23q-62 -7 -91.5 31.5t-14.5 93.5q8 32 40 74
q-61 -10 -111 -11zM135 272h289q0 67 -41.5 111t-102.5 44t-103 -44t-42 -111z" />
    <glyph glyph-name="Ecaron" unicode="&#x11a;" horiz-adv-x="566" 
d="M176 318v-174q0 -68 79 -68h254v-76h-269q-79 2 -114 30.5t-36 100.5v558h419v-76h-333v-219h310v-76h-310zM279 812l68 83h70l-89 -134h-98l-89 134h70z" />
    <glyph glyph-name="ecaron" unicode="&#x11b;" horiz-adv-x="551" 
d="M135 272h289q0 67 -41.5 111t-102.5 44t-103 -44t-42 -111zM288 -11q-107 0 -173 64.5t-66 192.5q0 115 67.5 182t163.5 67q107 0 167.5 -69t60.5 -189l-2 -26h-371q0 -71 51 -113t117 -42q60 0 168 28v-66q-113 -28 -183 -29zM278 606l68 83h70l-89 -134h-98l-89 134h70
z" />
    <glyph glyph-name="Gcircumflex" unicode="&#x11c;" horiz-adv-x="713" 
d="M649 353v-318q-102 -46 -262 -46q-133 0 -233 95t-100 259q0 165 106 261t259 96q109 0 197 -26v-73q-121 19 -172 19q-134 0 -217 -74.5t-83 -202.5q0 -127 78.5 -200.5t189.5 -73.5q74 0 151 21v187h-179v76h265zM477 761l-68 83l-68 -83h-70l89 134h98l89 -134h-70z
" />
    <glyph glyph-name="gcircumflex" unicode="&#x11d;" horiz-adv-x="562" 
d="M339 555l-68 83l-68 -83h-70l89 134h98l89 -134h-70zM289 436q-63 -1 -106.5 -47.5t-43.5 -144.5q0 -76 46 -130t126 -54q41 0 89 25v298q-16 19 -49 36t-62 17zM486 488v-551q0 -77 -59.5 -112t-155.5 -35q-70 0 -149 25v68q92 -30 130 -30q51 0 83.5 7.5t45 23t16 27.5
t3.5 32v83q-17 -15 -52 -24t-66 -9q-40 0 -80 16t-74.5 45t-56.5 77.5t-22 107.5q0 62 16 110.5t40.5 75.5t56.5 44.5t59.5 23.5t55.5 6q78 0 123 -52l6 41h80z" />
    <glyph glyph-name="Gbreve" unicode="&#x11e;" horiz-adv-x="713" 
d="M649 353v-318q-102 -46 -262 -46q-133 0 -233 95t-100 259q0 165 106 261t259 96q109 0 197 -26v-73q-121 19 -172 19q-134 0 -217 -74.5t-83 -202.5q0 -127 78.5 -200.5t189.5 -73.5q74 0 151 21v187h-179v76h265zM410 763q-64 0 -99.5 36t-31.5 96h56q-1 -37 16 -54
t60 -17t60.5 17t16.5 54h55q4 -60 -32.5 -96t-100.5 -36z" />
    <glyph glyph-name="gbreve" unicode="&#x11f;" horiz-adv-x="562" 
d="M281 557q-64 0 -99.5 36t-31.5 96h56q-1 -37 16 -54t60 -17t60.5 17t16.5 54h55q4 -60 -32.5 -96t-100.5 -36zM289 436q-63 -1 -106.5 -47.5t-43.5 -144.5q0 -76 46 -130t126 -54q41 0 89 25v298q-16 19 -49 36t-62 17zM486 488v-551q0 -77 -59.5 -112t-155.5 -35
q-70 0 -149 25v68q92 -30 130 -30q51 0 83.5 7.5t45 23t16 27.5t3.5 32v83q-17 -15 -52 -24t-66 -9q-40 0 -80 16t-74.5 45t-56.5 77.5t-22 107.5q0 62 16 110.5t40.5 75.5t56.5 44.5t59.5 23.5t55.5 6q78 0 123 -52l6 41h80z" />
    <glyph glyph-name="Gdotaccent" unicode="&#x120;" horiz-adv-x="713" 
d="M649 353v-318q-102 -46 -262 -46q-133 0 -233 95t-100 259q0 165 106 261t259 96q109 0 197 -26v-73q-121 19 -172 19q-134 0 -217 -74.5t-83 -202.5q0 -127 78.5 -200.5t189.5 -73.5q74 0 151 21v187h-179v76h265zM359 843q0 52 52 52t52 -52t-52 -52t-52 52z" />
    <glyph glyph-name="gdotaccent" unicode="&#x121;" horiz-adv-x="562" 
d="M233 637q0 52 52 52t52 -52t-52 -52t-52 52zM289 436q29 0 62 -17t49 -36v-298q-48 -25 -89 -25q-80 0 -126 54t-46 130q0 98 43.5 144.5t106.5 47.5zM486 -63v551h-80l-6 -41q-45 52 -123 52q-28 0 -55.5 -6t-59.5 -23.5t-56.5 -44.5t-40.5 -75.5t-16 -110.5
q0 -59 22 -107.5t56.5 -77.5t74.5 -45t80 -16q31 0 66 9t52 24v-83q0 -20 -3.5 -32t-16 -27.5t-45 -23t-83.5 -7.5q-38 0 -130 30v-68q79 -25 149 -25q96 0 155.5 35t59.5 112z" />
    <glyph glyph-name="Gcommaaccent" unicode="&#x122;" horiz-adv-x="713" 
d="M649 353v-318q-102 -46 -262 -46q-133 0 -233 95t-100 259q0 165 106 261t259 96q109 0 197 -26v-73q-121 19 -172 19q-134 0 -217 -74.5t-83 -202.5q0 -127 78.5 -200.5t189.5 -73.5q74 0 151 21v187h-179v76h265zM275 -227h66q31 25 57 73t34 98h-85q-9 -89 -72 -171z
" />
    <glyph glyph-name="gcommaaccent" unicode="&#x123;" horiz-adv-x="562" 
d="M358 710q-47 -83 -53 -144h-82q12 76 69 144h66zM289 436q-63 -1 -106.5 -47.5t-43.5 -144.5q0 -76 46 -130t126 -54q41 0 89 25v298q-16 19 -49 36t-62 17zM486 488v-551q0 -77 -59.5 -112t-155.5 -35q-70 0 -149 25v68q92 -30 130 -30q51 0 83.5 7.5t45 23t16 27.5
t3.5 32v83q-17 -15 -52 -24t-66 -9q-40 0 -80 16t-74.5 45t-56.5 77.5t-22 107.5q0 62 16 110.5t40.5 75.5t56.5 44.5t59.5 23.5t55.5 6q78 0 123 -52l6 41h80z" />
    <glyph glyph-name="Hcircumflex" unicode="&#x124;" horiz-adv-x="715" 
d="M180 0h-86v689h86v-295h355v295h86v-689h-86v327h-355v-327zM425 761l-68 83l-68 -83h-70l89 134h98l89 -134h-70z" />
    <glyph glyph-name="hcircumflex" unicode="&#x125;" horiz-adv-x="571" 
d="M184 745l-68 83l-68 -83h-70l89 134h98l89 -134h-70zM499 296v-296h-90v263q0 86 -26.5 124.5t-95.5 38.5q-72 0 -125 -51v-375h-86v484v226h80v-234l-1 -30q15 17 57.5 33t86.5 16q200 0 200 -199z" />
    <glyph glyph-name="Hbar" unicode="&#x126;" horiz-adv-x="715" 
d="M670 591v-65h-49v-526h-86v327h-355v-327h-86v526h-51v65h51v98h86v-98h355v98h86v-98h49zM180 394h355v132h-355v-132z" />
    <glyph glyph-name="hbar" unicode="&#x127;" horiz-adv-x="571" 
d="M499 296v-296h-90v263q0 86 -26.5 124.5t-95.5 38.5q-72 0 -125 -51v-375h-86v565h-74v66h74v79h80v-79h159v-66h-159v-89l-1 -30q15 17 57.5 33t86.5 16q200 0 200 -199z" />
    <glyph glyph-name="Itilde" unicode="&#x128;" horiz-adv-x="274" 
d="M180 0h-86v689h86v-689zM81 895q20 0 55.5 -18t59.5 -18t39 36h46q-8 -103 -91 -103q-13 0 -28 5.5t-29.5 13.5t-19.5 10q-32 12 -46.5 6t-26.5 -35h-46q5 48 23 75.5t64 27.5z" />
    <glyph glyph-name="itilde" unicode="&#x129;" horiz-adv-x="238" 
d="M162 0h-86v484h86v-484zM59 689q20 0 55.5 -18t59.5 -18t39 36h46q-8 -103 -91 -103q-13 0 -28 5.5t-29.5 13.5t-19.5 10q-32 12 -46.5 6t-26.5 -35h-46q5 48 23 75.5t64 27.5z" />
    <glyph glyph-name="imacron" unicode="&#x12b;" horiz-adv-x="238" 
d="M162 0h-86v484h86v-484zM229 667v-73h-222v73h222z" />
    <glyph glyph-name="Ibreve" unicode="&#x12c;" horiz-adv-x="274" 
d="M180 0h-86v689h86v-689zM136 763q-64 0 -99.5 36t-31.5 96h56q-1 -37 16 -54t60 -17t60.5 17t16.5 54h55q4 -60 -32.5 -96t-100.5 -36z" />
    <glyph glyph-name="ibreve" unicode="&#x12d;" horiz-adv-x="238" 
d="M162 0h-86v484h86v-484zM117 557q-64 0 -99.5 36t-31.5 96h56q-1 -37 16 -54t60 -17t60.5 17t16.5 54h55q4 -60 -32.5 -96t-100.5 -36z" />
    <glyph glyph-name="Iogonek" unicode="&#x12e;" horiz-adv-x="274" 
d="M180 0h-29q-25 -40 -31 -76t13.5 -55t62.5 -9l41 14v-50q-40 -19 -77 -23q-62 -7 -91.5 31.5t-14.5 93.5q8 33 40 74v689h86v-689z" />
    <glyph glyph-name="iogonek" unicode="&#x12f;" horiz-adv-x="238" 
d="M162 0h-29q-25 -40 -31 -76t13.5 -55t62.5 -9l41 14v-50q-40 -19 -77 -23q-62 -7 -91.5 31.5t-14.5 93.5q8 33 40 74v484h86v-484zM66 637q0 52 52 52t52 -52t-52 -52t-52 52z" />
    <glyph glyph-name="Idotaccent" unicode="&#x130;" horiz-adv-x="274" 
d="M180 0h-86v689h86v-689zM85 843q0 52 52 52t52 -52t-52 -52t-52 52z" />
    <glyph glyph-name="dotlessi" unicode="&#x131;" horiz-adv-x="238" 
d="M162 0h-86v484h86v-484z" />
    <glyph glyph-name="IJ" unicode="&#x132;" horiz-adv-x="578" 
d="M180 0h-86v689h86v-689zM160 -203v73q51 -8 95 -6t76 14.5t50 54t18 112.5v644h85v-665q0 -248 -262 -233q-7 1 -62 6z" />
    <glyph glyph-name="ij" unicode="&#x133;" horiz-adv-x="477" 
d="M162 0h-86v484h86v-484zM66 637q0 52 52 52t52 -52t-52 -52t-52 52zM316 -55v539h85v-545q0 -80 -43 -113.5t-133 -33.5h-30v67h12q39 0 63 7t33 21.5t11 25.5t2 32zM306 637q0 52 52 52t52 -52t-52 -52t-52 52z" />
    <glyph glyph-name="Jcircumflex" unicode="&#x134;" horiz-adv-x="272" 
d="M-146 -203v73q51 -8 95 -6t76 14.5t50 54t18 112.5v644h85v-665q0 -248 -262 -233q-7 1 -62 6zM203 761l-68 83l-68 -83h-70l89 134h98l89 -134h-70z" />
    <glyph glyph-name="jcircumflex" unicode="&#x135;" horiz-adv-x="237" 
d="M76 -55v539h85v-545q0 -80 -43 -113.5t-133 -33.5h-30v67h12q39 0 63 7t33 21.5t11 25.5t2 32zM188 555l-68 83l-68 -83h-70l89 134h98l89 -134h-70z" />
    <glyph glyph-name="Kcommaaccent" unicode="&#x136;" horiz-adv-x="588" 
d="M588 0h-113q-135 163 -295 280v-280h-86v689h86v-312q147 138 279 312h99q-137 -185 -316 -359q180 -129 346 -330zM199 -227h66q31 25 57 73t34 98h-85q-9 -89 -72 -171z" />
    <glyph glyph-name="kcommaaccent" unicode="&#x137;" horiz-adv-x="477" 
d="M474 0h-99q-86 133 -213 221v-221h-86v710h86v-390l156 164h106l-201 -209q66 -50 138 -129.5t113 -145.5zM140 -227h66q31 25 57 73t34 98h-85q-9 -89 -72 -171z" />
    <glyph glyph-name="kgreenlandic" unicode="&#x138;" horiz-adv-x="478" 
d="M339 484h104l-219 -247l248 -237h-115l-195 187v-187h-86v484h86v-200z" />
    <glyph glyph-name="Lacute" unicode="&#x139;" horiz-adv-x="537" 
d="M176 689v-545q0 -68 79 -68h261v-76h-276q-79 2 -114 30.5t-36 100.5v558h86zM254 895l-95 -134h-70l70 134h95z" />
    <glyph glyph-name="lacute" unicode="&#x13a;" horiz-adv-x="284" 
d="M160 710v-569q0 -19 2 -29.5t11 -23t30.5 -18t56.5 -5.5h12v-69h-30q-90 0 -128.5 29.5t-38.5 109.5v575h85zM244 895l-95 -134h-70l70 134h95z" />
    <glyph glyph-name="Lcommaaccent" unicode="&#x13b;" horiz-adv-x="538" 
d="M176 689v-545q0 -68 79 -68h262v-76h-277q-79 2 -114 30.5t-36 100.5v558h86zM195 -227h66q31 25 57 73t34 98h-85q-9 -89 -72 -171z" />
    <glyph glyph-name="lcommaaccent" unicode="&#x13c;" horiz-adv-x="284" 
d="M160 710v-569q0 -19 2 -29.5t11 -23t30.5 -18t56.5 -5.5h12v-69h-30q-90 0 -128.5 29.5t-38.5 109.5v575h85zM72 -227q63 82 72 171h85q-8 -50 -34 -98t-57 -73h-66z" />
    <glyph glyph-name="Lcaron" unicode="&#x13d;" horiz-adv-x="538" 
d="M176 689v-545q0 -68 79 -68h262v-76h-277q-79 2 -114 30.5t-36 100.5v558h86zM269 517h64l75 172h-90z" />
    <glyph glyph-name="lcaron" unicode="&#x13e;" horiz-adv-x="300" 
d="M160 710v-569q0 -19 2 -29.5t11 -23t30.5 -18t56.5 -5.5h12v-69h-30q-90 0 -128.5 29.5t-38.5 109.5v575h85zM277 528h-64l49 172h90z" />
    <glyph glyph-name="Ldot" unicode="&#x13f;" horiz-adv-x="538" 
d="M176 689v-545q0 -68 79 -68h262v-76h-277q-79 2 -114 30.5t-36 100.5v558h86zM260 360q0 27 12 42t45 15t45 -15t12 -42q0 -57 -57 -57t-57 57z" />
    <glyph glyph-name="ldot" unicode="&#x140;" horiz-adv-x="331" 
d="M160 710v-569q0 -19 2 -29.5t11 -23t30.5 -18t56.5 -5.5h12v-69h-30q-90 0 -128.5 29.5t-38.5 109.5v575h85zM218 360q0 27 12 42t45 15t45 -15t12 -42q0 -57 -57 -57t-57 57z" />
    <glyph glyph-name="Lslash" unicode="&#x141;" horiz-adv-x="552" 
d="M309 494v-68l-119 -80v-202q0 -68 79 -68h262v-76h-277q-79 2 -114 30.5t-36 100.5v157l-89 -60v68l89 60v333l86 1v-276z" />
    <glyph glyph-name="lslash" unicode="&#x142;" horiz-adv-x="305" 
d="M94 315l-76 -47v72l76 50v320h85v-264l95 63v-74l-95 -62v-232q0 -19 2 -29.5t11 -23t30.5 -18t56.5 -5.5h12v-69h-30q-90 0 -128.5 29.5t-38.5 109.5v180z" />
    <glyph glyph-name="Nacute" unicode="&#x143;" horiz-adv-x="708" 
d="M464 895l-95 -134h-70l70 134h95zM528 148v541h86v-689h-97l-102.5 197.5t-103 181t-131.5 206.5v-585h-86v689h114q98 -138 166.5 -256.5t153.5 -284.5z" />
    <glyph glyph-name="nacute" unicode="&#x144;" horiz-adv-x="570" 
d="M499 269v-269h-90v263q0 96 -25.5 132.5t-96.5 36.5q-34 0 -71 -19t-54 -41v-372h-86v484h80l6 -38q15 18 54.5 33.5t82.5 15.5t74 -8t62 -30t47.5 -69.5t16.5 -118.5zM397 689l-95 -134h-70l70 134h95z" />
    <glyph glyph-name="Ncommaaccent" unicode="&#x145;" horiz-adv-x="708" 
d="M219 -227q63 82 72 171h85q-8 -50 -34 -98t-57 -73h-66zM528 148v541h86v-689h-97l-102.5 197.5t-103 181t-131.5 206.5v-585h-86v689h114q98 -138 166.5 -256.5t153.5 -284.5z" />
    <glyph glyph-name="ncommaaccent" unicode="&#x146;" horiz-adv-x="570" 
d="M499 269v-269h-90v263q0 96 -25.5 132.5t-96.5 36.5q-34 0 -71 -19t-54 -41v-372h-86v484h80l6 -38q15 18 54.5 33.5t82.5 15.5t74 -8t62 -30t47.5 -69.5t16.5 -118.5zM163 -227h66q31 25 57 73t34 98h-85q-9 -89 -72 -171z" />
    <glyph glyph-name="Ncaron" unicode="&#x147;" horiz-adv-x="708" 
d="M354 812l68 83h70l-89 -134h-98l-89 134h70zM528 689v-541q-85 166 -153.5 284.5t-166.5 256.5h-114v-689h86v585q68 -99 131.5 -206.5t103 -181l102.5 -197.5h97v689h-86z" />
    <glyph glyph-name="ncaron" unicode="&#x148;" horiz-adv-x="570" 
d="M499 269v-269h-90v263q0 96 -25.5 132.5t-96.5 36.5q-34 0 -71 -19t-54 -41v-372h-86v484h80l6 -38q15 18 54.5 33.5t82.5 15.5t74 -8t62 -30t47.5 -69.5t16.5 -118.5zM285 606l68 83h70l-89 -134h-98l-89 134h70z" />
    <glyph glyph-name="napostrophe" unicode="&#x149;" horiz-adv-x="570" 
d="M499 269v-269h-90v263q0 96 -25.5 132.5t-96.5 36.5q-34 0 -71 -19t-54 -41v-372h-86v484h80l6 -38q15 18 54.5 33.5t82.5 15.5t74 -8t62 -30t47.5 -69.5t16.5 -118.5zM-15 545q47 83 53 144h85q-7 -46 -24 -76.5t-48 -67.5h-66z" />
    <glyph glyph-name="Eng" unicode="&#x14a;" horiz-adv-x="708" 
d="M528 0q-156 305 -348 585v-585h-86v689h114q190 -267 320 -521v521h86v-689q-12 -209 -228 -209v74q68 1 105 30.5t37 104.5z" />
    <glyph glyph-name="eng" unicode="&#x14b;" horiz-adv-x="570" 
d="M414 -60v60v263q0 95 -27.5 132t-99.5 37q-34 0 -71 -19t-54 -41v-372h-86v484h80l6 -38q15 18 54.5 33.5t82.5 15.5t74 -8t62 -30t47.5 -69.5t16.5 -118.5v-330q0 -81 -41 -114t-130 -33h-35v65h12q39 0 62.5 6.5t33 20.5t11.5 24.5t2 31.5z" />
    <glyph glyph-name="Omacron" unicode="&#x14c;" horiz-adv-x="802" 
d="M400 -11h2q-157 0 -252 96t-95 257q0 93 30.5 164.5t81.5 112.5t110.5 61t123.5 20t123.5 -20t110.5 -61t81.5 -112.5t30.5 -164.5q0 -161 -95 -257t-252 -96zM400 63q118 0 190 78t72 201q0 138 -78.5 211t-182.5 73t-182.5 -73t-78.5 -211q0 -123 72 -201t188 -78z
M512 873v-73h-222v73h222z" />
    <glyph glyph-name="omacron" unicode="&#x14d;" horiz-adv-x="597" 
d="M462 244q0 -91 -42.5 -140t-120.5 -49t-121 50.5t-43 138.5q0 85 43.5 135t120.5 50t120 -48.5t43 -136.5zM49 240q0 -65 22 -116t58.5 -79.5t79 -42.5t87.5 -13h6q46 -1 87.5 11.5t78.5 40t58.5 79.5t21.5 123q0 69 -21.5 120.5t-59 79t-78.5 40t-88 12.5h-5
q-45 1 -87.5 -13t-79 -43.5t-58.5 -81t-22 -117.5zM409 667v-73h-222v73h222z" />
    <glyph glyph-name="Obreve" unicode="&#x14e;" horiz-adv-x="802" 
d="M400 -11h2q-157 0 -252 96t-95 257q0 93 30.5 164.5t81.5 112.5t110.5 61t123.5 20t123.5 -20t110.5 -61t81.5 -112.5t30.5 -164.5q0 -161 -95 -257t-252 -96zM400 63q118 0 190 78t72 201q0 138 -78.5 211t-182.5 73t-182.5 -73t-78.5 -211q0 -123 72 -201t188 -78z
M400 763q-64 0 -99.5 36t-31.5 96h56q-1 -37 16 -54t60 -17t60.5 17t16.5 54h55q4 -60 -32.5 -96t-100.5 -36z" />
    <glyph glyph-name="obreve" unicode="&#x14f;" horiz-adv-x="597" 
d="M462 244q0 88 -43 136.5t-120 48.5t-120.5 -50t-43.5 -135q0 -88 43 -138.5t121 -50.5t120.5 49t42.5 140zM49 240q0 66 22 117.5t58.5 81t79 43.5t87.5 13h5q47 0 88 -12.5t78.5 -40t59 -79t21.5 -120.5q0 -71 -21.5 -123t-58.5 -79.5t-78.5 -40t-87.5 -11.5h-6
q-45 -1 -87.5 13t-79 42.5t-58.5 79.5t-22 116zM297 557q-64 0 -99.5 36t-31.5 96h56q-1 -37 16 -54t60 -17t60.5 17t16.5 54h55q4 -60 -32.5 -96t-100.5 -36z" />
    <glyph glyph-name="Ohungarumlaut" unicode="&#x150;" horiz-adv-x="802" 
d="M400 -11h2q-157 0 -252 96t-95 257q0 93 30.5 164.5t81.5 112.5t110.5 61t123.5 20t123.5 -20t110.5 -61t81.5 -112.5t30.5 -164.5q0 -161 -95 -257t-252 -96zM400 63q118 0 190 78t72 201q0 138 -78.5 211t-182.5 73t-182.5 -73t-78.5 -211q0 -123 72 -201t188 -78z
M446 895l-80 -134h-73l70 134h83zM592 895l-95 -134h-70l70 134h95z" />
    <glyph glyph-name="ohungarumlaut" unicode="&#x151;" horiz-adv-x="597" 
d="M462 244q0 88 -43 136.5t-120 48.5t-120.5 -50t-43.5 -135q0 -88 43 -138.5t121 -50.5t120.5 49t42.5 140zM49 240q0 66 22 117.5t58.5 81t79 43.5t87.5 13h5q47 0 88 -12.5t78.5 -40t59 -79t21.5 -120.5q0 -71 -21.5 -123t-58.5 -79.5t-78.5 -40t-87.5 -11.5h-6
q-45 -1 -87.5 13t-79 42.5t-58.5 79.5t-22 116zM343 689l-80 -134h-73l70 134h83zM489 689l-95 -134h-70l70 134h95z" />
    <glyph glyph-name="OE" unicode="&#x152;" horiz-adv-x="1138" 
d="M748 318v-174q0 -68 79 -68h254v-76h-269q-70 2 -104.5 23.5t-42.5 74.5q-96 -109 -264 -109q-157 1 -251.5 96.5t-94.5 256.5q0 93 30.5 164.5t81.5 112.5t110.5 61t123.5 20q74 0 143 -27t118 -82v98h419v-76h-333v-219h310v-76h-310zM400 63q115 0 186.5 74t75.5 193
v12q0 138 -78.5 211t-182.5 73t-182.5 -73t-78.5 -211q0 -123 72 -201t188 -78z" />
    <glyph glyph-name="oe" unicode="&#x153;" horiz-adv-x="965" 
d="M505 82q-34 -50 -88 -72.5t-115 -20.5h-6q-45 -1 -87.5 13t-79 42.5t-58.5 79.5t-22 116q0 66 22 117.5t58.5 81t79 43.5t87.5 13h5q140 0 205 -96q32 46 82 71t106 25q107 0 167.5 -69t60.5 -189l-2 -26h-371q0 -71 51 -113t117 -42q60 0 168 28v-66q-113 -28 -183 -29
q-135 0 -197 93zM462 244q0 88 -43 136.5t-120 48.5t-120.5 -50t-43.5 -135q0 -88 43 -138.5t121 -50.5t120.5 49t42.5 140zM549 272h289q0 67 -41.5 111t-102.5 44t-103 -44t-42 -111z" />
    <glyph glyph-name="Racute" unicode="&#x154;" horiz-adv-x="628" 
d="M596 0h-98q-48 86 -144 218q-29 41 -44.5 54t-41.5 13h-88v-285h-86v689h271q87 0 142.5 -51.5t55.5 -146.5q0 -163 -145 -199q-14 -3 -28 -3q53 -52 110 -134t96 -155zM180 358h191q46 0 76.5 30.5t30.5 102.5q0 56 -33 88.5t-89 32.5h-176v-254zM405 895l-95 -134h-70
l70 134h95z" />
    <glyph glyph-name="racute" unicode="&#x155;" horiz-adv-x="370" 
d="M253 689l-95 -134h-70l70 134h95zM156 484l6 -45q75 55 143 55q20 0 36 -2v-78q-16 2 -36 2q-79 0 -143 -44v-372h-86v484h80z" />
    <glyph glyph-name="Rcommaaccent" unicode="&#x156;" horiz-adv-x="628" 
d="M596 0h-98q-48 86 -144 218q-29 41 -44.5 54t-41.5 13h-88v-285h-86v689h271q87 0 142.5 -51.5t55.5 -146.5q0 -163 -145 -199q-14 -3 -28 -3q53 -52 110 -134t96 -155zM180 358h191q46 0 76.5 30.5t30.5 102.5q0 56 -33 88.5t-89 32.5h-176v-254zM201 -227h66
q31 25 57 73t34 98h-85q-9 -89 -72 -171z" />
    <glyph glyph-name="rcommaaccent" unicode="&#x157;" horiz-adv-x="370" 
d="M156 484l6 -45q75 55 143 55q20 0 36 -2v-78q-16 2 -36 2q-79 0 -143 -44v-372h-86v484h80zM8 -227h66q31 25 57 73t34 98h-85q-9 -89 -72 -171z" />
    <glyph glyph-name="Rcaron" unicode="&#x158;" horiz-adv-x="628" 
d="M596 0h-98q-48 86 -144 218q-29 41 -44.5 54t-41.5 13h-88v-285h-86v689h271q87 0 142.5 -51.5t55.5 -146.5q0 -163 -145 -199q-14 -3 -28 -3q53 -52 110 -134t96 -155zM180 358h191q46 0 76.5 30.5t30.5 102.5q0 56 -33 88.5t-89 32.5h-176v-254zM323 812l68 83h70
l-89 -134h-98l-89 134h70z" />
    <glyph glyph-name="rcaron" unicode="&#x159;" horiz-adv-x="370" 
d="M187 606l68 83h70l-89 -134h-98l-89 134h70zM156 484l6 -45q75 55 143 55q20 0 36 -2v-78q-16 2 -36 2q-79 0 -143 -44v-372h-86v484h80z" />
    <glyph glyph-name="Sacute" unicode="&#x15a;" horiz-adv-x="576" 
d="M65 36v83q118 -53 208 -53q160 0 167 114q1 26 -13 46t-41.5 35t-62 27.5l-79.5 27.5q-27 8 -41 13q-45 15 -76.5 39t-45 47.5t-20.5 45t-7 35.5v13q3 89 70 139.5t194 50.5q42 0 96.5 -13t82.5 -25v-79q-107 39 -181 39q-86 0 -129 -32.5t-45 -84.5v-7t4 -16.5t12 -23.5
t27 -24t45 -21l40 -14q56 -18 87 -29.5t70 -31.5t58.5 -41t32 -52.5t10.5 -70.5q-8 -101 -74 -142.5t-181 -41.5q-82 0 -208 47zM411 895l-95 -134h-70l70 134h95z" />
    <glyph glyph-name="sacute" unicode="&#x15b;" horiz-adv-x="457" 
d="M387 400q-57 25 -132 29q-57 3 -87 -18t-31 -51q0 -2 -0.5 -4.5t1.5 -10.5t6 -15t13.5 -14.5t24.5 -11.5l48 -15.5l46 -15t38.5 -14.5t35.5 -17.5t26.5 -20t21.5 -25.5t10.5 -31.5t3.5 -40.5q-3 -42 -20 -69.5t-47 -41.5t-63 -19t-78 -5q-72 0 -149 35v70q77 -34 152 -34
q57 0 87.5 14t33.5 53q0 9 -2 16.5t-8 14.5t-11.5 12.5t-17 11.5t-20 10t-25 10t-26 9t-30 10t-31.5 10q-32 10 -54.5 27t-32 34t-14.5 32.5t-5 25.5v9q2 66 53.5 103t154.5 33q60 -3 128 -24v-71zM355 689l-95 -134h-70l70 134h95z" />
    <glyph glyph-name="Scircumflex" unicode="&#x15c;" horiz-adv-x="576" 
d="M65 36v83q118 -53 208 -53q160 0 167 114q1 26 -13 46t-41.5 35t-62 27.5l-79.5 27.5q-27 8 -41 13q-45 15 -76.5 39t-45 47.5t-20.5 45t-7 35.5v13q3 89 70 139.5t194 50.5q42 0 96.5 -13t82.5 -25v-79q-107 39 -181 39q-86 0 -129 -32.5t-45 -84.5v-7t4 -16.5t12 -23.5
t27 -24t45 -21l40 -14q56 -18 87 -29.5t70 -31.5t58.5 -41t32 -52.5t10.5 -70.5q-8 -101 -74 -142.5t-181 -41.5q-82 0 -208 47zM359 761l-68 83l-68 -83h-70l89 134h98l89 -134h-70z" />
    <glyph glyph-name="scircumflex" unicode="&#x15d;" horiz-adv-x="457" 
d="M387 400q-57 25 -132 29q-57 3 -87 -18t-31 -51q0 -2 -0.5 -4.5t1.5 -10.5t6 -15t13.5 -14.5t24.5 -11.5l48 -15.5l46 -15t38.5 -14.5t35.5 -17.5t26.5 -20t21.5 -25.5t10.5 -31.5t3.5 -40.5q-3 -42 -20 -69.5t-47 -41.5t-63 -19t-78 -5q-72 0 -149 35v70q77 -34 152 -34
q57 0 87.5 14t33.5 53q0 9 -2 16.5t-8 14.5t-11.5 12.5t-17 11.5t-20 10t-25 10t-26 9t-30 10t-31.5 10q-32 10 -54.5 27t-32 34t-14.5 32.5t-5 25.5v9q2 66 53.5 103t154.5 33q60 -3 128 -24v-71zM300 555l-68 83l-68 -83h-70l89 134h98l89 -134h-70z" />
    <glyph glyph-name="Scedilla" unicode="&#x15e;" horiz-adv-x="576" 
d="M65 36v83q118 -53 208 -53q160 0 167 114q1 26 -13 46t-41.5 35t-62 27.5l-79.5 27.5q-27 8 -41 13q-45 15 -76.5 39t-45 47.5t-20.5 45t-7 35.5v13q3 89 70 139.5t194 50.5q42 0 96.5 -13t82.5 -25v-79q-107 39 -181 39q-86 0 -129 -32.5t-45 -84.5v-7t4 -16.5t12 -23.5
t27 -24t45 -21l40 -14q56 -18 87 -29.5t70 -31.5t58.5 -41t32 -52.5t10.5 -70.5q-8 -89 -59 -131t-141 -50q25 -35 34 -66q15 -55 -14.5 -93.5t-91.5 -31.5q-37 4 -77 23v48l41 -12q61 -15 73.5 28.5t-22.5 100.5q-85 1 -206 47z" />
    <glyph glyph-name="scedilla" unicode="&#x15f;" horiz-adv-x="457" 
d="M387 471v-71q-57 25 -132 29q-57 3 -87 -18t-31 -51q0 -2 -0.5 -4.5t1.5 -10.5t6 -15t13.5 -14.5t24.5 -11.5l48 -15.5l46 -15t38.5 -14.5t35.5 -17.5t26.5 -20t21.5 -25.5t10.5 -31.5t3.5 -40.5q-5 -65 -42.5 -95t-101.5 -37q26 -36 34 -66q15 -55 -14.5 -93.5
t-91.5 -31.5q-37 4 -77 23v48l41 -12q61 -15 73.5 28.5t-22.5 100.5h-7q-72 0 -149 35v70q77 -34 152 -34q57 0 87.5 14t33.5 53q0 9 -2 16.5t-8 14.5t-11.5 12.5t-17 11.5t-20 10t-25 10t-26 9t-30 10t-31.5 10q-32 10 -54.5 27t-32 34t-14.5 32.5t-5 25.5v9q2 66 53.5 103
t154.5 33q60 -3 128 -24z" />
    <glyph glyph-name="Scaron" unicode="&#x160;" horiz-adv-x="576" 
d="M65 119v-83q126 -47 208 -47q115 0 181 41.5t74 142.5q2 39 -10.5 70.5t-32 52.5t-58.5 41t-70 31.5t-87 29.5l-40 14q-26 8 -45 20.5t-27 24.5t-12 23t-4 18v6q2 52 45 84.5t129 32.5q74 0 181 -39v79q-28 12 -82.5 25t-96.5 13q-127 0 -194 -50.5t-70 -139.5v-14
t6.5 -33.5t20.5 -46.5t45.5 -46.5t76.5 -39.5q135 -45 161 -57q77 -38 76 -92q-7 -114 -167 -114q-90 0 -208 53zM291 812l68 83h70l-89 -134h-98l-89 134h70z" />
    <glyph glyph-name="scaron" unicode="&#x161;" horiz-adv-x="457" 
d="M387 400v71q-68 21 -128 24q-103 4 -154.5 -33t-53.5 -103v-10t5 -24t14.5 -33.5t32 -33t54.5 -27.5q11 -3 31.5 -10t30 -10t26 -9t25 -10t20 -10t17 -11.5t11.5 -12.5t8 -14.5t2 -16.5q-3 -39 -33.5 -53t-87.5 -14q-75 0 -152 34v-70q77 -35 149 -35q45 0 78 5t63 19
t47 41.5t20 69.5q1 22 -3.5 40.5t-10.5 31.5t-21.5 25.5t-26.5 20t-35.5 17.5t-38.5 14.5l-46 15l-48 15.5q-23 7 -34.5 21t-11.5 25l1 10q1 30 31 51t87 18q75 -4 132 -29zM232 606l68 83h70l-89 -134h-98l-89 134h70z" />
    <glyph glyph-name="Tcommaaccent" unicode="&#x162;" horiz-adv-x="561" 
d="M324 0h-86v613h-217v76h519v-76h-216v-613zM170 -227h66q31 25 57 73t34 98h-85q-9 -89 -72 -171z" />
    <glyph glyph-name="tcommaaccent" unicode="&#x163;" horiz-adv-x="339" 
d="M109 417h-84v67h84v119l85 25v-144h112v-67h-112v-277q0 -19 2 -29.5t11 -23t30.5 -18t56.5 -5.5h13v-69h-31q-90 0 -128.5 29.5t-38.5 109.5v283zM89 -227h66q31 25 57 73t34 98h-85q-9 -89 -72 -171z" />
    <glyph glyph-name="Tcaron" unicode="&#x164;" horiz-adv-x="561" 
d="M324 0h-86v613h-217v76h519v-76h-216v-613zM280 812l68 83h70l-89 -134h-98l-89 134h70z" />
    <glyph glyph-name="tcaron" unicode="&#x165;" horiz-adv-x="339" 
d="M320 540h-64l49 160h90zM109 417h-84v67h84v119l85 25v-144h112v-67h-112v-277q0 -19 2 -29.5t11 -23t30.5 -18t56.5 -5.5h13v-69h-31q-90 0 -128.5 29.5t-38.5 109.5v283z" />
    <glyph glyph-name="Tbar" unicode="&#x166;" horiz-adv-x="573" 
d="M330 0h-86v324h-129v65h129v224h-217v76h519v-76h-216v-224h130v-65h-130v-324z" />
    <glyph glyph-name="tbar" unicode="&#x167;" horiz-adv-x="339" 
d="M285 247h-91v-107q0 -19 2 -29.5t11 -23t30.5 -18t56.5 -5.5h13v-69h-31q-90 0 -128.5 29.5t-38.5 109.5v113h-67v62h67v108h-84v67h84v119l85 25v-144h112v-67h-112v-108h91v-62z" />
    <glyph glyph-name="Utilde" unicode="&#x168;" horiz-adv-x="720" 
d="M360 -11q33 0 60.5 3t70 20t71.5 46t50.5 87.5t21.5 138.5v405h-85v-385q0 -49 -7.5 -87.5t-18.5 -63t-29 -42t-32 -25.5t-35.5 -12.5t-32 -5t-28.5 -0.5h-6q-70 0 -108 23q-81 52 -81 213v385h-85v-405q0 -80 21.5 -138.5t50.5 -87.5t71.5 -46t70 -20t60.5 -3zM303 895
q20 0 55.5 -18t59.5 -18t39 36h46q-8 -103 -91 -103q-13 0 -28 5.5t-29.5 13.5t-19.5 10q-32 12 -46.5 6t-26.5 -35h-46q5 48 23 75.5t64 27.5z" />
    <glyph glyph-name="utilde" unicode="&#x169;" horiz-adv-x="570" 
d="M422 0l-6 46q-18 -22 -59.5 -39.5t-85.5 -17.5q-38 0 -65 4.5t-54 18t-43.5 38t-27 66t-10.5 99.5v269h90v-263q0 -96 25.5 -132.5t96.5 -36.5q34 0 71 19t54 41v372h86v-484h-72zM228 689q20 0 55.5 -18t59.5 -18t39 36h46q-8 -103 -91 -103q-13 0 -28 5.5t-29.5 13.5
t-19.5 10q-32 12 -46.5 6t-26.5 -35h-46q5 48 23 75.5t64 27.5z" />
    <glyph glyph-name="Umacron" unicode="&#x16a;" horiz-adv-x="720" 
d="M360 -11q33 0 60.5 3t70 20t71.5 46t50.5 87.5t21.5 138.5v405h-85v-385q0 -49 -7.5 -87.5t-18.5 -63t-29 -42t-32 -25.5t-35.5 -12.5t-32 -5t-28.5 -0.5h-6q-70 0 -108 23q-81 52 -81 213v385h-85v-405q0 -80 21.5 -138.5t50.5 -87.5t71.5 -46t70 -20t60.5 -3zM471 873
v-73h-222v73h222z" />
    <glyph glyph-name="umacron" unicode="&#x16b;" horiz-adv-x="570" 
d="M422 0l-6 46q-18 -22 -59.5 -39.5t-85.5 -17.5q-38 0 -65 4.5t-54 18t-43.5 38t-27 66t-10.5 99.5v269h90v-263q0 -96 25.5 -132.5t96.5 -36.5q34 0 71 19t54 41v372h86v-484h-72zM396 667v-73h-222v73h222z" />
    <glyph glyph-name="Ubreve" unicode="&#x16c;" horiz-adv-x="720" 
d="M360 -11q-33 0 -60.5 3t-70 20t-71.5 46t-50.5 87.5t-21.5 138.5v405h85v-385q0 -49 8 -87.5t19.5 -63t30 -42t33 -25.5t36 -12.5t31.5 -5t26 -0.5h5q69 0 103 19q86 47 86 217v385h85v-405q0 -80 -21.5 -138.5t-50.5 -87.5t-71.5 -46t-70 -20t-60.5 -3zM359 763
q-64 0 -99.5 36t-31.5 96h56q-1 -37 16 -54t60 -17t60.5 17t16.5 54h55q4 -60 -32.5 -96t-100.5 -36z" />
    <glyph glyph-name="ubreve" unicode="&#x16d;" horiz-adv-x="570" 
d="M422 0l-6 46q-18 -22 -59.5 -39.5t-85.5 -17.5q-38 0 -65 4.5t-54 18t-43.5 38t-27 66t-10.5 99.5v269h90v-263q0 -96 25.5 -132.5t96.5 -36.5q34 0 71 19t54 41v372h86v-484h-72zM284 557q-64 0 -99.5 36t-31.5 96h56q-1 -37 16 -54t60 -17t60.5 17t16.5 54h55
q4 -60 -32.5 -96t-100.5 -36z" />
    <glyph glyph-name="Uring" unicode="&#x16e;" horiz-adv-x="720" 
d="M360 -11q-33 0 -60.5 3t-70 20t-71.5 46t-50.5 87.5t-21.5 138.5v405h85v-385q0 -49 8 -87.5t19.5 -63t30 -42t33 -25.5t36 -12.5t31.5 -5t26 -0.5h5q69 0 103 19q86 47 86 217v385h85v-405q0 -80 -21.5 -138.5t-50.5 -87.5t-71.5 -46t-70 -20t-60.5 -3zM360 755
q-41 0 -67.5 22t-26.5 70q0 92 94 92t94 -92q0 -48 -26.5 -70t-67.5 -22zM360 803q19 0 32 11t13 33q0 44 -45 44t-45 -44q0 -22 13 -33t32 -11z" />
    <glyph glyph-name="uring" unicode="&#x16f;" horiz-adv-x="570" 
d="M422 0l-6 46q-18 -22 -59.5 -39.5t-85.5 -17.5q-38 0 -65 4.5t-54 18t-43.5 38t-27 66t-10.5 99.5v269h90v-263q0 -96 25.5 -132.5t96.5 -36.5q34 0 71 19t54 41v372h86v-484h-72zM285 549q-41 0 -67.5 22t-26.5 70q0 92 94 92t94 -92q0 -48 -26.5 -70t-67.5 -22z
M285 597q19 0 32 11t13 33q0 44 -45 44t-45 -44q0 -22 13 -33t32 -11z" />
    <glyph glyph-name="Uhungarumlaut" unicode="&#x170;" horiz-adv-x="720" 
d="M360 -11q-33 0 -60.5 3t-70 20t-71.5 46t-50.5 87.5t-21.5 138.5v405h85v-385q0 -49 8 -87.5t19.5 -63t30 -42t33 -25.5t36 -12.5t31.5 -5t26 -0.5h5q69 0 103 19q86 47 86 217v385h85v-405q0 -80 -21.5 -138.5t-50.5 -87.5t-71.5 -46t-70 -20t-60.5 -3zM401 895
l-80 -134h-73l70 134h83zM547 895l-95 -134h-70l70 134h95z" />
    <glyph glyph-name="uhungarumlaut" unicode="&#x171;" horiz-adv-x="570" 
d="M422 0l-6 46q-18 -22 -59.5 -39.5t-85.5 -17.5q-38 0 -65 4.5t-54 18t-43.5 38t-27 66t-10.5 99.5v269h90v-263q0 -96 25.5 -132.5t96.5 -36.5q34 0 71 19t54 41v372h86v-484h-72zM310 689l-80 -134h-73l70 134h83zM456 689l-95 -134h-70l70 134h95z" />
    <glyph glyph-name="Uogonek" unicode="&#x172;" horiz-adv-x="720" 
d="M362 -11q-35 -57 -22 -100.5t74 -28.5l41 14v-50q-40 -19 -77 -23q-62 -7 -91.5 31.5t-14.5 93.5q6 27 34 66q-220 26 -220 292v405h85v-385q0 -49 8 -87.5t19.5 -63t30 -42t33 -25.5t36 -12.5t31.5 -5t26 -0.5h5q69 0 103 19q86 47 86 217v385h85v-405q0 -80 -21.5 -138
t-49.5 -87t-70.5 -46t-69.5 -20.5t-61 -3.5z" />
    <glyph glyph-name="uogonek" unicode="&#x173;" horiz-adv-x="570" 
d="M422 0l-6 46q-18 -22 -59.5 -39.5t-85.5 -17.5q-38 0 -65 4.5t-54 18t-43.5 38t-27 66t-10.5 99.5v269h90v-263q0 -96 25.5 -132.5t96.5 -36.5q34 0 71 19t54 41v372h86v-484h-24q-40 -59 -25.5 -107.5t79.5 -32.5l41 14v-50q-40 -19 -77 -23q-62 -7 -91.5 31.5
t-14.5 93.5q8 33 40 74z" />
    <glyph glyph-name="Wcircumflex" unicode="&#x174;" horiz-adv-x="1004" 
d="M456 613h92q115 -278 171 -531l169 607h91l-201 -689h-116q-67 284 -160 519q-93 -235 -160 -519h-116l-201 689h91l169 -607q56 253 171 531zM570 760l-68 83l-68 -83h-70l89 134h98l89 -134h-70z" />
    <glyph glyph-name="wcircumflex" unicode="&#x175;" horiz-adv-x="804" 
d="M782 484l-160 -484h-106l-114 356l-114 -356h-106l-160 484h95l121 -399l115 377h98l115 -377l121 399h95zM470 555l-68 83l-68 -83h-70l89 134h98l89 -134h-70z" />
    <glyph glyph-name="Ycircumflex" unicode="&#x176;" horiz-adv-x="565" 
d="M326 298v-298h-86v297l-227 392h101l169 -308l168 308h100zM350 761l-68 83l-68 -83h-70l89 134h98l89 -134h-70z" />
    <glyph glyph-name="ycircumflex" unicode="&#x177;" horiz-adv-x="514" 
d="M216 -2l-199 486h96l144 -386l143 386h96l-193 -484l-40 -116q-21 -59 -54.5 -77.5t-99.5 -16.5h-41v66l40 1q25 2 36.5 4.5t24 15.5t20.5 38zM327 555l-68 83l-68 -83h-70l89 134h98l89 -134h-70z" />
    <glyph glyph-name="Ydieresis" unicode="&#x178;" horiz-adv-x="565" 
d="M326 298v-298h-86v297l-227 392h101l169 -308l168 308h100zM155 843q0 52 52 52t52 -52t-52 -52t-52 52zM305 843q0 52 52 52t52 -52t-52 -52t-52 52z" />
    <glyph glyph-name="Zacute" unicode="&#x179;" horiz-adv-x="624" 
d="M576 76v-76h-539v72l428 541h-408v76h523v-73l-432 -540h428zM424 895l-95 -134h-70l70 134h95z" />
    <glyph glyph-name="zacute" unicode="&#x17a;" horiz-adv-x="522" 
d="M357 416h-300v68h419v-61l-321 -352h321v-71h-438v62zM373 689l-95 -134h-70l70 134h95z" />
    <glyph glyph-name="Zdotaccent" unicode="&#x17b;" horiz-adv-x="624" 
d="M576 76v-76h-539v72l428 541h-408v76h523v-73l-432 -540h428zM256 843q0 52 52 52t52 -52t-52 -52t-52 52z" />
    <glyph glyph-name="zdotaccent" unicode="&#x17c;" horiz-adv-x="522" 
d="M357 416h-300v68h419v-61l-321 -352h321v-71h-438v62zM205 637q0 52 52 52t52 -52t-52 -52t-52 52z" />
    <glyph glyph-name="Zcaron" unicode="&#x17d;" horiz-adv-x="624" 
d="M576 76v-76h-539v72l428 541h-408v76h523v-73l-432 -540h428zM308 812l68 83h70l-89 -134h-98l-89 134h70z" />
    <glyph glyph-name="zcaron" unicode="&#x17e;" horiz-adv-x="522" 
d="M357 416h-300v68h419v-61l-321 -352h321v-71h-438v62zM257 606l68 83h70l-89 -134h-98l-89 134h70z" />
    <glyph glyph-name="longs" unicode="&#x17f;" horiz-adv-x="285" 
d="M28 417v67h86v80q0 35 7.5 61.5t23.5 41.5t31 24.5t39 13t37.5 4.5t37.5 1h55v-67h-47q-61 0 -80 -17.5t-19 -67.5v-558h-85v417h-86z" />
    <glyph glyph-name="florin" unicode="&#x192;" horiz-adv-x="360" 
d="M226 417l-96 -481q-9 -40 -27.5 -69t-38 -43.5t-48 -22.5t-47 -9.5t-45.5 -1.5h-36l14 71h28q58 0 80.5 17t32.5 64l94 475h-86l13 67h86l16 80q8 42 27 71t37.5 43.5t49 22t47.5 8.5t46 1h36l-14 -71h-28q-59 0 -81.5 -16.5t-32.5 -64.5q-2 -12 -7 -37t-7 -37h104
l-13 -67h-104z" />
    <glyph glyph-name="Aringacute" unicode="&#x1fa;" horiz-adv-x="641" 
d="M111 0h-87q61 208 114 360.5t134 328.5h97q81 -176 134 -328.5t114 -360.5h-87l-62 209h-295zM321 608q-65 -145 -125 -329h249q-53 168 -124 329zM320 732q-41 0 -67.5 22t-26.5 70q0 73 60 88l62 119h95l-90 -119q61 -16 61 -88q0 -48 -26.5 -70t-67.5 -22zM320 780
q19 0 32 11t13 33q0 44 -45 44t-45 -44q0 -22 13 -33t32 -11z" />
    <glyph glyph-name="aringacute" unicode="&#x1fb;" horiz-adv-x="513" 
d="M263 534q-41 0 -67.5 22t-26.5 70q0 77 67 89l67 129h95l-99 -131q58 -16 58 -87q0 -48 -26.5 -70t-67.5 -22zM263 582q19 0 32 11t13 33q0 44 -45 44t-45 -44q0 -22 13 -33t32 -11zM357 105v119q-52 8 -88 8q-143 0 -143 -93q0 -37 25 -62t75 -25q31 0 73.5 17.5
t57.5 35.5zM443 287v-287h-72l-6 46q-16 -18 -62 -37.5t-89 -19.5q-172 0 -172 154q0 72 58.5 111t139.5 39q37 0 117 -10v23q0 58 -31.5 90t-82.5 32q-28 0 -57 -6t-46.5 -12t-38 -14.5t-22.5 -9.5v67q2 1 21.5 9t38.5 14.5t52.5 12.5t67.5 6q81 0 132.5 -48.5t51.5 -159.5
z" />
    <glyph glyph-name="AEacute" unicode="&#x1fc;" horiz-adv-x="891" 
d="M415 131v78h-242l-62 -209h-87q61 208 114 360.5t134 328.5h562v-76h-333v-219h310v-76h-310v-174q0 -68 79 -68h254v-76h-269q-79 2 -114 30.5t-36 100.5zM322 613q-62 -139 -126 -334h219v334h-93zM570 895l-95 -134h-70l70 134h95z" />
    <glyph glyph-name="aeacute" unicode="&#x1fd;" horiz-adv-x="859" 
d="M413 94q-10 -41 -49 -66t-76 -32t-76 -7q-172 0 -172 154q0 71 58 107t140 36q37 0 117 -10v30q0 58 -31.5 90t-82.5 32q-28 0 -56 -6t-45 -12.5t-35.5 -14.5t-21.5 -9v67q3 1 21 9t36 14.5t50.5 12.5t66.5 6q110 0 156 -81q66 81 175 81q107 0 167.5 -69t60.5 -189
l-2 -26h-371q0 -71 51 -113t117 -42q60 0 168 28v-66q-113 -28 -183 -29q-51 0 -109.5 29.5t-73.5 75.5zM443 272h289q0 67 -41.5 111t-102.5 44t-103 -44t-42 -111zM355 149v68q-52 8 -88 8q-71 0 -107 -19.5t-36 -66.5q0 -37 25 -62t75 -25q49 0 90 26.5t41 70.5zM538 689
l-95 -134h-70l70 134h95z" />
    <glyph glyph-name="Oslashacute" unicode="&#x1fe;" horiz-adv-x="802" 
d="M522 895l-95 -134h-70l70 134h95zM110 -40l-49 40l81 93q-87 95 -87 249q0 93 30.5 164.5t81.5 112.5t110.5 61t123.5 20q120 0 209 -63l84 94l46 -42l-81 -94q88 -95 88 -253q0 -161 -94.5 -256.5t-251.5 -96.5q-124 0 -211 62zM400 63q118 0 190 78t72 201
q0 114 -59 188l-360 -417q66 -50 157 -50zM140 342q0 -110 57 -184l360 417q-68 51 -156 51q-104 0 -182.5 -73t-78.5 -211z" />
    <glyph glyph-name="oslashacute" unicode="&#x1ff;" horiz-adv-x="597" 
d="M425 689l-95 -134h-70l70 134h95zM417 383l-194 -313q33 -15 76 -15q78 0 120.5 49t42.5 140q0 89 -45 139zM182 101l191 313q-32 15 -74 15q-77 0 -120.5 -50t-43.5 -135q0 -94 47 -143zM508 530l-50 -81q90 -66 90 -206q0 -71 -21.5 -123t-58.5 -79.5t-78.5 -40
t-87.5 -11.5h-6q-57 -2 -110 21l-49 -79l-46 20l51 83q-93 69 -93 206q0 66 22 117.5t58.5 81t79 43.5t87.5 13h5q60 0 110 -20l51 84z" />
    <glyph glyph-name="Scommaaccent" unicode="&#x218;" horiz-adv-x="576" 
d="M65 36v83q118 -53 208 -53q160 0 167 114q1 26 -13 46t-41.5 35t-62 27.5l-79.5 27.5q-27 8 -41 13q-45 15 -76.5 39t-45 47.5t-20.5 45t-7 35.5v13q3 89 70 139.5t194 50.5q42 0 96.5 -13t82.5 -25v-79q-107 39 -181 39q-86 0 -129 -32.5t-45 -84.5v-7t4 -16.5t12 -23.5
t27 -24t45 -21l40 -14q56 -18 87 -29.5t70 -31.5t58.5 -41t32 -52.5t10.5 -70.5q-8 -101 -74 -142.5t-181 -41.5q-82 0 -208 47zM175 -227q63 82 72 171h85q-8 -50 -34 -98t-57 -73h-66z" />
    <glyph glyph-name="scommaaccent" unicode="&#x219;" horiz-adv-x="457" 
d="M387 400q-57 25 -132 29q-57 3 -87 -18t-31 -51q0 -2 -0.5 -4.5t1.5 -10.5t6 -15t13.5 -14.5t24.5 -11.5l48 -15.5l46 -15t38.5 -14.5t35.5 -17.5t26.5 -20t21.5 -25.5t10.5 -31.5t3.5 -40.5q-3 -42 -20 -69.5t-47 -41.5t-63 -19t-78 -5q-72 0 -149 35v70q77 -34 152 -34
q57 0 87.5 14t33.5 53q0 9 -2 16.5t-8 14.5t-11.5 12.5t-17 11.5t-20 10t-25 10t-26 9t-30 10t-31.5 10q-32 10 -54.5 27t-32 34t-14.5 32.5t-5 25.5v9q2 66 53.5 103t154.5 33q60 -3 128 -24v-71zM120 -227q63 82 72 171h85q-8 -50 -34 -98t-57 -73h-66z" />
    <glyph glyph-name="circumflex" unicode="&#x2c6;" horiz-adv-x="486" 
d="M311 555l-68 83l-68 -83h-70l89 134h98l89 -134h-70z" />
    <glyph glyph-name="caron" unicode="&#x2c7;" horiz-adv-x="496" 
d="M248 606l68 83h70l-89 -134h-98l-89 134h70z" />
    <glyph glyph-name="breve" unicode="&#x2d8;" horiz-adv-x="486" 
d="M242 557q-64 0 -99.5 36t-31.5 96h56q-1 -37 16 -54t60 -17t60.5 17t16.5 54h55q4 -60 -32.5 -96t-100.5 -36z" />
    <glyph glyph-name="dotaccent" unicode="&#x2d9;" horiz-adv-x="504" 
d="M200 637q0 52 52 52t52 -52t-52 -52t-52 52z" />
    <glyph glyph-name="ring" unicode="&#x2da;" horiz-adv-x="508" 
d="M254 549q-41 0 -67.5 22t-26.5 70q0 92 94 92t94 -92q0 -48 -26.5 -70t-67.5 -22zM254 597q19 0 32 11t13 33q0 44 -45 44t-45 -44q0 -22 13 -33t32 -11z" />
    <glyph glyph-name="ogonek" unicode="&#x2db;" horiz-adv-x="508" 
d="M213 10h56q-29 -41 -37 -79.5t11 -60t64 -10.5l41 14v-50q-40 -19 -77 -23q-62 -7 -91.5 31.5t-14.5 93.5q11 40 48 84z" />
    <glyph glyph-name="tilde" unicode="&#x2dc;" horiz-adv-x="447" 
d="M167 689q20 0 55.5 -18t59.5 -18t39 36h46q-8 -103 -91 -103q-13 0 -28 5.5t-29.5 13.5t-19.5 10q-32 12 -46.5 6t-26.5 -35h-46q5 48 23 75.5t64 27.5z" />
    <glyph glyph-name="hungarumlaut" unicode="&#x2dd;" horiz-adv-x="459" 
d="M233 689l-80 -134h-73l70 134h83zM379 689l-95 -134h-70l70 134h95z" />
    <glyph glyph-name="Wgrave" unicode="&#x1e80;" horiz-adv-x="1004" 
d="M548 613h-92q-115 -278 -171 -531l-169 607h-91l201 -689h116q67 284 160 519q93 -235 160 -519h116l201 689h-91l-169 -607q-56 253 -171 531zM466 760l-95 134h95l70 -134h-70z" />
    <glyph glyph-name="wgrave" unicode="&#x1e81;" horiz-adv-x="804" 
d="M622 0l160 484h-95l-121 -399l-115 377h-98l-115 -377l-121 399h-95l160 -484h106l114 356l114 -356h106zM368 555l-95 134h95l70 -134h-70z" />
    <glyph glyph-name="Wacute" unicode="&#x1e82;" horiz-adv-x="1004" 
d="M456 613h92q115 -278 171 -531l169 607h91l-201 -689h-116q-67 284 -160 519q-93 -235 -160 -519h-116l-201 689h91l169 -607q56 253 171 531zM644 894l-95 -134h-70l70 134h95z" />
    <glyph glyph-name="wacute" unicode="&#x1e83;" horiz-adv-x="804" 
d="M782 484l-160 -484h-106l-114 356l-114 -356h-106l-160 484h95l121 -399l115 377h98l115 -377l121 399h95zM532 689l-95 -134h-70l70 134h95z" />
    <glyph glyph-name="Wdieresis" unicode="&#x1e84;" horiz-adv-x="1004" 
d="M548 613h-92q-115 -278 -171 -531l-169 607h-91l201 -689h116q67 284 160 519q93 -235 160 -519h116l201 689h-91l-169 -607q-56 253 -171 531zM375 842q0 52 52 52t52 -52t-52 -52t-52 52zM525 842q0 52 52 52t52 -52t-52 -52t-52 52z" />
    <glyph glyph-name="wdieresis" unicode="&#x1e85;" horiz-adv-x="804" 
d="M622 0l160 484h-95l-121 -399l-115 377h-98l-115 -377l-121 399h-95l160 -484h106l114 356l114 -356h106zM275 637q0 52 52 52t52 -52t-52 -52t-52 52zM425 637q0 52 52 52t52 -52t-52 -52t-52 52z" />
    <glyph glyph-name="Ygrave" unicode="&#x1ef2;" horiz-adv-x="565" 
d="M326 298v-298h-86v297l-227 392h101l169 -308l168 308h100zM257 761l-95 134h95l70 -134h-70z" />
    <glyph glyph-name="ygrave" unicode="&#x1ef3;" horiz-adv-x="514" 
d="M216 -2l-199 486h96l144 -386l143 386h96l-193 -484l-40 -116q-21 -59 -54.5 -77.5t-99.5 -16.5h-41v66l40 1q25 2 36.5 4.5t24 15.5t20.5 38zM239 555l-95 134h95l70 -134h-70z" />
    <glyph glyph-name="thinspace" unicode="&#x2009;" horiz-adv-x="14" 
 />
    <glyph glyph-name="endash" unicode="&#x2013;" horiz-adv-x="594" 
d="M530 302v-74h-466v74h466z" />
    <glyph glyph-name="emdash" unicode="&#x2014;" horiz-adv-x="809" 
d="M745 302v-74h-681v74h681z" />
    <glyph glyph-name="quoteleft" unicode="&#x2018;" horiz-adv-x="229" 
d="M124 700h64l-49 -172h-90z" />
    <glyph glyph-name="quoteright" unicode="&#x2019;" horiz-adv-x="223" 
d="M116 528h-64l49 172h90z" />
    <glyph glyph-name="quotesinglbase" unicode="&#x201a;" horiz-adv-x="232" 
d="M96 -82h-64l49 172h90z" />
    <glyph glyph-name="quotedblleft" unicode="&#x201c;" horiz-adv-x="360" 
d="M247 700h72l-49 -172h-82zM124 700h64l-49 -172h-90z" />
    <glyph glyph-name="quotedblright" unicode="&#x201d;" horiz-adv-x="354" 
d="M124 528h-72l49 172h82zM247 528h-64l49 172h90z" />
    <glyph glyph-name="quotedblbase" unicode="&#x201e;" horiz-adv-x="364" 
d="M105 -82h-73l49 172h83zM228 -82h-64l49 172h90z" />
    <glyph glyph-name="dagger" unicode="&#x2020;" horiz-adv-x="483" 
d="M281 -105h-78v536h-161v65h161v193h78v-193h160v-65h-160v-536z" />
    <glyph glyph-name="daggerdbl" unicode="&#x2021;" horiz-adv-x="506" 
d="M293 -105h-78v234h-161v65h161v237h-161v65h161v193h78v-193h160v-65h-160v-237h160v-65h-160v-234z" />
    <glyph glyph-name="bullet" unicode="&#x2022;" horiz-adv-x="420" 
d="M63 257q0 70 31.5 108.5t115.5 38.5t115.5 -38.5t31.5 -108.5q0 -147 -147 -147t-147 147z" />
    <glyph glyph-name="ellipsis" unicode="&#x2026;" horiz-adv-x="720" 
d="M59 46q0 27 12 42t45 15t45 -15t12 -42q0 -57 -57 -57t-57 57zM303 46q0 27 12 42t45 15t45 -15t12 -42q0 -57 -57 -57t-57 57zM547 46q0 27 12 42t45 15t45 -15t12 -42q0 -57 -57 -57t-57 57z" />
    <glyph glyph-name="perthousand" unicode="&#x2030;" horiz-adv-x="1152" 
d="M298 538q0 45 -22.5 70.5t-62.5 25.5q-41 0 -64 -26t-23 -70q0 -47 23 -73.5t64 -26.5q40 0 62.5 26t22.5 74zM51 535q0 83 49 125t113 40q68 0 114.5 -38t46.5 -125q0 -80 -43.5 -122t-117.5 -42q-64 -2 -113 39t-49 123zM652 154q0 45 -22.5 70.5t-62.5 25.5
q-41 0 -64 -26t-23 -70q0 -47 23 -73.5t64 -26.5q40 0 62.5 26t22.5 74zM405 151q0 83 49 125t113 40q68 0 114.5 -38t46.5 -125q0 -80 -43.5 -122t-117.5 -42q-64 -2 -113 39t-49 123zM152 0h-65l551 689h65zM1033 154q0 45 -22.5 70.5t-62.5 25.5q-41 0 -64 -26t-23 -70
q0 -47 23 -73.5t64 -26.5q40 0 62.5 26t22.5 74zM786 151q0 83 49 125t113 40q68 0 114.5 -38t46.5 -125q0 -80 -43.5 -122t-117.5 -42q-64 -2 -113 39t-49 123z" />
    <glyph glyph-name="guilsinglleft" unicode="&#x2039;" horiz-adv-x="321" 
d="M138 247l138 -207h-96l-138 207l138 207h96z" />
    <glyph glyph-name="guilsinglright" unicode="&#x203a;" horiz-adv-x="321" 
d="M183 247l-138 207h96l138 -207l-138 -207h-96z" />
    <glyph glyph-name="fraction" unicode="&#x2044;" horiz-adv-x="132" 
d="M-48 0h-52l279 689h52z" />
    <glyph glyph-name="zero.superior" unicode="&#x2070;" horiz-adv-x="395" 
d="M349 645q0 -93 -41.5 -148t-110.5 -55q-69 1 -110 55.5t-41 147.5q0 102 45 153t106 51q62 0 107 -50.5t45 -153.5zM198 496q39 0 64 41.5t25 107.5q0 73 -27.5 111.5t-62.5 38.5q-34 0 -61.5 -38.5t-27.5 -111.5q0 -67 25 -108t65 -41z" />
    <glyph glyph-name="four.superior" unicode="&#x2074;" horiz-adv-x="366" 
d="M277 592h53v-51h-53v-93h-62v93h-191v40l191 262h62v-251zM215 766l-127 -174h127v174z" />
    <glyph glyph-name="five.superior" unicode="&#x2075;" horiz-adv-x="364" 
d="M302 843v-53h-173l-9 -96h71q71 0 102 -35.5t31 -92.5q-2 -53 -41.5 -88.5t-106.5 -35.5q-27 0 -73 7.5t-61 14.5l8 52q55 -21 127 -21q39 0 62 20.5t23 53.5q0 8 -1.5 16t-7.5 22.5t-23 23.5t-43 9h-132l17 203h230z" />
    <glyph glyph-name="six.superior" unicode="&#x2076;" horiz-adv-x="383" 
d="M109 573q0 -32 23 -55.5t65 -23.5q38 0 62.5 19t24.5 60q0 34 -22.5 57t-61.5 23q-43 0 -66.5 -24t-24.5 -56zM237 799q-58 0 -93.5 -42t-35.5 -105q16 27 42.5 40.5t49.5 13.5q71 0 107.5 -39.5t36.5 -93.5q0 -61 -38.5 -96t-107.5 -35q-152 0 -152 158q0 120 48 184.5
t134 64.5q11 0 20.5 -0.5t15.5 -1.5t14 -3t11.5 -3t13 -4.5t13.5 -4.5v-48q-37 15 -79 15z" />
    <glyph glyph-name="seven.superior" unicode="&#x2077;" horiz-adv-x="324" 
d="M106 448h-66l193 342h-196v53h267v-48z" />
    <glyph glyph-name="eight.superior" unicode="&#x2078;" horiz-adv-x="389" 
d="M199 442h-8q-66 0 -103 30.5t-39 81.5q0 9 1.5 20.5t14 37t35.5 39.5q-42 25 -42 91q2 49 35.5 77.5t97.5 29.5h8q63 -1 97 -29.5t36 -77.5q0 -66 -43 -91q23 -14 36 -39.5t14.5 -37t1.5 -20.5q-2 -51 -39 -81.5t-103 -30.5zM187 493h16q36 1 55.5 19.5t20.5 44.5
q0 3 -0.5 7.5t-4 16.5t-10 21.5t-20.5 17t-32 7.5h-33q-30 0 -47 -17.5t-19 -35.5l-2 -17q1 -27 21 -45t55 -19zM175 674h37q27 0 42.5 16.5t17.5 32.5l1 16q-1 24 -19.5 42t-50.5 19h-16q-32 -1 -50 -19t-19 -42q0 -3 0.5 -7t3.5 -15.5t8.5 -20t17 -15.5t27.5 -7z" />
    <glyph glyph-name="nine.superior" unicode="&#x2079;" horiz-adv-x="382" 
d="M273 718q0 32 -23 55.5t-65 23.5q-38 0 -62.5 -19t-24.5 -60q0 -34 22.5 -57t61.5 -23q43 0 66.5 24t24.5 56zM145 492q58 0 93.5 42t35.5 105q-16 -27 -42.5 -40.5t-49.5 -13.5q-71 0 -107.5 39.5t-36.5 93.5q0 61 38.5 96t107.5 35q152 0 152 -158q0 -120 -48 -184.5
t-134 -64.5q-11 0 -20.5 0.5t-15.5 1.5t-14 3t-11.5 3t-13 4.5t-13.5 4.5v48q38 -15 79 -15z" />
    <glyph glyph-name="zero.inferior" unicode="&#x2080;" horiz-adv-x="394" 
d="M349 45q0 -93 -41.5 -148t-110.5 -55q-69 1 -110 55.5t-41 147.5q0 102 45 153t106 51q62 0 107 -50.5t45 -153.5zM198 -104q39 0 64 41.5t25 107.5q0 73 -27.5 111.5t-62.5 38.5q-34 0 -61.5 -38.5t-27.5 -111.5q0 -67 25 -108t65 -41z" />
    <glyph glyph-name="one.inferior" unicode="&#x2081;" horiz-adv-x="282" 
d="M45 -152v52h75v280l-74 -31v53l86 41h50v-343h75v-52h-212z" />
    <glyph glyph-name="two.inferior" unicode="&#x2082;" horiz-adv-x="352" 
d="M304 144q0 -65 -53 -114l-132 -130h186v-52h-268v46l136 135q71 66 71 110q-1 26 -22 41.5t-58 15.5q-49 0 -111 -35v55q53 32 110 32q67 0 104 -28.5t37 -75.5z" />
    <glyph glyph-name="three.inferior" unicode="&#x2083;" horiz-adv-x="354" 
d="M303 136q0 -9 -1.5 -20.5t-13.5 -35t-34 -35.5q22 -12 34 -36t13.5 -35.5t1.5 -19.5q-2 -52 -38 -82t-103 -30q-26 0 -65 7.5t-54 14.5v52q56 -21 120 -21q37 0 57 17.5t21 44.5v5.5t-1.5 13t-5 17.5t-13 15t-22.5 10h-106v53h105q20 6 31 21.5t11 27.5l1 13
q-1 27 -21 45t-57 18q-50 0 -110 -21v51q16 7 50 14.5t59 7.5q67 0 103 -30t38 -82z" />
    <glyph glyph-name="four.inferior" unicode="&#x2084;" horiz-adv-x="366" 
d="M277 -8h53v-51h-53v-93h-62v93h-191v40l191 262h62v-251zM215 166l-127 -174h127v174z" />
    <glyph glyph-name="five.inferior" unicode="&#x2085;" horiz-adv-x="365" 
d="M303 243v-53h-173l-9 -96h71q71 0 102 -35.5t31 -92.5q-2 -53 -41.5 -88.5t-106.5 -35.5q-27 0 -73 7.5t-61 14.5l8 52q55 -21 127 -21q39 0 62 20.5t23 53.5q0 8 -1.5 16t-7.5 22.5t-23 23.5t-43 9h-132l17 203h230z" />
    <glyph glyph-name="six.inferior" unicode="&#x2086;" horiz-adv-x="383" 
d="M109 -27q0 -32 23 -55.5t65 -23.5q38 0 62.5 19t24.5 60q0 34 -22.5 57t-61.5 23q-43 0 -66.5 -24t-24.5 -56zM237 199q-58 0 -93.5 -42t-35.5 -105q16 27 42.5 40.5t49.5 13.5q71 0 107.5 -39.5t36.5 -93.5q0 -61 -38.5 -96t-107.5 -35q-152 0 -152 158q0 120 48 184.5
t134 64.5q11 0 20.5 -0.5t15.5 -1.5t14 -3t11.5 -3t13 -4.5t13.5 -4.5v-48q-38 15 -79 15z" />
    <glyph glyph-name="seven.inferior" unicode="&#x2087;" horiz-adv-x="323" 
d="M106 -152h-66l193 342h-196v53h267v-48z" />
    <glyph glyph-name="eight.inferior" unicode="&#x2088;" horiz-adv-x="387" 
d="M198 -158h-8q-66 0 -103 30.5t-39 81.5q0 9 1.5 20.5t14 37t35.5 39.5q-42 25 -42 91q2 49 35.5 77.5t97.5 29.5h8q63 -1 97 -29.5t36 -77.5q0 -66 -43 -91q23 -14 36 -39.5t14.5 -37t1.5 -20.5q-2 -51 -39 -81.5t-103 -30.5zM186 -107h16q36 1 55.5 19.5t20.5 44.5
q0 3 -0.5 7.5t-4 16.5t-10 21.5t-20.5 17t-32 7.5h-33q-30 0 -47 -17.5t-19 -35.5l-2 -17q1 -27 21 -45t55 -19zM174 74h37q27 0 42.5 16.5t16.5 32.5l2 16q-1 24 -19.5 42t-50.5 19h-16q-32 -1 -50 -19t-19 -42q0 -3 0.5 -7t3.5 -15.5t8.5 -20t17 -15.5t27.5 -7z" />
    <glyph glyph-name="nine.inferior" unicode="&#x2089;" horiz-adv-x="382" 
d="M273 118q0 32 -23 55.5t-65 23.5q-38 0 -62.5 -19t-24.5 -60q0 -34 22.5 -57t61.5 -23q43 0 66.5 24t24.5 56zM145 -108q58 0 93.5 42t35.5 105q-16 -27 -42.5 -40.5t-49.5 -13.5q-71 0 -107.5 39.5t-36.5 93.5q0 61 38.5 96t107.5 35q152 0 152 -158q0 -120 -48 -184.5
t-134 -64.5q-11 0 -20.5 0.5t-15.5 1.5t-14 3t-11.5 3t-13 4.5t-13.5 4.5v48q38 -15 79 -15z" />
    <glyph glyph-name="Euro" unicode="&#x20ac;" horiz-adv-x="638" 
d="M495 629q-51 0 -93 -11t-78.5 -35t-61 -65.5t-32.5 -98.5h279v-61h-280l1 -53h279v-61h-277q10 -58 35.5 -97t64.5 -56.5t76 -24t87 -6.5q54 0 83 8v-68q-84 -11 -108 -11q-57 0 -107.5 12.5t-97 40.5t-78.5 79.5t-42 122.5h-97v61h96l-1 53h-95v61h96q9 74 40.5 130
t78 88t98.5 47.5t109 15.5q24 0 108 -11v-68q-29 8 -83 8z" />
    <glyph glyph-name="afii61289" unicode="&#x2113;" horiz-adv-x="386" 
d="M174 221h-20v-79q0 -18 3 -29.5t12.5 -23.5t32 -17.5t57.5 -5.5h47v-69h-65q-90 0 -128.5 29.5t-38.5 109.5v412q0 90 36 120.5t97 30.5t97.5 -30.5t36.5 -120.5v-155q0 -172 -167 -172zM261 399v149q0 43 -14.5 57t-39.5 14q-24 0 -38.5 -14t-14.5 -57v-258h2
q105 0 105 109z" />
    <glyph glyph-name="afii61352" unicode="&#x2116;" horiz-adv-x="1048" 
d="M859 430q-59 0 -98 32.5t-39 102.5q0 71 38.5 103t98.5 32q62 0 101 -32t39 -103q0 -70 -39.5 -102.5t-100.5 -32.5zM859 491q33 0 55 18t22 56q0 74 -77 74q-75 0 -75 -74q0 -38 21.5 -56t53.5 -18zM993 397v-66q-137 -66 -265 0v60q75 -34 146 -30t119 36zM529 137v552
h86v-689h-97l-102.5 197.5t-103 181t-131.5 206.5v-585h-86v689h105q165 -232 329 -552z" />
    <glyph glyph-name="trademark" unicode="&#x2122;" horiz-adv-x="798" 
d="M316 164l22 300h-111v-300h-60v300h-104v51h347l108 -243l108 243h68l26 -351h-59l-19 257l-102 -223h-45l-101 223l-19 -257h-59z" />
    <glyph glyph-name="estimated" unicode="&#x212e;" horiz-adv-x="660" 
d="M611 282h-429v-193q66 -63 152 -63q76 0 123 33t87 94l31 -19q-44 -68 -99 -104.5t-142 -36.5q-119 0 -195 84.5t-76 205.5q0 123 75 206.5t200 83.5q124 0 198.5 -84.5t74.5 -206.5zM491 315v163q-68 62 -153 62q-96 0 -156 -62v-163h309z" />
    <glyph glyph-name="a161" unicode="&#x2192;" horiz-adv-x="821" 
d="M320 595l67 -59l-145 -139h499v-94h-499l140 -135l-61 -67l-241 249z" />
    <glyph glyph-name="a163" unicode="&#x2194;" horiz-adv-x="654" 
d="M139 372l-59 67l245 240l249 -241l-67 -61l-135 140v-499h-94v499z" />
    <glyph glyph-name="a164" unicode="&#x2195;" horiz-adv-x="654" 
d="M80 258l59 67l139 -145v499h94v-499l135 140l67 -61l-249 -241z" />
    <glyph glyph-name="minus" unicode="&#x2212;" horiz-adv-x="592" 
d="M74 316h444v-80h-444v80z" />
    <glyph glyph-name="notequal" unicode="&#x2260;" horiz-adv-x="574" 
d="M510 418v-80h-154l-74 -118h228v-80h-278l-65 -105h-72l65 105h-94v80h144l74 118h-218v80h267l69 110h72l-69 -110h105z" />
    <glyph glyph-name="lessequal" unicode="&#x2264;" horiz-adv-x="654" 
d="M156 379l419 -140v-89l-509 185v92l509 185v-89zM575 80h-506v-80h506v80z" />
    <glyph glyph-name="greaterequal" unicode="&#x2265;" horiz-adv-x="654" 
d="M79 239l419 140l-419 144v89l509 -185v-92l-509 -185v89zM79 80h506v-80h-506v80z" />
    <glyph glyph-name="a160" unicode="&#x2794;" horiz-adv-x="821" 
d="M434 536l67 59l240 -245l-241 -249l-61 67l140 135h-499v94h499z" />
    <glyph glyph-name="a196" unicode="&#x2798;" horiz-adv-x="664" 
d="M169 251l-89 6l4 343l346 5l-4 -90l-195 3l353 -353l-66 -66l-353 353z" />
    <glyph glyph-name="a165" unicode="&#x2799;" horiz-adv-x="664" 
d="M584 257l-89 -6l4 201l-353 -353l-66 66l353 353l-195 -3l-4 90l346 -5z" />
    <glyph glyph-name="a192" unicode="&#x279a;" horiz-adv-x="664" 
d="M80 447l89 6l-4 -201l353 353l66 -66l-353 -353l195 3l4 -90l-346 5z" />
    <glyph glyph-name="a166" unicode="&#x279b;" horiz-adv-x="664" 
d="M495 453l89 -6l-4 -343l-346 -5l4 90l195 -3l-353 353l66 66l353 -353z" />
    <glyph glyph-name="s_t" unicode="&#xfb06;" horiz-adv-x="793" 
d="M390 465v-68q-57 28 -135 32q-57 3 -87 -18t-31 -51q0 -2 -0.5 -4.5t1.5 -10.5t6 -15t13.5 -14.5t24.5 -11.5l48 -15.5l46 -15t38.5 -14.5t35.5 -17.5t26.5 -20t21.5 -25.5t10.5 -31.5t3.5 -40.5q-3 -42 -20 -69.5t-47 -41.5t-63 -19t-78 -5q-72 0 -149 35v70
q77 -34 152 -34q57 0 87.5 14t33.5 53q0 9 -2 16.5t-8 14.5t-11.5 12.5t-17 11.5t-20 10t-25 10t-26 9t-30 10t-31.5 10q-32 10 -54.5 27t-32 34t-14.5 32.5t-5 25.5v9q2 66 53.5 103t154.5 33q18 0 44 -8q-11 11 -17.5 30.5t-7.5 33.5v14q0 40 16 70t43 46t55.5 23.5
t59.5 7.5q26 0 50 -3.5t51.5 -14t47.5 -28t33.5 -49t13.5 -72.5v-61h112v-67h-112v-277q0 -19 2 -29.5t11 -23t30.5 -18t56.5 -5.5h13v-69h-31q-90 0 -128.5 29.5t-38.5 109.5v283h-84v67h93v56q0 54 -32 83.5t-82 29.5q-55 0 -87 -24.5t-32 -69.5q0 -34 16 -61t35 -33z" />
    <glyph glyph-name="apple" horiz-adv-x="795" 
d="M100 686h595v-552h-595v552zM620 207v405h-122q-14 -43 -49.5 -142t-51.5 -149l-100 291h-122v-405h64v367l131 -359h53l133 359v-367h64zM125 0h14l8 47q0 3 1 20.5t1 21.5v-39v-50h15v109h-25l-3 -45q-2 -7 -2 -32q0 8 -2 19.5t-2 12.5l-5 45h-25v-109h17v68
q0 5 -1 12.5t-1 8.5h2q0 -4 1 -17t1 -18zM175 91v-74q0 -9 6 -14t12 -5q23 0 23 19v74q0 21 -23 21q-18 0 -18 -21zM191 17v74q0 7 2 7q5 0 6 -1t1 -6v-74q0 -4 -7 -4q-2 0 -2 4zM242 17v25h-17v-25q0 -19 22 -19q7 0 14 5t7 14v20q0 5 -13 21.5t-13 20.5v12q0 7 5 7
q6 0 6 -7v-21h15v21q0 21 -21 21q-22 0 -22 -21v-12q0 -10 14 -26.5t14 -24.5v-11q0 -4 -6 -4q-5 0 -5 4zM319 109h-45v-13h15v-96h17v96h13v13zM326 109l-12 -109h14l3 28h11l5 -28h16l-12 109h-25zM342 45h-8l2 44h2zM368 0h15v50q12 0 12 -8q0 -29 2 -42h15v45
q-4 15 -17 15q17 2 17 17v12q0 20 -22 20h-22v-109zM383 64v34h7q5 0 5 -7v-21q0 -6 -9 -6h-3zM419 109v-109h23q19 0 19 20v65q0 14 -4 19t-17 5h-21zM436 15v83h4q4 0 4 -9v-69q0 -5 -4 -5h-4zM469 0h39v15h-22v39h20v14h-20v28h22v13h-39v-109zM531 17v25h-17v-25
q0 -9 6 -14t13 -5q23 0 23 19v20q0 5 -12.5 21.5t-12.5 20.5v12q0 7 2 7q5 0 6 -1t1 -6v-21h16v21q0 21 -23 21q-19 0 -19 -21v-12q0 -10 13 -26.5t13 -24.5v-11q0 -4 -7 -4q-2 0 -2 4zM565 0h16v109h-16v-109zM633 54h-21v-12h4v-25q0 -4 -4 -4q-6 0 -6 4v74q0 7 6 7
q4 0 4 -7v-21h17v21q0 21 -21 21q-23 0 -23 -21v-74q0 -9 6.5 -14t12.5 -5q10 0 17 8v-6h8v54zM668 109h-25v-109h13v79v12q0 -7 5 -34l7 -57h25v109h-15v-55q0 -4 0.5 -10.5t0.5 -11.5t-1 -9v-6q0 37 -8 62z" />
    <glyph glyph-name="Imacron" horiz-adv-x="274" 
d="M180 0h-86v689h86v-689zM248 873v-73h-222v73h222z" />
    <glyph glyph-name="commaaccent" horiz-adv-x="338" 
d="M81 -227q63 82 72 171h85q-8 -50 -34 -98t-57 -73h-66z" />
    <glyph glyph-name="zero.taboldstyle" 
d="M296 -8h2q-108 0 -175 68t-67 181q0 124 72.5 186.5t167.5 62.5q96 0 169 -62.5t73 -186.5q0 -113 -67 -181t-175 -68zM298 65q65 0 114 51t49 125q0 81 -53 128.5t-112 47.5q-58 0 -110.5 -47.5t-52.5 -128.5q0 -74 49 -125t116 -51z" />
    <glyph glyph-name="one.taboldstyle" 
d="M110 0v76h158v327l-148 -70v76l162 81h72v-414h158v-76h-402z" />
    <glyph glyph-name="two.taboldstyle" 
d="M213 76h285v-76h-420v68l281 224q50 41 50 67q0 28 -31 45t-80 16q-60 -1 -176 -32v72q32 16 83.5 26t92.5 10q95 0 146.5 -36t53.5 -98q0 -62 -63 -110z" />
    <glyph glyph-name="six.taboldstyle" 
d="M138 215q0 -59 44.5 -104.5t125.5 -45.5q73 0 120.5 35.5t47.5 114.5q0 65 -43.5 108t-120.5 43q-81 0 -126.5 -46t-47.5 -105zM133 342q16 42 69 72t110 30q120 0 183 -68t63 -161q0 -105 -65 -165.5t-183 -60.5q-123 0 -191.5 67t-68.5 207q0 211 82.5 324t230.5 113
q33 0 59 -2.5t34.5 -4t28.5 -8t22 -7.5v-72q-50 22 -128 22q-80 0 -137.5 -44.5t-83 -107.5t-25.5 -134z" />
    <glyph glyph-name="eight.taboldstyle" 
d="M291 -11q-113 1 -176.5 52.5t-66.5 139.5q0 8 0.5 16t5.5 33t14.5 45t31 43t51.5 36q-87 37 -87 163q3 84 61 133t166 50h13q108 -1 166 -50t61 -133q0 -126 -87 -163q30 -13 51.5 -36t31 -43t14.5 -45t5.5 -33t0.5 -16q-3 -88 -66.5 -139.5t-176.5 -52.5h-13zM284 66h27
q70 1 108.5 35.5t40.5 84.5q0 5 -1 14.5t-8.5 32.5t-20 40.5t-39.5 32t-64 14.5h-59q-37 0 -64 -14t-39.5 -33.5t-20 -39t-8.5 -33.5l-1 -14q2 -50 40.5 -84.5t108.5 -35.5zM261 389h66q34 1 59 14t36 31t18 35.5t8 30.5v12q-2 47 -36.5 79.5t-100.5 34.5h-27
q-66 -2 -100.5 -34.5t-36.5 -79.5q0 -5 0.5 -13.5t7 -29.5t17 -37t34 -29.5t55.5 -13.5z" />
    <glyph glyph-name="three.taboldstyle" 
d="M416 137q27 -11 47 -32t29.5 -40.5t15 -42t6 -32t0.5 -15.5q-3 -89 -65 -140.5t-176 -51.5q-44 0 -109.5 12.5t-90.5 23.5v77q99 -36 202 -36q73 0 111.5 34t40.5 86q0 4 -0.5 11t-5 25.5t-12.5 33.5t-26 30t-42 20h-178v76v0v0v0h1v0h1v0h1v0h1h1h1h1h1h1h1h1h1h1h1h1h1
h1h1h1h1h1h1h1h1h1h1h1h1h1h1h1h1h1h1h1h1h1h1h1h2h1h1h1h1h1h2h1h1h1h2h1h1h1h2h1h1h2h1h1h2h1h1h2h1h1h2h1h2h1h2h1h1h2h1h2h1h2h1h2h1h2h1h2h2h1h2h1h2h1h2h2h1h2h2h1h2h1h2h2h1h2h2h2h1h2h2h1h2h2h2h1h2h2h2h1h2h2h2h2h1h2h2h2h2h9q41 11 62.5 41t22.5 55l1 24
q-2 52 -40.5 86t-111.5 34q-88 0 -184 -35v76q27 12 83 24t99 12q114 0 176 -51.5t65 -140.5q0 -7 -0.5 -15.5t-5.5 -32t-14.5 -43t-29.5 -41t-48 -32.5z" />
    <glyph glyph-name="four.taboldstyle" 
d="M458 35h100v-75h-100v-166h-86v166h-343v61l338 462h91v-448zM372 379l-247 -344h247v344z" />
    <glyph glyph-name="five.taboldstyle" 
d="M499 483v-76h-309l-17 -190h26h113q121 0 174 -61t53 -160q-3 -91 -71.5 -152t-181.5 -61q-46 0 -124 12.5t-101 22.5l9 77q96 -35 218 -35q75 0 119 39.5t44 101.5q0 12 -1 23t-8.5 34t-21.5 38.5t-44 28.5t-71 13h-224l30 345h388z" />
    <glyph glyph-name="seven.taboldstyle" 
d="M184 -206h-93l346 612h-357v77h453v-76z" />
    <glyph glyph-name="nine.taboldstyle" 
d="M459 268q0 59 -44.5 104.5t-125.5 45.5q-73 0 -120.5 -35.5t-47.5 -114.5q0 -65 43.5 -108t120.5 -43q81 0 126.5 46t47.5 105zM464 141q-16 -42 -69 -72t-110 -30q-120 0 -183 68t-63 161q0 105 65 165.5t183 60.5q123 0 191.5 -67t68.5 -207q0 -211 -82.5 -324
t-230.5 -113q-33 0 -59 2.5t-34.5 4t-28.5 8t-22 7.5v72q50 -22 128 -22q80 0 137.5 44.5t83 107.5t25.5 134z" />
    <glyph glyph-name="zero.tnum" 
d="M296 -11h1q-118 0 -188.5 96t-70.5 258q0 93 22.5 164.5t60.5 112t82.5 60.5t92.5 20t92.5 -20t82.5 -60.5t61 -112t23 -164.5q0 -162 -71 -258t-188 -96zM297 65q75 0 124 78t49 200q0 137 -53 209t-121 72q-67 0 -120 -72.5t-53 -208.5q0 -123 49 -200.5t125 -77.5z
" />
    <glyph glyph-name="one.tnum" 
d="M134 0v76h135v521l-134 -59v81l148 70h72v-613h135v-76h-356z" />
    <glyph glyph-name="two.tnum" 
d="M513 514q0 -104 -110 -214l-223 -225l336 1v-76h-453v67l256 265q109 105 109 177q-2 51 -40.5 82t-111.5 31q-96 0 -188 -54v79q88 52 186 52q116 0 177.5 -48.5t61.5 -136.5z" />
    <glyph glyph-name="three.tnum" 
d="M414 343q27 -11 47 -32t29.5 -40.5t15 -42t6 -32t0.5 -15.5q-3 -89 -65 -140.5t-176 -51.5q-44 0 -109.5 12.5t-90.5 23.5v77q99 -36 202 -36q73 0 111.5 34t40.5 86q0 4 -0.5 11t-5 25.5t-12.5 33.5t-26 30t-42 20h-178v76v0v0v0h1v0h1v0h1v0h1h1h1h1h1h1h1h1h1h1h1h1h1
h1h1h1h1h1h1h1h1h1h1h1h1h1h1h1h1h1h1h1h1h1h1h1h2h1h1h1h1h1h2h1h1h1h2h1h1h1h2h1h1h2h1h1h2h1h1h2h1h1h2h1h2h1h2h1h1h2h1h2h1h2h1h2h1h2h1h2h2h1h2h1h2h1h2h2h1h2h2h1h2h1h2h2h1h2h2h2h1h2h2h1h2h2h2h1h2h2h2h1h2h2h2h2h1h2h2h2h2h9q41 11 62.5 41t22.5 55l1 24
q-2 52 -40.5 86t-111.5 34q-88 0 -184 -35v76q27 12 83 24t99 12q114 0 176 -51.5t65 -140.5q0 -7 -0.5 -15.5t-5.5 -32t-14.5 -43t-29.5 -41t-48 -32.5z" />
    <glyph glyph-name="four.tnum" 
d="M458 241h100v-75h-100v-166h-86v166h-343v61l338 462h91v-448zM372 585l-247 -344h247v344z" />
    <glyph glyph-name="five.tnum" 
d="M500 689v-76h-309l-17 -190h26h113q121 0 174 -61t53 -160q-3 -91 -71.5 -152t-181.5 -61q-46 0 -124 12.5t-101 22.5l9 77q96 -35 218 -35q75 0 119 39.5t44 101.5q0 12 -1 23t-8.5 34t-21.5 38.5t-44 28.5t-71 13h-224l30 345h388z" />
    <glyph glyph-name="six.tnum" 
d="M138 215q0 -59 44.5 -104.5t125.5 -45.5q73 0 120.5 35.5t47.5 114.5q0 65 -43.5 108t-120.5 43q-81 0 -126.5 -46t-47.5 -105zM133 342q16 42 69 72t110 30q120 0 183 -68t63 -161q0 -105 -65 -165.5t-183 -60.5q-123 0 -191.5 67t-68.5 207q0 211 82.5 324t230.5 113
q33 0 59 -2.5t34.5 -4t28.5 -8t22 -7.5v-72q-50 22 -128 22q-80 0 -137.5 -44.5t-83 -107.5t-25.5 -134z" />
    <glyph glyph-name="seven.tnum" 
d="M185 0h-93l346 612h-357v77h453v-76z" />
    <glyph glyph-name="eight.tnum" 
d="M291 -11q-113 1 -176.5 52.5t-66.5 139.5q0 8 0.5 16t5.5 33t14.5 45t31 43t51.5 36q-87 37 -87 163q3 84 61 133t166 50h13q108 -1 166 -50t61 -133q0 -126 -87 -163q30 -13 51.5 -36t31 -43t14.5 -45t5.5 -33t0.5 -16q-3 -88 -66.5 -139.5t-176.5 -52.5h-13zM284 66h27
q70 1 108.5 35.5t40.5 84.5q0 5 -1 14.5t-8.5 32.5t-20 40.5t-39.5 32t-64 14.5h-59q-37 0 -64 -14t-39.5 -33.5t-20 -39t-8.5 -33.5l-1 -14q2 -50 40.5 -84.5t108.5 -35.5zM261 389h66q34 1 59 14t36 31t18 35.5t8 30.5v12q-2 47 -36.5 79.5t-100.5 34.5h-27
q-66 -2 -100.5 -34.5t-36.5 -79.5q0 -5 0.5 -13.5t7 -29.5t17 -37t34 -29.5t55.5 -13.5z" />
    <glyph glyph-name="nine.tnum" 
d="M457 474q0 59 -44.5 104.5t-125.5 45.5q-73 0 -120.5 -35.5t-47.5 -114.5q0 -65 43.5 -108t120.5 -43q81 0 126.5 46t47.5 105zM462 347q-16 -42 -69 -72t-110 -30q-120 0 -183 68t-63 161q0 105 65 165.5t183 60.5q123 0 191.5 -67t68.5 -207q0 -211 -82.5 -324
t-230.5 -113q-33 0 -59 2.5t-34.5 4t-28.5 8t-22 7.5v72q50 -22 128 -22q80 0 137.5 44.5t83 107.5t25.5 134z" />
    <glyph glyph-name="zero.oldstyle" horiz-adv-x="582" 
d="M290 -8h2q-108 0 -175 68t-67 181q0 124 72.5 186.5t167.5 62.5q96 0 169 -62.5t73 -186.5q0 -113 -67 -181t-175 -68zM292 65q65 0 114 51t49 125q0 81 -53 128.5t-112 47.5q-58 0 -110.5 -47.5t-52.5 -128.5q0 -74 49 -125t116 -51z" />
    <glyph glyph-name="one.oldstyle" horiz-adv-x="479" 
d="M50 0v76h158v327l-148 -70v76l162 81h72v-414h158v-76h-402z" />
    <glyph glyph-name="two.oldstyle" horiz-adv-x="509" 
d="M171 76h285v-76h-420v68l281 224q50 41 50 67q0 28 -31 45t-80 16q-60 -1 -176 -32v72q32 16 83.5 26t92.5 10q95 0 146.5 -36t53.5 -98q0 -62 -63 -110z" />
    <glyph glyph-name="three.oldstyle" horiz-adv-x="531" 
d="M383 137q27 -11 47 -32t29.5 -40.5t15 -42t6 -32t0.5 -15.5q-3 -89 -65 -140.5t-176 -51.5q-44 0 -109.5 12.5t-90.5 23.5v77q99 -36 202 -36q73 0 111.5 34t40.5 86q0 4 -0.5 11t-5 25.5t-12.5 33.5t-26 30t-42 20h-178v76v0v0v0h1v0h1v0h1v0h1h1h1h1h1h1h1h1h1h1h1h1h1
h1h1h1h1h1h1h1h1h1h1h1h1h1h1h1h1h1h1h1h1h1h1h1h2h1h1h1h1h1h2h1h1h1h2h1h1h1h2h1h1h2h1h1h2h1h1h2h1h1h2h1h2h1h2h1h1h2h1h2h1h2h1h2h1h2h1h2h2h1h2h1h2h1h2h2h1h2h2h1h2h1h2h2h1h2h2h2h1h2h2h1h2h2h2h1h2h2h2h1h2h2h2h2h1h2h2h2h2h9q41 11 62.5 41t22.5 55l1 24
q-2 52 -40.5 86t-111.5 34q-88 0 -184 -35v76q27 12 83 24t99 12q114 0 176 -51.5t65 -140.5q0 -7 -0.5 -15.5t-5.5 -32t-14.5 -43t-29.5 -41t-48 -32.5z" />
    <glyph glyph-name="four.oldstyle" horiz-adv-x="577" 
d="M451 35h100v-75h-100v-166h-86v166h-343v61l338 462h91v-448zM365 379l-247 -344h247v344z" />
    <glyph glyph-name="five.oldstyle" horiz-adv-x="556" 
d="M479 483v-76h-309l-17 -190h26h113q121 0 174 -61t53 -160q-3 -91 -71.5 -152t-181.5 -61q-46 0 -124 12.5t-101 22.5l9 77q96 -35 218 -35q75 0 119 39.5t44 101.5q0 12 -1 23t-8.5 34t-21.5 38.5t-44 28.5t-71 13h-224l30 345h388z" />
    <glyph glyph-name="six.oldstyle" horiz-adv-x="600" 
d="M141 215q0 -59 44.5 -104.5t125.5 -45.5q73 0 120.5 35.5t47.5 114.5q0 65 -43.5 108t-120.5 43q-81 0 -126.5 -46t-47.5 -105zM136 342q16 42 69 72t110 30q120 0 183 -68t63 -161q0 -105 -65 -165.5t-183 -60.5q-123 0 -191.5 67t-68.5 207q0 211 82.5 324t230.5 113
q33 0 59 -2.5t34.5 -4t28.5 -8t22 -7.5v-72q-50 22 -128 22q-80 0 -137.5 -44.5t-83 -107.5t-25.5 -134z" />
    <glyph glyph-name="seven.oldstyle" horiz-adv-x="502" 
d="M135 -206h-93l346 612h-357v77h453v-76z" />
    <glyph glyph-name="eight.oldstyle" horiz-adv-x="603" 
d="M295 -11q-113 1 -176.5 52.5t-66.5 139.5q0 8 0.5 16t5.5 33t14.5 45t31 43t51.5 36q-87 37 -87 163q3 84 61 133t166 50h13q108 -1 166 -50t61 -133q0 -126 -87 -163q30 -13 51.5 -36t31 -43t14.5 -45t5.5 -33t0.5 -16q-3 -88 -66.5 -139.5t-176.5 -52.5h-13zM288 66h27
q70 1 108.5 35.5t40.5 84.5q0 5 -1 14.5t-8.5 32.5t-20 40.5t-39.5 32t-64 14.5h-59q-37 0 -64 -14t-39.5 -33.5t-20 -39t-8.5 -33.5l-1 -14q2 -50 40.5 -84.5t108.5 -35.5zM265 389h66q34 1 59 14t36 31t18 35.5t8 30.5v12q-2 47 -36.5 79.5t-100.5 34.5h-27
q-66 -2 -100.5 -34.5t-36.5 -79.5q0 -5 0.5 -13.5t7 -29.5t17 -37t34 -29.5t55.5 -13.5z" />
    <glyph glyph-name="nine.oldstyle" horiz-adv-x="589" 
d="M456 268q0 59 -44.5 104.5t-125.5 45.5q-73 0 -120.5 -35.5t-47.5 -114.5q0 -65 43.5 -108t120.5 -43q81 0 126.5 46t47.5 105zM461 141q-16 -42 -69 -72t-110 -30q-120 0 -183 68t-63 161q0 105 65 165.5t183 60.5q123 0 191.5 -67t68.5 -207q0 -211 -82.5 -324
t-230.5 -113q-33 0 -59 2.5t-34.5 4t-28.5 8t-22 7.5v72q50 -22 128 -22q80 0 137.5 44.5t83 107.5t25.5 134z" />
    <glyph glyph-name="a.alt" horiz-adv-x="571" 
d="M139 244q0 -98 46.5 -145t112.5 -47q63 0 111 58v284q-43 34 -89 34q-82 0 -131.5 -51.5t-49.5 -132.5zM423 0l-6 46q-18 -23 -53 -40t-78 -17q-28 0 -56 6t-62 23.5t-59.5 44.5t-42.5 75.5t-17 110.5q0 59 22.5 107.5t57.5 77.5t74.5 45t77.5 16q80 0 128 -44l5 33h81
v-484h-72z" />
    <glyph glyph-name="aacute.alt" horiz-adv-x="571" 
d="M418 689l-95 -134h-70l70 134h95zM139 244q0 -98 46.5 -145t112.5 -47q63 0 111 58v284q-43 34 -89 34q-82 0 -131.5 -51.5t-49.5 -132.5zM423 0l-6 46q-18 -23 -53 -40t-78 -17q-28 0 -56 6t-62 23.5t-59.5 44.5t-42.5 75.5t-17 110.5q0 59 22.5 107.5t57.5 77.5
t74.5 45t77.5 16q80 0 128 -44l5 33h81v-484h-72z" />
    <glyph glyph-name="acircumflex.alt" horiz-adv-x="571" 
d="M351 555l-68 83l-68 -83h-70l89 134h98l89 -134h-70zM139 244q0 -98 46.5 -145t112.5 -47q63 0 111 58v284q-43 34 -89 34q-82 0 -131.5 -51.5t-49.5 -132.5zM423 0l-6 46q-18 -23 -53 -40t-78 -17q-28 0 -56 6t-62 23.5t-59.5 44.5t-42.5 75.5t-17 110.5
q0 59 22.5 107.5t57.5 77.5t74.5 45t77.5 16q80 0 128 -44l5 33h81v-484h-72z" />
    <glyph glyph-name="adieresis.alt" horiz-adv-x="571" 
d="M165 637q0 52 52 52t52 -52t-52 -52t-52 52zM315 637q0 52 52 52t52 -52t-52 -52t-52 52zM139 244q0 -98 46.5 -145t112.5 -47q63 0 111 58v284q-43 34 -89 34q-82 0 -131.5 -51.5t-49.5 -132.5zM423 0l-6 46q-18 -23 -53 -40t-78 -17q-28 0 -56 6t-62 23.5t-59.5 44.5
t-42.5 75.5t-17 110.5q0 59 22.5 107.5t57.5 77.5t74.5 45t77.5 16q80 0 128 -44l5 33h81v-484h-72z" />
    <glyph glyph-name="agrave.alt" horiz-adv-x="571" 
d="M267 555l-95 134h95l70 -134h-70zM139 244q0 -98 46.5 -145t112.5 -47q63 0 111 58v284q-43 34 -89 34q-82 0 -131.5 -51.5t-49.5 -132.5zM423 0l-6 46q-18 -23 -53 -40t-78 -17q-28 0 -56 6t-62 23.5t-59.5 44.5t-42.5 75.5t-17 110.5q0 59 22.5 107.5t57.5 77.5
t74.5 45t77.5 16q80 0 128 -44l5 33h81v-484h-72z" />
    <glyph glyph-name="aring.alt" horiz-adv-x="571" 
d="M288 549q-41 0 -67.5 22t-26.5 70q0 92 94 92t94 -92q0 -48 -26.5 -70t-67.5 -22zM288 597q19 0 32 11t13 33q0 44 -45 44t-45 -44q0 -22 13 -33t32 -11zM139 244q0 -98 46.5 -145t112.5 -47q63 0 111 58v284q-43 34 -89 34q-82 0 -131.5 -51.5t-49.5 -132.5zM423 0
l-6 46q-18 -23 -53 -40t-78 -17q-28 0 -56 6t-62 23.5t-59.5 44.5t-42.5 75.5t-17 110.5q0 59 22.5 107.5t57.5 77.5t74.5 45t77.5 16q80 0 128 -44l5 33h81v-484h-72z" />
    <glyph glyph-name="atilde.alt" horiz-adv-x="571" 
d="M237 689q20 0 55.5 -18t59.5 -18t39 36h46q-8 -103 -91 -103q-13 0 -28 5.5t-29.5 13.5t-19.5 10q-32 12 -46.5 6t-26.5 -35h-46q5 48 23 75.5t64 27.5zM139 244q0 -98 46.5 -145t112.5 -47q63 0 111 58v284q-43 34 -89 34q-82 0 -131.5 -51.5t-49.5 -132.5zM423 0l-6 46
q-18 -23 -53 -40t-78 -17q-28 0 -56 6t-62 23.5t-59.5 44.5t-42.5 75.5t-17 110.5q0 59 22.5 107.5t57.5 77.5t74.5 45t77.5 16q80 0 128 -44l5 33h81v-484h-72z" />
    <glyph glyph-name="abreve.alt" horiz-adv-x="571" 
d="M288 557q-64 0 -99.5 36t-31.5 96h56q-1 -37 16 -54t60 -17t60.5 17t16.5 54h55q4 -60 -32.5 -96t-100.5 -36zM139 244q0 -98 46.5 -145t112.5 -47q63 0 111 58v284q-43 34 -89 34q-82 0 -131.5 -51.5t-49.5 -132.5zM423 0l-6 46q-18 -23 -53 -40t-78 -17q-28 0 -56 6
t-62 23.5t-59.5 44.5t-42.5 75.5t-17 110.5q0 59 22.5 107.5t57.5 77.5t74.5 45t77.5 16q80 0 128 -44l5 33h81v-484h-72z" />
    <glyph glyph-name="aogonek.alt" horiz-adv-x="571" 
d="M139 244q0 -98 46.5 -145t112.5 -47q63 0 111 58v284q-43 34 -89 34q-82 0 -131.5 -51.5t-49.5 -132.5zM495 0h-20q-40 -59 -27.5 -107.5t77.5 -32.5l41 14v-50q-40 -19 -77 -23q-62 -7 -91.5 31.5t-14.5 93.5q8 33 40 74l-6 46q-18 -23 -53 -40t-78 -17q-28 0 -56 6
t-62 23.5t-59.5 44.5t-42.5 75.5t-17 110.5q0 59 22.5 107.5t57.5 77.5t74.5 45t77.5 16q80 0 128 -44l5 33h81v-484z" />
    <glyph glyph-name="amacron.alt" horiz-adv-x="571" 
d="M400 667v-73h-222v73h222zM139 244q0 -98 46.5 -145t112.5 -47q63 0 111 58v284q-43 34 -89 34q-82 0 -131.5 -51.5t-49.5 -132.5zM423 0l-6 46q-18 -23 -53 -40t-78 -17q-28 0 -56 6t-62 23.5t-59.5 44.5t-42.5 75.5t-17 110.5q0 59 22.5 107.5t57.5 77.5t74.5 45
t77.5 16q80 0 128 -44l5 33h81v-484h-72z" />
    <glyph glyph-name="aringacute.alt" horiz-adv-x="571" 
d="M139 244q0 -98 46.5 -145t112.5 -47q63 0 111 58v284q-43 34 -89 34q-82 0 -131.5 -51.5t-49.5 -132.5zM423 0l-6 46q-18 -23 -53 -40t-78 -17q-28 0 -56 6t-62 23.5t-59.5 44.5t-42.5 75.5t-17 110.5q0 59 22.5 107.5t57.5 77.5t74.5 45t77.5 16q80 0 128 -44l5 33h81
v-484h-72zM297 534q-41 0 -67.5 22t-26.5 70q0 77 67 89l67 129h95l-99 -131q58 -16 58 -87q0 -48 -26.5 -70t-67.5 -22zM297 582q19 0 32 11t13 33q0 44 -45 44t-45 -44q0 -22 13 -33t32 -11z" />
    <glyph glyph-name="g.alt" horiz-adv-x="557" 
d="M74 -172v66q108 -35 176 -35q172 0 172 62q0 47 -82 48l-137 4q-64 2 -102.5 29t-38.5 75q0 53 52 86q-58 52 -58 137q0 69 33 115t79 63.5t101 16.5h4q93 0 149 -46q56 45 104 45q15 0 33 -4v-74q-19 3 -27 3q-32 0 -71 -16q25 -48 25 -101q0 -55 -18.5 -94t-50.5 -59
t-67 -28.5t-76 -7.5h-5q-57 -2 -104 19q-24 -16 -25 -36q-1 -22 23 -34.5t56 -13.5l137 -4q142 -7 142 -119q0 -16 -2 -29t-15 -34t-36.5 -35.5t-70.5 -25.5t-113 -11q-99 0 -187 38zM403 303q0 59 -38 92.5t-93 33.5t-94 -34t-39 -92t37.5 -89.5t95.5 -31.5t94.5 30
t36.5 91z" />
    <glyph glyph-name="gcircumflex.alt" horiz-adv-x="557" 
d="M361 555l-68 83l-68 -83h-70l89 134h98l89 -134h-70zM74 -172v66q108 -35 176 -35q172 0 172 62q0 47 -82 48l-137 4q-64 2 -102.5 29t-38.5 75q0 53 52 86q-58 52 -58 137q0 69 33 115t79 63.5t101 16.5h4q93 0 149 -46q56 45 104 45q15 0 33 -4v-74q-19 3 -27 3
q-32 0 -71 -16q25 -48 25 -101q0 -55 -18.5 -94t-50.5 -59t-67 -28.5t-76 -7.5h-5q-57 -2 -104 19q-24 -16 -25 -36q-1 -22 23 -34.5t56 -13.5l137 -4q142 -7 142 -119q0 -16 -2 -29t-15 -34t-36.5 -35.5t-70.5 -25.5t-113 -11q-99 0 -187 38zM403 303q0 59 -38 92.5
t-93 33.5t-94 -34t-39 -92t37.5 -89.5t95.5 -31.5t94.5 30t36.5 91z" />
    <glyph glyph-name="gbreve.alt" horiz-adv-x="557" 
d="M285 557q-64 0 -99.5 36t-31.5 96h56q-1 -37 16 -54t60 -17t60.5 17t16.5 54h55q4 -60 -32.5 -96t-100.5 -36zM74 -172v66q108 -35 176 -35q172 0 172 62q0 47 -82 48l-137 4q-64 2 -102.5 29t-38.5 75q0 53 52 86q-58 52 -58 137q0 69 33 115t79 63.5t101 16.5h4
q93 0 149 -46q56 45 104 45q15 0 33 -4v-74q-19 3 -27 3q-32 0 -71 -16q25 -48 25 -101q0 -55 -18.5 -94t-50.5 -59t-67 -28.5t-76 -7.5h-5q-57 -2 -104 19q-24 -16 -25 -36q-1 -22 23 -34.5t56 -13.5l137 -4q142 -7 142 -119q0 -16 -2 -29t-15 -34t-36.5 -35.5t-70.5 -25.5
t-113 -11q-99 0 -187 38zM403 303q0 59 -38 92.5t-93 33.5t-94 -34t-39 -92t37.5 -89.5t95.5 -31.5t94.5 30t36.5 91z" />
    <glyph glyph-name="gdotaccent.alt" horiz-adv-x="557" 
d="M240 637q0 52 52 52t52 -52t-52 -52t-52 52zM74 -172v66q108 -35 176 -35q172 0 172 62q0 47 -82 48l-137 4q-64 2 -102.5 29t-38.5 75q0 53 52 86q-58 52 -58 137q0 69 33 115t79 63.5t101 16.5h4q93 0 149 -46q56 45 104 45q15 0 33 -4v-74q-19 3 -27 3q-32 0 -71 -16
q25 -48 25 -101q0 -55 -18.5 -94t-50.5 -59t-67 -28.5t-76 -7.5h-5q-57 -2 -104 19q-24 -16 -25 -36q-1 -22 23 -34.5t56 -13.5l137 -4q142 -7 142 -119q0 -16 -2 -29t-15 -34t-36.5 -35.5t-70.5 -25.5t-113 -11q-99 0 -187 38zM403 303q0 59 -38 92.5t-93 33.5t-94 -34
t-39 -92t37.5 -89.5t95.5 -31.5t94.5 30t36.5 91z" />
    <glyph glyph-name="gcommaaccent.alt" horiz-adv-x="557" 
d="M367 710q-47 -83 -53 -144h-82q12 76 69 144h66zM74 -172v66q108 -35 176 -35q172 0 172 62q0 47 -82 48l-137 4q-64 2 -102.5 29t-38.5 75q0 53 52 86q-58 52 -58 137q0 69 33 115t79 63.5t101 16.5h4q93 0 149 -46q56 45 104 45q15 0 33 -4v-74q-19 3 -27 3
q-32 0 -71 -16q25 -48 25 -101q0 -55 -18.5 -94t-50.5 -59t-67 -28.5t-76 -7.5h-5q-57 -2 -104 19q-24 -16 -25 -36q-1 -22 23 -34.5t56 -13.5l137 -4q142 -7 142 -119q0 -16 -2 -29t-15 -34t-36.5 -35.5t-70.5 -25.5t-113 -11q-99 0 -187 38zM403 303q0 59 -38 92.5
t-93 33.5t-94 -34t-39 -92t37.5 -89.5t95.5 -31.5t94.5 30t36.5 91z" />
    <glyph glyph-name="zero.denominator" horiz-adv-x="394" 
d="M349 197q0 -93 -41.5 -148t-110.5 -55q-69 1 -110 55.5t-41 147.5q0 102 45 153t106 51q62 0 107 -50.5t45 -153.5zM198 48q39 0 64 41.5t25 107.5q0 73 -27.5 111.5t-62.5 38.5q-34 0 -61.5 -38.5t-27.5 -111.5q0 -67 25 -108t65 -41z" />
    <glyph glyph-name="one.denominator" horiz-adv-x="280" 
d="M44 0v52h75v280l-74 -31v53l86 41h50v-343h75v-52h-212z" />
    <glyph glyph-name="two.denominator" horiz-adv-x="351" 
d="M304 296q0 -65 -53 -114l-132 -130h186v-52h-268v46l136 135q71 66 71 110q-1 26 -22 41.5t-58 15.5q-49 0 -111 -35v55q53 32 110 32q67 0 104 -28.5t37 -75.5z" />
    <glyph glyph-name="three.denominator" horiz-adv-x="354" 
d="M303 288q0 -9 -1.5 -20.5t-13.5 -35t-34 -35.5q22 -12 34 -36t13.5 -35.5t1.5 -19.5q-2 -52 -38 -82t-103 -30q-26 0 -65 7.5t-54 14.5v52q56 -21 120 -21q37 0 57 17.5t21 44.5v5.5t-1.5 13t-5 17.5t-13 15t-22.5 10h-106v53h105q20 6 31 21.5t11 27.5l1 13
q-1 27 -21 45t-57 18q-50 0 -110 -21v51q16 7 50 14.5t59 7.5q67 0 103 -30t38 -82z" />
    <glyph glyph-name="four.denominator" horiz-adv-x="366" 
d="M277 144h53v-51h-53v-93h-62v93h-191v40l191 262h62v-251zM215 318l-127 -174h127v174z" />
    <glyph glyph-name="five.denominator" horiz-adv-x="364" 
d="M302 395v-53h-173l-9 -96h71q71 0 102 -35.5t31 -92.5q-2 -53 -41.5 -88.5t-106.5 -35.5q-27 0 -73 7.5t-61 14.5l8 52q55 -21 127 -21q39 0 62 20.5t23 53.5q0 8 -1.5 16t-7.5 22.5t-23 23.5t-43 9h-132l17 203h230z" />
    <glyph glyph-name="six.denominator" horiz-adv-x="383" 
d="M109 125q0 -32 23 -55.5t65 -23.5q38 0 62.5 19t24.5 60q0 34 -22.5 57t-61.5 23q-43 0 -66.5 -24t-24.5 -56zM237 351q-58 0 -93.5 -42t-35.5 -105q16 27 42.5 40.5t49.5 13.5q71 0 107.5 -39.5t36.5 -93.5q0 -61 -38.5 -96t-107.5 -35q-152 0 -152 158q0 120 48 184.5
t134 64.5q11 0 20.5 -0.5t15.5 -1.5t14 -3t11.5 -3t13 -4.5t13.5 -4.5v-48q-38 15 -79 15z" />
    <glyph glyph-name="seven.denominator" horiz-adv-x="324" 
d="M106 0h-66l193 342h-196v53h267v-48z" />
    <glyph glyph-name="eight.denominator" horiz-adv-x="387" 
d="M190 -6q-66 0 -103 30.5t-39 81.5q0 9 1.5 20.5t14 37t35.5 39.5q-42 25 -42 91q2 49 35.5 77.5t97.5 29.5h8q63 -1 97 -29.5t36 -77.5q0 -66 -43 -91q23 -14 36 -39.5t14.5 -37t1.5 -20.5q-2 -51 -39 -81.5t-103 -30.5h-8zM186 45h16q36 1 55.5 19.5t20.5 44.5
q0 3 -0.5 7.5t-4 16.5t-10 21.5t-20.5 17t-32 7.5h-33q-30 0 -47 -17.5t-19 -35.5l-2 -17q1 -27 21 -45t55 -19zM174 226h37q27 0 42.5 16.5t16.5 32.5l2 16q-1 24 -19.5 42t-50.5 19h-16q-32 -1 -50 -19t-19 -42q0 -3 0.5 -7t3.5 -15.5t8.5 -20t17 -15.5t27.5 -7z" />
    <glyph glyph-name="nine.denominator" horiz-adv-x="382" 
d="M273 270q0 32 -23 55.5t-65 23.5q-38 0 -62.5 -19t-24.5 -60q0 -34 22.5 -57t61.5 -23q43 0 66.5 24t24.5 56zM145 44q58 0 93.5 42t35.5 105q-16 -27 -42.5 -40.5t-49.5 -13.5q-71 0 -107.5 39.5t-36.5 93.5q0 61 38.5 96t107.5 35q152 0 152 -158q0 -120 -48 -184.5
t-134 -64.5q-11 0 -20.5 0.5t-15.5 1.5t-14 3t-11.5 3t-13 4.5t-13.5 4.5v48q38 -15 79 -15z" />
    <glyph glyph-name="zero.numerator" horiz-adv-x="395" 
d="M349 492q0 -93 -41.5 -148t-110.5 -55q-69 1 -110 55.5t-41 147.5q0 102 45 153t106 51q62 0 107 -50.5t45 -153.5zM198 343q39 0 64 41.5t25 107.5q0 73 -27.5 111.5t-62.5 38.5q-34 0 -61.5 -38.5t-27.5 -111.5q0 -67 25 -108t65 -41z" />
    <glyph glyph-name="one.numerator" horiz-adv-x="282" 
d="M45 295v52h75v280l-74 -31v53l86 41h50v-343h75v-52h-212z" />
    <glyph glyph-name="two.numerator" horiz-adv-x="352" 
d="M304 591q0 -65 -53 -114l-132 -130h186v-52h-268v46l136 135q71 66 71 110q-1 26 -22 41.5t-58 15.5q-49 0 -111 -35v55q53 32 110 32q67 0 104 -28.5t37 -75.5z" />
    <glyph glyph-name="three.numerator" horiz-adv-x="355" 
d="M304 583q0 -9 -1.5 -20.5t-13.5 -35t-34 -35.5q22 -12 34 -36t13.5 -35.5t1.5 -19.5q-2 -52 -38 -82t-103 -30q-26 0 -65 7.5t-54 14.5v52q56 -21 120 -21q37 0 57 17.5t21 44.5v5.5t-1.5 13t-5 17.5t-13 15t-22.5 10h-106v53h105q20 6 30.5 21.5t11.5 28.5l1 12
q-1 27 -21 45t-57 18q-50 0 -110 -21v51q50 22 109 22q67 0 103 -30t38 -82z" />
    <glyph glyph-name="four.numerator" horiz-adv-x="366" 
d="M277 439h53v-51h-53v-93h-62v93h-191v40l191 262h62v-251zM215 613l-127 -174h127v174z" />
    <glyph glyph-name="five.numerator" horiz-adv-x="365" 
d="M303 690v-53h-173l-9 -96h71q71 0 102 -35.5t31 -92.5q-2 -53 -41.5 -88.5t-106.5 -35.5q-27 0 -73 7.5t-61 14.5l8 52q55 -21 127 -21q39 0 62 20.5t23 53.5q0 8 -1.5 16t-7.5 22.5t-23 23.5t-43 9h-132l17 203h230z" />
    <glyph glyph-name="six.numerator" horiz-adv-x="383" 
d="M109 420q0 -32 23 -55.5t65 -23.5q38 0 62.5 19t24.5 60q0 34 -22.5 57t-61.5 23q-43 0 -66.5 -24t-24.5 -56zM237 646q-58 0 -93.5 -42t-35.5 -105q16 27 42.5 40.5t49.5 13.5q71 0 107.5 -39.5t36.5 -93.5q0 -61 -38.5 -96t-107.5 -35q-152 0 -152 158q0 120 48 184.5
t134 64.5q11 0 20.5 -0.5t15.5 -1.5t14 -3t11.5 -3t13 -4.5t13.5 -4.5v-48q-37 15 -79 15z" />
    <glyph glyph-name="seven.numerator" horiz-adv-x="324" 
d="M106 295h-66l193 342h-196v53h267v-48z" />
    <glyph glyph-name="eight.numerator" horiz-adv-x="388" 
d="M198 289h-8q-66 0 -103 30.5t-39 81.5q0 9 1.5 20.5t14 37t35.5 39.5q-42 25 -42 91q2 49 35.5 77.5t97.5 29.5h8q63 -1 97 -29.5t36 -77.5q0 -66 -43 -91q23 -14 36 -39.5t14.5 -37t1.5 -20.5q-2 -51 -39 -81.5t-103 -30.5zM186 340h16q36 1 55.5 19.5t20.5 44.5
q0 3 -0.5 7.5t-4 16.5t-10 21.5t-20.5 17t-32 7.5h-33q-30 0 -47 -17.5t-19 -34.5l-2 -18q1 -27 21 -45t55 -19zM174 521h37q27 0 42.5 16.5t16.5 32.5l2 16q-1 24 -19.5 42t-50.5 19h-16q-32 -1 -50 -19t-19 -42q0 -3 0.5 -7t3.5 -15.5t8.5 -20t17 -15.5t27.5 -7z" />
    <glyph glyph-name="nine.numerator" horiz-adv-x="383" 
d="M274 565q0 32 -23 55.5t-65 23.5q-38 0 -62.5 -19t-24.5 -60q0 -34 22.5 -57t61.5 -23q43 0 66.5 24t24.5 56zM146 339q58 0 93.5 42t35.5 105q-16 -27 -42.5 -40.5t-49.5 -13.5q-71 0 -107.5 39.5t-36.5 93.5q0 61 38.5 96t107.5 35q152 0 152 -158q0 -120 -48 -184.5
t-134 -64.5q-11 0 -20.5 0.5t-15.5 1.5t-14 3t-11.5 3t-13 4.5t-13.5 4.5v48q37 -15 79 -15z" />
    <glyph glyph-name="parenleft.case" horiz-adv-x="339" 
d="M50 344q0 213 70 331.5t187 118.5v-62q-75 -1 -124.5 -96.5t-49.5 -293.5q0 -197 49.5 -290.5t124.5 -94.5v-63q-117 0 -187 120t-70 330z" />
    <glyph glyph-name="parenright.case" horiz-adv-x="339" 
d="M289 344q0 -210 -70 -330t-187 -120v63q75 1 124.5 94.5t49.5 290.5q0 198 -49.5 293.5t-124.5 96.5v62q117 0 187 -118.5t70 -331.5z" />
    <glyph glyph-name="hyphen.case" horiz-adv-x="456" 
d="M389 372v-76h-322v76h322z" />
    <glyph glyph-name="at.case" horiz-adv-x="1004" 
d="M893 89v-74q-59 -53 -161 -83.5t-206 -30.5q-218 0 -350 126t-132 310q0 177 138.5 303.5t329.5 126.5q90 0 166.5 -22t128 -58.5t88 -83.5t53 -96.5t16.5 -97.5q0 -85 -26 -148.5t-68.5 -96.5t-87 -48.5t-90.5 -15.5q-37 0 -70.5 19.5t-42.5 50.5q-61 -54 -134 -54
q-76 0 -127.5 49t-51.5 151q0 90 62 162t175 72q28 0 63 -14.5t52 -38.5l9 45h92l-65 -290q-9 -33 8 -59.5t40 -26.5q30 0 60 12t59.5 37.5t48 74t18.5 111.5q0 71 -33.5 130t-88 96t-120.5 57t-134 20q-158 0 -275 -109t-117 -258q0 -163 114 -266t297 -103q208 0 362 121z
M504 479q-41 0 -72 -16t-47 -42t-23.5 -52.5t-7.5 -52.5q0 -128 106 -128q55 0 104 51l40 199q-35 41 -100 41z" />
    <glyph glyph-name="bracketleft.case" horiz-adv-x="314" 
d="M279 -29v-66h-200v889h200v-66h-114v-757h114z" />
    <glyph glyph-name="bracketright.case" horiz-adv-x="314" 
d="M35 -95v66h114v757h-114v66h200v-889h-200z" />
    <glyph glyph-name="braceleft.case" horiz-adv-x="338" 
d="M38 379q29 4 48.5 19t19.5 41v180q0 175 167 175h30v-63h-12q-28 0 -48 -8t-30 -19t-15 -28.5t-6 -28.5t-1 -28v-142q0 -32 -5.5 -54.5t-17.5 -36.5t-21.5 -20.5t-27.5 -15.5q18 -9 27.5 -15.5t21.5 -20.5t17.5 -36.5t5.5 -54.5v-142q0 -17 1 -28t6 -28.5t15 -28.5
t30 -19t48 -8h12v-63h-30q-167 0 -167 175v180q0 23 -20.5 39.5t-47.5 20.5v58z" />
    <glyph glyph-name="braceright.case" horiz-adv-x="338" 
d="M300 379v-58q-27 -4 -47.5 -20.5t-20.5 -39.5v-180q0 -175 -167 -175h-30v63h12q28 0 48 8t30 19t15 28.5t6 28.5t1 28v142q0 32 5.5 54.5t17.5 36.5t21.5 20.5t27.5 15.5q-18 9 -27.5 15.5t-21.5 20.5t-17.5 36.5t-5.5 54.5v142q0 17 -1 28t-6 28.5t-15 28.5t-30 19
t-48 8h-12v63h30q167 0 167 -175v-180q0 -26 19.5 -41t48.5 -19z" />
    <glyph glyph-name="exclamdown.case" horiz-adv-x="246" 
d="M166 0h-86l8 533h70zM70 643q0 52 52 52t52 -52t-52 -52t-52 52z" />
    <glyph glyph-name="guillemotleft.case" horiz-adv-x="523" 
d="M329 347l138 -207h-96l-138 207l138 207h96zM147 347l138 -207h-96l-138 207l138 207h96z" />
    <glyph glyph-name="periodcentered.case" horiz-adv-x="240" 
d="M63 346q0 27 12 42t45 15t45 -15t12 -42q0 -57 -57 -57t-57 57z" />
    <glyph glyph-name="guillemotright.case" horiz-adv-x="523" 
d="M194 347l-138 207h96l138 -207l-138 -207h-96zM376 347l-138 207h96l138 -207l-138 -207h-96z" />
    <glyph glyph-name="questiondown.case" horiz-adv-x="460" 
d="M358 535v-2q8 -158 -162 -232q-28 -12 -46 -30t-24.5 -36.5t-8.5 -30t-1 -20.5q0 -55 42 -84.5t117 -29.5l15 1q15 1 24 2.5t26.5 5.5t37.5 12t42 20l6 -72q-61 -41 -145 -47q-109 -9 -179.5 46.5t-70.5 139.5q0 65 22 107q33 61 109 94q119 51 113 149v7h83zM367 645
q0 -52 -52 -52t-52 52t52 52t52 -52z" />
    <glyph glyph-name="endash.case" horiz-adv-x="596" 
d="M531 382v-74h-466v74h466z" />
    <glyph glyph-name="emdash.case" horiz-adv-x="811" 
d="M746 382v-74h-681v74h681z" />
    <glyph glyph-name="bullet.case" horiz-adv-x="398" 
d="M52 331q0 70 31.5 108.5t115.5 38.5t115.5 -38.5t31.5 -108.5q0 -147 -147 -147t-147 147z" />
    <glyph glyph-name="guilsinglleft.case" horiz-adv-x="341" 
d="M147 347l138 -207h-96l-138 207l138 207h96z" />
    <glyph glyph-name="guilsinglright.case" horiz-adv-x="341" 
d="M194 347l-138 207h96l138 -207l-138 -207h-96z" />
    <glyph glyph-name="y.alt" horiz-adv-x="499" 
d="M201 11l-183 473h96l135 -368q56 129 145 369h87q-77 -207 -141.5 -359t-159.5 -328h-86q64 118 107 213z" />
    <glyph glyph-name="yacute.alt" horiz-adv-x="499" 
d="M359 689l-95 -134h-70l70 134h95zM201 11l-183 473h96l135 -368q56 129 145 369h87q-77 -207 -141.5 -359t-159.5 -328h-86q64 118 107 213z" />
    <glyph glyph-name="ydieresis.alt" horiz-adv-x="499" 
d="M136 637q0 52 52 52t52 -52t-52 -52t-52 52zM286 637q0 52 52 52t52 -52t-52 -52t-52 52zM201 11l-183 473h96l135 -368q56 129 145 369h87q-77 -207 -141.5 -359t-159.5 -328h-86q64 118 107 213z" />
    <glyph glyph-name="ycircumflex.alt" horiz-adv-x="499" 
d="M330 555l-68 83l-68 -83h-70l89 134h98l89 -134h-70zM201 11l-183 473h96l135 -368q56 129 145 369h87q-77 -207 -141.5 -359t-159.5 -328h-86q64 118 107 213z" />
    <glyph glyph-name="ygrave.alt" horiz-adv-x="499" 
d="M231 555l-95 134h95l70 -134h-70zM201 11l-183 473h96l135 -368q56 129 145 369h87q-77 -207 -141.5 -359t-159.5 -328h-86q64 118 107 213z" />
    <glyph glyph-name="c_t" horiz-adv-x="810" 
d="M377 559q0 -33 16.5 -56.5t36.5 -29.5v-61q-68 18 -128 16q-85 0 -124.5 -53t-39.5 -134q0 -80 39.5 -132.5t124.5 -52.5q60 -2 128 16v-66q-68 -17 -146 -17q-94 0 -165 68.5t-71 184.5v-2q0 117 71 186t165 69q38 0 61 -11q-13 10 -20 30.5t-8 35.5l-1 15
q0 67 50.5 107.5t112.5 40.5q26 0 49 -3.5t49 -14.5t44.5 -28.5t31 -49t12.5 -72.5v-61h112v-67h-112v-277q0 -19 2 -29.5t11 -23t30.5 -18t56.5 -5.5h13v-69h-31q-90 0 -128.5 29.5t-38.5 109.5v283h-84v67h93v45q0 58 -26 91.5t-78 33.5q-50 0 -79 -30t-29 -65z" />
    <glyph glyph-name="lslash.alt" horiz-adv-x="292" 
d="M101 322l-83 -54v72l83 55v315h85v-259l88 58v-74l-88 -58v-377h-85v322z" />
    <glyph glyph-name="l.alt" horiz-adv-x="235" 
d="M160 710v-710h-85v710h85z" />
    <glyph glyph-name="lacute.alt" horiz-adv-x="235" 
d="M244 895l-95 -134h-70l70 134h95zM160 710v-710h-85v710h85z" />
    <glyph glyph-name="lcaron.alt" horiz-adv-x="300" 
d="M277 528h-64l49 172h90zM160 710v-710h-85v710h85z" />
    <glyph glyph-name="ldot.alt" horiz-adv-x="331" 
d="M218 360q0 27 12 42t45 15t45 -15t12 -42q0 -57 -57 -57t-57 57zM160 710v-710h-85v710h85z" />
    <glyph glyph-name="lcommaaccent.alt" horiz-adv-x="235" 
d="M3 -227q63 82 72 171h85q-8 -50 -34 -98t-57 -73h-66zM160 710v-710h-85v710h85z" />
    <glyph glyph-name="zero.pzero" horiz-adv-x="621" 
d="M569 700l-66 -105q65 -95 65 -252q0 -161 -70.5 -257t-188.5 -97q-88 0 -152 56l-64 -102l-41 30l69 112q-70 95 -70 258q0 93 22.5 164.5t60.5 112t82.5 60.5t92.5 20q88 0 157 -63l57 92zM136 343q0 -105 36 -177l248 398q-48 60 -111 60q-67 0 -120 -72.5t-53 -208.5z
M310 65q75 0 124 78t49 200q0 101 -32 170l-248 -395q45 -53 107 -53z" />
    <glyph glyph-name="zero.tzero" 
d="M556 700l-66 -105q65 -95 65 -252q0 -161 -70.5 -257t-188.5 -97q-88 0 -152 56l-64 -102l-41 30l69 112q-70 95 -70 258q0 93 22.5 164.5t60.5 112t82.5 60.5t92.5 20q88 0 157 -63l57 92zM123 343q0 -105 36 -177l248 398q-48 60 -111 60q-67 0 -120 -72.5t-53 -208.5z
M297 65q75 0 124 78t49 200q0 101 -32 170l-248 -395q45 -53 107 -53z" />
    <glyph glyph-name="zero.ozero" horiz-adv-x="582" 
d="M487 503l-41 -65q86 -67 86 -197q0 -113 -67 -181t-175 -68q-63 2 -108 22l-43 -69l-43 24l43 71q-89 68 -89 201q0 124 72.5 186.5t167.5 62.5q58 0 110 -24l41 66zM127 241q0 -78 55 -131l177 289q-35 18 -69 18q-58 0 -110.5 -47.5t-52.5 -128.5zM292 65q65 0 114 51
t49 125q0 78 -52 128l-180 -288q31 -16 69 -16z" />
    <glyph glyph-name="zero.tozero" 
d="M493 503l-41 -65q86 -67 86 -197q0 -113 -67 -181t-175 -68q-63 2 -108 22l-43 -69l-43 24l43 71q-89 68 -89 201q0 124 72.5 186.5t167.5 62.5q58 0 110 -24l41 66zM133 241q0 -78 55 -131l177 289q-34 18 -69 18q-58 0 -110.5 -47.5t-52.5 -128.5zM298 65q65 0 114 51
t49 125q0 78 -52 128l-180 -288q31 -16 69 -16z" />
    </font>
</defs>
</svg>
